  0
SECTION
  2
HEADER
  9
$ACADVER
  1
AC1027
  9
$ACADMAINTVER
 70
   125
  9
$DWGCODEPAGE
  3
ANSI_1252
  9
$REQUIREDVERSIONS
160
                 0
  9
$INSBASE
 10
0.0
 20
0.0
 30
0.0
  9
$EXTMIN
 10
1.000000000000000E+20
 20
1.000000000000000E+20
 30
1.000000000000000E+20
  9
$EXTMAX
 10
-1.000000000000000E+20
 20
-1.000000000000000E+20
 30
-1.000000000000000E+20
  9
$LIMMIN
 10
0.0
 20
0.0
  9
$LIMMAX
 10
12.0
 20
9.0
  9
$ORTHOMODE
 70
     0
  9
$REGENMODE
 70
     1
  9
$FILLMODE
 70
     1
  9
$QTEXTMODE
 70
     0
  9
$MIRRTEXT
 70
     0
  9
$LTSCALE
 40
1.0
  9
$ATTMODE
 70
     1
  9
$TEXTSIZE
 40
0.2
  9
$TRACEWID
 40
0.05
  9
$TEXTSTYLE
  7
Standard
  9
$CLAYER
  8
0
  9
$CELTYPE
  6
ByLayer
  9
$CECOLOR
 62
   256
  9
$CELTSCALE
 40
1.0
  9
$DISPSILH
 70
     0
  9
$DIMSCALE
 40
1.0
  9
$DIMASZ
 40
0.18
  9
$DIMEXO
 40
0.0625
  9
$DIMDLI
 40
0.38
  9
$DIMRND
 40
0.0
  9
$DIMDLE
 40
0.0
  9
$DIMEXE
 40
0.18
  9
$DIMTP
 40
0.0
  9
$DIMTM
 40
0.0
  9
$DIMTXT
 40
0.18
  9
$DIMCEN
 40
0.09
  9
$DIMTSZ
 40
0.0
  9
$DIMTOL
 70
     0
  9
$DIMLIM
 70
     0
  9
$DIMTIH
 70
     1
  9
$DIMTOH
 70
     1
  9
$DIMSE1
 70
     0
  9
$DIMSE2
 70
     0
  9
$DIMTAD
 70
     0
  9
$DIMZIN
 70
     0
  9
$DIMBLK
  1

  9
$DIMASO
 70
     1
  9
$DIMSHO
 70
     1
  9
$DIMPOST
  1

  9
$DIMAPOST
  1

  9
$DIMALT
 70
     0
  9
$DIMALTD
 70
     2
  9
$DIMALTF
 40
25.4
  9
$DIMLFAC
 40
1.0
  9
$DIMTOFL
 70
     0
  9
$DIMTVP
 40
0.0
  9
$DIMTIX
 70
     0
  9
$DIMSOXD
 70
     0
  9
$DIMSAH
 70
     0
  9
$DIMBLK1
  1

  9
$DIMBLK2
  1

  9
$DIMSTYLE
  2
Standard
  9
$DIMCLRD
 70
     0
  9
$DIMCLRE
 70
     0
  9
$DIMCLRT
 70
     0
  9
$DIMTFAC
 40
1.0
  9
$DIMGAP
 40
0.09
  9
$DIMJUST
 70
     0
  9
$DIMSD1
 70
     0
  9
$DIMSD2
 70
     0
  9
$DIMTOLJ
 70
     1
  9
$DIMTZIN
 70
     0
  9
$DIMALTZ
 70
     0
  9
$DIMALTTZ
 70
     0
  9
$DIMUPT
 70
     0
  9
$DIMDEC
 70
     4
  9
$DIMTDEC
 70
     4
  9
$DIMALTU
 70
     2
  9
$DIMALTTD
 70
     2
  9
$DIMTXSTY
  7
Standard
  9
$DIMAUNIT
 70
     0
  9
$DIMADEC
 70
     0
  9
$DIMALTRND
 40
0.0
  9
$DIMAZIN
 70
     0
  9
$DIMDSEP
 70
    46
  9
$DIMATFIT
 70
     3
  9
$DIMFRAC
 70
     0
  9
$DIMLDRBLK
  1

  9
$DIMLUNIT
 70
     2
  9
$DIMLWD
 70
    -2
  9
$DIMLWE
 70
    -2
  9
$DIMTMOVE
 70
     0
  9
$DIMFXL
 40
1.0
  9
$DIMFXLON
 70
     0
  9
$DIMJOGANG
 40
0.7853981633974483
  9
$DIMTFILL
 70
     0
  9
$DIMTFILLCLR
 70
     0
  9
$DIMARCSYM
 70
     0
  9
$DIMLTYPE
  6

  9
$DIMLTEX1
  6

  9
$DIMLTEX2
  6

  9
$DIMTXTDIRECTION
 70
     0
  9
$LUNITS
 70
     2
  9
$LUPREC
 70
     4
  9
$SKETCHINC
 40
0.1
  9
$FILLETRAD
 40
0.0
  9
$AUNITS
 70
     0
  9
$AUPREC
 70
     0
  9
$MENU
  1
.
  9
$ELEVATION
 40
0.0
  9
$PELEVATION
 40
0.0
  9
$THICKNESS
 40
0.0
  9
$LIMCHECK
 70
     0
  9
$CHAMFERA
 40
0.0
  9
$CHAMFERB
 40
0.0
  9
$CHAMFERC
 40
0.0
  9
$CHAMFERD
 40
0.0
  9
$SKPOLY
 70
     0
  9
$TDCREATE
 40
2461094.708784723
  9
$TDUCREATE
 40
2461094.708784723
  9
$TDUPDATE
 40
2461094.708784723
  9
$TDUUPDATE
 40
2461094.708784723
  9
$TDINDWG
 40
0.0000000000
  9
$TDUSRTIMER
 40
0.0000000000
  9
$USRTIMER
 70
     1
  9
$ANGBASE
 50
0.0
  9
$ANGDIR
 70
     0
  9
$PDMODE
 70
     0
  9
$PDSIZE
 40
0.0
  9
$PLINEWID
 40
0.0
  9
$SPLFRAME
 70
     0
  9
$SPLINETYPE
 70
     6
  9
$SPLINESEGS
 70
     8
  9
$HANDSEED
  5
A4
  9
$SURFTAB1
 70
     6
  9
$SURFTAB2
 70
     6
  9
$SURFTYPE
 70
     6
  9
$SURFU
 70
     6
  9
$SURFV
 70
     6
  9
$UCSBASE
  2

  9
$UCSNAME
  2

  9
$UCSORG
 10
0.0
 20
0.0
 30
0.0
  9
$UCSXDIR
 10
1.0
 20
0.0
 30
0.0
  9
$UCSYDIR
 10
0.0
 20
1.0
 30
0.0
  9
$UCSORTHOREF
  2

  9
$UCSORTHOVIEW
 70
     0
  9
$UCSORGTOP
 10
0.0
 20
0.0
 30
0.0
  9
$UCSORGBOTTOM
 10
0.0
 20
0.0
 30
0.0
  9
$UCSORGLEFT
 10
0.0
 20
0.0
 30
0.0
  9
$UCSORGRIGHT
 10
0.0
 20
0.0
 30
0.0
  9
$UCSORGFRONT
 10
0.0
 20
0.0
 30
0.0
  9
$UCSORGBACK
 10
0.0
 20
0.0
 30
0.0
  9
$PUCSBASE
  2

  9
$PUCSNAME
  2

  9
$PUCSORG
 10
0.0
 20
0.0
 30
0.0
  9
$PUCSXDIR
 10
1.0
 20
0.0
 30
0.0
  9
$PUCSYDIR
 10
0.0
 20
1.0
 30
0.0
  9
$PUCSORTHOREF
  2

  9
$PUCSORTHOVIEW
 70
     0
  9
$PUCSORGTOP
 10
0.0
 20
0.0
 30
0.0
  9
$PUCSORGBOTTOM
 10
0.0
 20
0.0
 30
0.0
  9
$PUCSORGLEFT
 10
0.0
 20
0.0
 30
0.0
  9
$PUCSORGRIGHT
 10
0.0
 20
0.0
 30
0.0
  9
$PUCSORGFRONT
 10
0.0
 20
0.0
 30
0.0
  9
$PUCSORGBACK
 10
0.0
 20
0.0
 30
0.0
  9
$USERI1
 70
     0
  9
$USERI2
 70
     0
  9
$USERI3
 70
     0
  9
$USERI4
 70
     0
  9
$USERI5
 70
     0
  9
$USERR1
 40
0.0
  9
$USERR2
 40
0.0
  9
$USERR3
 40
0.0
  9
$USERR4
 40
0.0
  9
$USERR5
 40
0.0
  9
$WORLDVIEW
 70
     1
  9
$SHADEDGE
 70
     3
  9
$SHADEDIF
 70
    70
  9
$TILEMODE
 70
     1
  9
$MAXACTVP
 70
    64
  9
$PINSBASE
 10
0.0
 20
0.0
 30
0.0
  9
$PLIMCHECK
 70
     0
  9
$PEXTMIN
 10
1.000000000000000E+20
 20
1.000000000000000E+20
 30
1.000000000000000E+20
  9
$PEXTMAX
 10
-1.000000000000000E+20
 20
-1.000000000000000E+20
 30
-1.000000000000000E+20
  9
$PLIMMIN
 10
0.0
 20
0.0
  9
$PLIMMAX
 10
12.0
 20
9.0
  9
$UNITMODE
 70
     0
  9
$VISRETAIN
 70
     1
  9
$PLINEGEN
 70
     0
  9
$PSLTSCALE
 70
     1
  9
$TREEDEPTH
 70
  3020
  9
$CMLSTYLE
  2
Standard
  9
$CMLJUST
 70
     0
  9
$CMLSCALE
 40
1.0
  9
$PROXYGRAPHICS
 70
     1
  9
$MEASUREMENT
 70
     0
  9
$CELWEIGHT
370
    -1
  9
$ENDCAPS
280
     0
  9
$JOINSTYLE
280
     0
  9
$LWDISPLAY
290
     1
  9
$INSUNITS
 70
     0
  9
$HYPERLINKBASE
  1

  9
$STYLESHEET
  1

  9
$XEDIT
290
     1
  9
$CEPSNTYPE
380
     0
  9
$PSTYLEMODE
290
     1
  9
$FINGERPRINTGUID
  2
{B5B6D2AB-DCBA-184A-9DF7-D3F8B45BAA52}
  9
$VERSIONGUID
  2
{32D2E63E-B5A0-7342-9F42-F3D08717EB0F}
  9
$EXTNAMES
290
     1
  9
$PSVPSCALE
 40
0.0
  9
$OLESTARTUP
290
     0
  9
$SORTENTS
280
   127
  9
$INDEXCTL
280
     0
  9
$HIDETEXT
280
     1
  9
$XCLIPFRAME
280
     2
  9
$HALOGAP
280
     0
  9
$OBSCOLOR
 70
   257
  9
$OBSLTYPE
280
     0
  9
$INTERSECTIONDISPLAY
280
     0
  9
$INTERSECTIONCOLOR
 70
   257
  9
$DIMASSOC
280
     2
  9
$PROJECTNAME
  1

  9
$CAMERADISPLAY
290
     0
  9
$LENSLENGTH
 40
50.0
  9
$CAMERAHEIGHT
 40
0.0
  9
$STEPSPERSEC
 40
2.0
  9
$STEPSIZE
 40
6.0
  9
$3DDWFPREC
 40
2.0
  9
$PSOLWIDTH
 40
0.25
  9
$PSOLHEIGHT
 40
4.0
  9
$LOFTANG1
 40
1.570796326794896
  9
$LOFTANG2
 40
1.570796326794896
  9
$LOFTMAG1
 40
0.0
  9
$LOFTMAG2
 40
0.0
  9
$LOFTPARAM
 70
     7
  9
$LOFTNORMALS
280
     1
  9
$LATITUDE
 40
37.795
  9
$LONGITUDE
 40
-122.394
  9
$NORTHDIRECTION
 40
0.0
  9
$TIMEZONE
 70
 -8000
  9
$LIGHTGLYPHDISPLAY
280
     1
  9
$TILEMODELIGHTSYNCH
280
     1
  9
$CMATERIAL
347
11
  9
$SOLIDHIST
280
     0
  9
$SHOWHIST
280
     1
  9
$DWFFRAME
280
     2
  9
$DGNFRAME
280
     0
  9
$REALWORLDSCALE
290
     1
  9
$INTERFERECOLOR
 62
     1
  9
$INTERFEREOBJVS
345
33
  9
$INTERFEREVPVS
346
30
  9
$CSHADOW
280
     0
  9
$SHADOWPLANELOCATION
 40
0.0
  0
ENDSEC
  0
SECTION
  2
CLASSES
  0
CLASS
  1
ACDBDICTIONARYWDFLT
  2
AcDbDictionaryWithDefault
  3
ObjectDBX Classes
 90
        0
 91
        1
280
     0
281
     0
  0
CLASS
  1
MATERIAL
  2
AcDbMaterial
  3
ObjectDBX Classes
 90
     1153
 91
        3
280
     0
281
     0
  0
CLASS
  1
VISUALSTYLE
  2
AcDbVisualStyle
  3
ObjectDBX Classes
 90
     4095
 91
       24
280
     0
281
     0
  0
CLASS
  1
SCALE
  2
AcDbScale
  3
ObjectDBX Classes
 90
     1153
 91
       17
280
     0
281
     0
  0
CLASS
  1
TABLESTYLE
  2
AcDbTableStyle
  3
ObjectDBX Classes
 90
     4095
 91
        1
280
     0
281
     0
  0
CLASS
  1
MLEADERSTYLE
  2
AcDbMLeaderStyle
  3
ACDB_MLEADERSTYLE_CLASS
 90
     4095
 91
        1
280
     0
281
     0
  0
CLASS
  1
ACDBSECTIONVIEWSTYLE
  2
AcDbSectionViewStyle
  3
ObjectDBX Classes
 90
     1025
 91
        1
280
     0
281
     0
  0
CLASS
  1
ACDBDETAILVIEWSTYLE
  2
AcDbDetailViewStyle
  3
ObjectDBX Classes
 90
     1025
 91
        1
280
     0
281
     0
  0
CLASS
  1
DICTIONARYVAR
  2
AcDbDictionaryVar
  3
ObjectDBX Classes
 90
        0
 91
        5
280
     0
281
     0
  0
CLASS
  1
CELLSTYLEMAP
  2
AcDbCellStyleMap
  3
ObjectDBX Classes
 90
     1152
 91
        1
280
     0
281
     0
  0
ENDSEC
  0
SECTION
  2
TABLES
  0
TABLE
  2
VPORT
  5
8
330
0
100
AcDbSymbolTable
 70
     1
1001
ACAD
1000
DbSaveVer
1071
      316
  0
VPORT
  5
57
330
8
100
AcDbSymbolTableRecord
100
AcDbViewportTableRecord
  2
*Active
 70
     0
 10
0.0
 20
0.0
 11
1.0
 21
1.0
 12
0.0
 22
0.0
 13
0.0
 23
0.0
 14
1.0
 24
1.0
 15
0.0
 25
0.0
 16
0.0
 26
0.0
 36
1.0
 17
161.8072342107366
 27
120.0
 37
0.0
 40
244.8
 41
2.123342239899181
 42
50.0
 43
0.0
 44
0.0
 50
0.0
 51
0.0
 71
     0
 72
   100
 73
     1
 74
     1
 75
     0
 76
     0
 77
     0
 78
     0
281
     0
 65
     1
110
0.0
120
0.0
130
0.0
111
1.0
121
0.0
131
0.0
112
0.0
122
1.0
132
0.0
 79
     0
146
0.0
 60
     3
 61
     5
292
     1
282
     1
141
0.0
142
0.0
 63
   250
421
  3355443
  0
ENDTAB
  0
TABLE
  2
LTYPE
  5
5
330
0
100
AcDbSymbolTable
 70
     1
  0
LTYPE
  5
5B
330
5
100
AcDbSymbolTableRecord
100
AcDbLinetypeTableRecord
  2
ByBlock
 70
     0
  3

 72
    65
 73
     0
 40
0.0
  0
LTYPE
  5
5C
330
5
100
AcDbSymbolTableRecord
100
AcDbLinetypeTableRecord
  2
ByLayer
 70
     0
  3

 72
    65
 73
     0
 40
0.0
  0
LTYPE
  5
5D
330
5
100
AcDbSymbolTableRecord
100
AcDbLinetypeTableRecord
  2
Continuous
 70
     0
  3
Solid line
 72
    65
 73
     0
 40
0.0
  0
ENDTAB
  0
TABLE
  2
LAYER
  5
2
330
0
100
AcDbSymbolTable
 70
     2
  0
LAYER
  5
54
330
2
100
AcDbSymbolTableRecord
100
AcDbLayerTableRecord
  2
0
 70
     0
 62
     7
  6
Continuous
370
    -3
390
F
347
21
348
0
  0
LAYER
  5
78
330
2
100
AcDbSymbolTableRecord
100
AcDbLayerTableRecord
  2
Layer 1
 70
     0
 62
     7
  6
Continuous
370
     0
390
F
347
21
348
0
  0
ENDTAB
  0
TABLE
  2
STYLE
  5
3
330
0
100
AcDbSymbolTable
 70
     2
  0
STYLE
  5
55
330
3
100
AcDbSymbolTableRecord
100
AcDbTextStyleTableRecord
  2
Standard
 70
     0
 40
0.0
 41
1.0
 50
0.0
 71
     0
 42
0.2
  3
txt
  4

  0
STYLE
  5
5A
330
3
100
AcDbSymbolTableRecord
100
AcDbTextStyleTableRecord
  2
Annotative
 70
     0
 40
0.0
 41
1.0
 50
0.0
 71
     0
 42
0.2
  3
txt
  4

1001
AcadAnnotative
1000
AnnotativeData
1002
{
1070
     1
1070
     1
1002
}
  0
ENDTAB
  0
TABLE
  2
VIEW
  5
6
330
0
100
AcDbSymbolTable
 70
     0
  0
ENDTAB
  0
TABLE
  2
UCS
  5
7
330
0
100
AcDbSymbolTable
 70
     0
  0
ENDTAB
  0
TABLE
  2
APPID
  5
9
330
0
100
AcDbSymbolTable
 70
     2
  0
APPID
  5
56
330
9
100
AcDbSymbolTableRecord
100
AcDbRegAppTableRecord
  2
ACAD
 70
     0
  0
APPID
  5
5E
330
9
100
AcDbSymbolTableRecord
100
AcDbRegAppTableRecord
  2
AcadAnnotative
 70
     0
  0
ENDTAB
  0
TABLE
  2
DIMSTYLE
  5
A
330
0
100
AcDbSymbolTable
 70
     2
100
AcDbDimStyleTable
 71
     0
  0
DIMSTYLE
105
58
330
A
100
AcDbSymbolTableRecord
100
AcDbDimStyleTableRecord
  2
Standard
 70
     0
340
55
  0
DIMSTYLE
105
59
330
A
100
AcDbSymbolTableRecord
100
AcDbDimStyleTableRecord
  2
Annotative
 70
     0
340
55
1001
AcadAnnotative
1000
AnnotativeData
1002
{
1070
     1
1070
     1
1002
}
  0
ENDTAB
  0
TABLE
  2
BLOCK_RECORD
  5
1
330
0
100
AcDbSymbolTable
 70
     1
  0
BLOCK_RECORD
  5
70
330
1
100
AcDbSymbolTableRecord
100
AcDbBlockTableRecord
  2
*Model_Space
340
73
 70
     0
280
     1
281
     0
  0
BLOCK_RECORD
  5
6C
330
1
100
AcDbSymbolTableRecord
100
AcDbBlockTableRecord
  2
*Paper_Space
340
6F
 70
     0
280
     1
281
     0
  0
BLOCK_RECORD
  5
74
330
1
100
AcDbSymbolTableRecord
100
AcDbBlockTableRecord
  2
*Paper_Space0
340
77
 70
     0
280
     1
281
     0
  0
ENDTAB
  0
ENDSEC
  0
SECTION
  2
BLOCKS
  0
BLOCK
  5
71
330
70
100
AcDbEntity
  8
0
100
AcDbBlockBegin
  2
*Model_Space
 70
     0
 10
0.0
 20
0.0
 30
0.0
  3
*Model_Space
  1

  0
ENDBLK
  5
72
330
70
100
AcDbEntity
  8
0
100
AcDbBlockEnd
  0
BLOCK
  5
6D
330
6C
100
AcDbEntity
 67
     1
  8
0
100
AcDbBlockBegin
  2
*Paper_Space
 70
     0
 10
0.0
 20
0.0
 30
0.0
  3
*Paper_Space
  1

  0
ENDBLK
  5
6E
330
6C
100
AcDbEntity
 67
     1
  8
0
100
AcDbBlockEnd
  0
BLOCK
  5
75
330
74
100
AcDbEntity
 67
     1
  8
0
100
AcDbBlockBegin
  2
*Paper_Space0
 70
     0
 10
0.0
 20
0.0
 30
0.0
  3
*Paper_Space0
  1

  0
ENDBLK
  5
76
330
74
100
AcDbEntity
 67
     1
  8
0
100
AcDbBlockEnd
  0
ENDSEC
  0
SECTION
  2
ENTITIES
  0
SPLINE
  5
79
330
70
100
AcDbEntity
  8
Layer 1
 62
     1
370
    18
100
AcDbSpline
210
0.0
220
0.0
230
1.0
 70
     9
 71
     3
 72
    23
 73
    19
 74
     0
 42
0.0000000001
 43
0.0000000001
 40
0.0
 40
0.0
 40
0.0
 40
0.0
 40
1.0
 40
1.0
 40
1.0
 40
2.0
 40
2.0
 40
2.0
 40
3.0
 40
3.0
 40
3.0
 40
4.0
 40
4.0
 40
4.0
 40
5.0
 40
5.0
 40
5.0
 40
6.0
 40
6.0
 40
6.0
 40
6.0
 10
19.89666302949354
 20
191.5967922525651
 30
0.0
 10
19.89666302949354
 20
191.5967922525651
 30
0.0
 10
12.28818148510436
 20
182.7549359300073
 30
0.0
 10
12.28818148510436
 20
182.7549359300073
 30
0.0
 10
11.0783061866714
 20
181.3489334977812
 30
0.0
 10
8.772191325038875
 20
182.2045599531684
 30
0.0
 10
8.772191325121639
 20
184.0594564670455
 30
0.0
 10
8.772191325121639
 20
184.0594564670455
 30
0.0
 10
8.772191325518178
 20
192.9012847793228
 30
0.0
 10
8.772191325518178
 20
192.9012847793228
 30
0.0
 10
8.772191325568201
 20
194.0058542787055
 30
0.0
 10
9.667621825722562
 20
194.9012847787826
 30
0.0
 10
10.772191325108
 20
194.9012847787335
 30
0.0
 10
10.772191325108
 20
194.9012847787335
 30
0.0
 10
18.38068571932217
 20
194.9012847783915
 30
0.0
 10
18.38068571932217
 20
194.9012847783915
 30
0.0
 10
20.09119905558055
 20
194.9012847783142
 30
0.0
 10
21.01236291770602
 20
192.8933529464593
 30
0.0
 10
19.89666302949354
 20
191.5967922525651
 30
0.0
  0
SPLINE
  5
7A
330
70
100
AcDbEntity
  8
Layer 1
 62
     1
370
    18
100
AcDbSpline
210
0.0
220
0.0
230
1.0
 70
     9
 71
     3
 72
    17
 73
    13
 74
     0
 42
0.0000000001
 43
0.0000000001
 40
0.0
 40
0.0
 40
0.0
 40
0.0
 40
1.0
 40
1.0
 40
1.0
 40
2.0
 40
2.0
 40
2.0
 40
3.0
 40
3.0
 40
3.0
 40
4.0
 40
4.0
 40
4.0
 40
4.0
 10
371.7877311370012
 20
122.4264962786137
 30
0.0
 10
368.2776956018533
 20
122.774106413076
 30
0.0
 10
365.4386785398474
 20
125.6132957298559
 30
0.0
 10
365.0911114690789
 20
129.1233312650019
 30
0.0
 10
364.6214157633585
 20
133.8666248564832
 30
0.0
 10
368.5750934696189
 20
137.8202164353561
 30
0.0
 10
373.3184731884849
 20
137.3503915385527
 30
0.0
 10
376.8285087236309
 20
137.0027814040913
 30
0.0
 10
379.6676119130261
 20
134.163678214697
 30
0.0
 10
380.0151789837946
 20
130.6536426795501
 30
0.0
 10
380.484874689515
 20
125.9102629606841
 30
0.0
 10
376.5311108558671
 20
121.9566713818112
 30
0.0
 10
371.7877311370012
 20
122.4264962786137
 30
0.0
  0
SPLINE
  5
7B
330
70
100
AcDbEntity
  8
Layer 1
 62
     1
370
    18
100
AcDbSpline
210
0.0
220
0.0
230
1.0
 70
     9
 71
     3
 72
    17
 73
    13
 74
     0
 42
0.0000000001
 43
0.0000000001
 40
0.0
 40
0.0
 40
0.0
 40
0.0
 40
1.0
 40
1.0
 40
1.0
 40
2.0
 40
2.0
 40
2.0
 40
3.0
 40
3.0
 40
3.0
 40
4.0
 40
4.0
 40
4.0
 40
4.0
 10
371.1703700260441
 20
108.9665082177434
 30
0.0
 10
370.4349713310239
 20
109.2912945946136
 30
0.0
 10
369.836558245237
 20
109.8902244447236
 30
0.0
 10
369.5119010594463
 20
110.6256662034393
 30
0.0
 10
368.3064621491558
 20
113.35616275766
 30
0.0
 10
371.0401454167022
 20
116.0936356302391
 30
0.0
 10
373.7679720219221
 20
114.8888857390466
 30
0.0
 10
374.5033707169441
 20
114.5641854895621
 30
0.0
 10
375.101783802731
 20
113.9651695120665
 30
0.0
 10
375.4264409885218
 20
113.2297277533507
 30
0.0
 10
376.6318798988105
 20
110.49923119913
 30
0.0
 10
373.8981966312658
 20
107.761758326551
 30
0.0
 10
371.1703700260441
 20
108.9665082177434
 30
0.0
  0
SPLINE
  5
7C
330
70
100
AcDbEntity
  8
Layer 1
 62
     1
370
    18
100
AcDbSpline
210
0.0
220
0.0
230
1.0
 70
     9
 71
     3
 72
    17
 73
    13
 74
     0
 42
0.0000000001
 43
0.0000000001
 40
0.0
 40
0.0
 40
0.0
 40
0.0
 40
1.0
 40
1.0
 40
1.0
 40
2.0
 40
2.0
 40
2.0
 40
3.0
 40
3.0
 40
3.0
 40
4.0
 40
4.0
 40
4.0
 40
4.0
 10
373.7411864045244
 20
151.4849292954359
 30
0.0
 10
374.4765850995445
 20
151.1598845364024
 30
0.0
 10
375.0749551216395
 20
150.5606101767434
 30
0.0
 10
375.3993108615759
 20
149.8249100358689
 30
0.0
 10
376.6031133515098
 20
147.0946718638079
 30
0.0
 10
373.8695592750446
 20
144.3583186472633
 30
0.0
 10
371.1419479882916
 20
145.5634991753886
 30
0.0
 10
370.4065923569651
 20
145.8883716796481
 30
0.0
 10
369.8081792711764
 20
146.487473784533
 30
0.0
 10
369.4836943401587
 20
147.2230877980228
 30
0.0
 10
368.2789875126618
 20
149.9537566070166
 30
0.0
 10
371.0132306082233
 20
152.6907988426628
 30
0.0
 10
373.7411864045244
 20
151.4849292954359
 30
0.0
  0
SPLINE
  5
7D
330
70
100
AcDbEntity
  8
Layer 1
 62
     1
370
    18
100
AcDbSpline
210
0.0
220
0.0
230
1.0
 70
     9
 71
     3
 72
    17
 73
    13
 74
     0
 42
0.0000000001
 43
0.0000000001
 40
0.0
 40
0.0
 40
0.0
 40
0.0
 40
1.0
 40
1.0
 40
1.0
 40
2.0
 40
2.0
 40
2.0
 40
3.0
 40
3.0
 40
3.0
 40
4.0
 40
4.0
 40
4.0
 40
4.0
 10
328.812921034898
 20
129.6752355617391
 30
0.0
 10
328.5918750958263
 20
128.3282893543955
 30
0.0
 10
327.5054211708593
 20
127.2419646205071
 30
0.0
 10
326.1584318998193
 20
127.0211339999023
 30
0.0
 10
323.9341490634615
 20
126.6564706427889
 30
0.0
 10
322.038657527477
 20
128.5521344335475
 30
0.0
 10
322.4034931393635
 20
130.7763742062143
 30
0.0
 10
322.6244098873558
 20
132.1232342861722
 30
0.0
 10
323.7106915575496
 20
133.2096451474463
 30
0.0
 10
325.0575947012021
 20
133.4306480228251
 30
0.0
 10
327.282049792333
 20
133.7957420168722
 30
0.0
 10
329.1780150289469
 20
131.8997337165647
 30
0.0
 10
328.812921034898
 20
129.6752355617391
 30
0.0
  0
SPLINE
  5
7E
330
70
100
AcDbEntity
  8
Layer 1
 62
     1
370
    18
100
AcDbSpline
210
0.0
220
0.0
230
1.0
 70
     9
 71
     3
 72
    35
 73
    31
 74
     0
 42
0.0000000001
 43
0.0000000001
 40
0.0
 40
0.0
 40
0.0
 40
0.0
 40
1.0
 40
1.0
 40
1.0
 40
2.0
 40
2.0
 40
2.0
 40
3.0
 40
3.0
 40
3.0
 40
4.0
 40
4.0
 40
4.0
 40
5.0
 40
5.0
 40
5.0
 40
6.0
 40
6.0
 40
6.0
 40
7.0
 40
7.0
 40
7.0
 40
8.0
 40
8.0
 40
8.0
 40
9.0
 40
9.0
 40
9.0
 40
10.0
 40
10.0
 40
10.0
 40
10.0
 10
295.9684788027116
 20
98.83258759310592
 30
0.0
 10
295.9684788027116
 20
98.83258759310592
 30
0.0
 10
294.2270476304584
 20
98.83258759310592
 30
0.0
 10
294.2270476304584
 20
98.83258759310592
 30
0.0
 10
292.4987724165894
 20
98.83258759310592
 30
0.0
 10
291.0977382101246
 20
100.2336217995689
 30
0.0
 10
291.0977382101246
 20
101.9619400771335
 30
0.0
 10
291.0977382101246
 20
101.9892424588524
 30
0.0
 10
291.1011402419172
 20
102.0156835667021
 30
0.0
 10
291.1018292610133
 20
102.0428998210373
 30
0.0
 10
291.1032072992075
 20
103.72617347513
 30
0.0
 10
292.4640846114217
 20
105.0912064337699
 30
0.0
 10
294.1477243069094
 20
105.0912064337699
 30
0.0
 10
294.1477243069094
 20
105.0912064337699
 30
0.0
 10
294.2270476304584
 20
105.0912064337699
 30
0.0
 10
294.2270476304584
 20
105.0912064337699
 30
0.0
 10
294.2270476304584
 20
105.0912064337699
 30
0.0
 10
295.9684788027116
 20
105.0912064337699
 30
0.0
 10
295.9684788027116
 20
105.0912064337699
 30
0.0
 10
295.9684788027116
 20
105.0912064337699
 30
0.0
 10
296.0477805944138
 20
105.0912064337699
 30
0.0
 10
296.0477805944138
 20
105.0912064337699
 30
0.0
 10
297.7314202899015
 20
105.0912064337699
 30
0.0
 10
299.0922976021156
 20
103.72617347513
 30
0.0
 10
299.0936756403098
 20
102.0428998210373
 30
0.0
 10
299.094364659406
 20
102.0156835667021
 30
0.0
 10
299.0977666911986
 20
101.9892424588524
 30
0.0
 10
299.0977666911986
 20
101.9619400771335
 30
0.0
 10
299.0977666911986
 20
100.2336217995689
 30
0.0
 10
297.6967324847337
 20
98.83258759310592
 30
0.0
 10
295.9684788027116
 20
98.83258759310592
 30
0.0
  0
SPLINE
  5
7F
330
70
100
AcDbEntity
  8
Layer 1
 62
     1
370
    18
100
AcDbSpline
210
0.0
220
0.0
230
1.0
 70
     9
 71
     3
 72
   260
 73
   256
 74
     0
 42
0.0000000001
 43
0.0000000001
 40
0.0
 40
0.0
 40
0.0
 40
0.0
 40
1.0
 40
1.0
 40
1.0
 40
2.0
 40
2.0
 40
2.0
 40
3.0
 40
3.0
 40
3.0
 40
4.0
 40
4.0
 40
4.0
 40
5.0
 40
5.0
 40
5.0
 40
6.0
 40
6.0
 40
6.0
 40
7.0
 40
7.0
 40
7.0
 40
8.0
 40
8.0
 40
8.0
 40
9.0
 40
9.0
 40
9.0
 40
10.0
 40
10.0
 40
10.0
 40
11.0
 40
11.0
 40
11.0
 40
12.0
 40
12.0
 40
12.0
 40
13.0
 40
13.0
 40
13.0
 40
14.0
 40
14.0
 40
14.0
 40
15.0
 40
15.0
 40
15.0
 40
16.0
 40
16.0
 40
16.0
 40
17.0
 40
17.0
 40
17.0
 40
18.0
 40
18.0
 40
18.0
 40
19.0
 40
19.0
 40
19.0
 40
20.0
 40
20.0
 40
20.0
 40
21.0
 40
21.0
 40
21.0
 40
22.0
 40
22.0
 40
22.0
 40
23.0
 40
23.0
 40
23.0
 40
24.0
 40
24.0
 40
24.0
 40
25.0
 40
25.0
 40
25.0
 40
26.0
 40
26.0
 40
26.0
 40
27.0
 40
27.0
 40
27.0
 40
28.0
 40
28.0
 40
28.0
 40
29.0
 40
29.0
 40
29.0
 40
30.0
 40
30.0
 40
30.0
 40
31.0
 40
31.0
 40
31.0
 40
32.0
 40
32.0
 40
32.0
 40
33.0
 40
33.0
 40
33.0
 40
34.0
 40
34.0
 40
34.0
 40
35.0
 40
35.0
 40
35.0
 40
36.0
 40
36.0
 40
36.0
 40
37.0
 40
37.0
 40
37.0
 40
38.0
 40
38.0
 40
38.0
 40
39.0
 40
39.0
 40
39.0
 40
40.0
 40
40.0
 40
40.0
 40
41.0
 40
41.0
 40
41.0
 40
42.0
 40
42.0
 40
42.0
 40
43.0
 40
43.0
 40
43.0
 40
44.0
 40
44.0
 40
44.0
 40
45.0
 40
45.0
 40
45.0
 40
46.0
 40
46.0
 40
46.0
 40
47.0
 40
47.0
 40
47.0
 40
48.0
 40
48.0
 40
48.0
 40
49.0
 40
49.0
 40
49.0
 40
50.0
 40
50.0
 40
50.0
 40
51.0
 40
51.0
 40
51.0
 40
52.0
 40
52.0
 40
52.0
 40
53.0
 40
53.0
 40
53.0
 40
54.0
 40
54.0
 40
54.0
 40
55.0
 40
55.0
 40
55.0
 40
56.0
 40
56.0
 40
56.0
 40
57.0
 40
57.0
 40
57.0
 40
58.0
 40
58.0
 40
58.0
 40
59.0
 40
59.0
 40
59.0
 40
60.0
 40
60.0
 40
60.0
 40
61.0
 40
61.0
 40
61.0
 40
62.0
 40
62.0
 40
62.0
 40
63.0
 40
63.0
 40
63.0
 40
64.0
 40
64.0
 40
64.0
 40
65.0
 40
65.0
 40
65.0
 40
66.0
 40
66.0
 40
66.0
 40
67.0
 40
67.0
 40
67.0
 40
68.0
 40
68.0
 40
68.0
 40
69.0
 40
69.0
 40
69.0
 40
70.0
 40
70.0
 40
70.0
 40
71.0
 40
71.0
 40
71.0
 40
72.0
 40
72.0
 40
72.0
 40
73.0
 40
73.0
 40
73.0
 40
74.0
 40
74.0
 40
74.0
 40
75.0
 40
75.0
 40
75.0
 40
76.0
 40
76.0
 40
76.0
 40
77.0
 40
77.0
 40
77.0
 40
78.0
 40
78.0
 40
78.0
 40
79.0
 40
79.0
 40
79.0
 40
80.0
 40
80.0
 40
80.0
 40
81.0
 40
81.0
 40
81.0
 40
82.0
 40
82.0
 40
82.0
 40
83.0
 40
83.0
 40
83.0
 40
84.0
 40
84.0
 40
84.0
 40
85.0
 40
85.0
 40
85.0
 40
85.0
 10
291.0924413758166
 20
158.3037206620056
 30
0.0
 10
291.0911925287037
 20
158.3394635276636
 30
0.0
 10
291.0870368822743
 20
158.3745173742281
 30
0.0
 10
291.0870368822743
 20
158.4106908768226
 30
0.0
 10
291.0870368822743
 20
158.4327394879283
 30
0.0
 10
291.0898575542015
 20
158.4540990799369
 30
0.0
 10
291.0903312548308
 20
158.4760615636533
 30
0.0
 10
291.0913863153237
 20
158.5263599577383
 30
0.0
 10
291.0944223057195
 20
158.5760554601147
 30
0.0
 10
291.0978889330527
 20
158.6257509624874
 30
0.0
 10
291.1018077291664
 20
158.6817337641232
 30
0.0
 10
291.1065662673063
 20
158.7374581835993
 30
0.0
 10
291.1134779901222
 20
158.792579711363
 30
0.0
 10
291.1195930346094
 20
158.841500067253
 30
0.0
 10
291.1272368402169
 20
158.8898175314316
 30
0.0
 10
291.13565579231
 20
158.9379627408407
 30
0.0
 10
291.1451082730473
 20
158.992136867344
 30
0.0
 10
291.1556588779713
 20
159.0457942295288
 30
0.0
 10
291.1679320306357
 20
159.0990209547763
 30
0.0
 10
291.1788702088015
 20
159.1463048903088
 30
0.0
 10
291.1909495748478
 20
159.1930720615228
 30
0.0
 10
291.2040624695383
 20
159.239494723185
 30
0.0
 10
291.2187902527385
 20
159.2916879197864
 30
0.0
 10
291.2347884148985
 20
159.3431920972907
 30
0.0
 10
291.2521646152509
 20
159.3941795104729
 30
0.0
 10
291.2676675449347
 20
159.4396547708784
 30
0.0
 10
291.2839671529491
 20
159.4845271395752
 30
0.0
 10
291.3015156080764
 20
159.5289688713346
 30
0.0
 10
291.3212172478852
 20
159.5788366284823
 30
0.0
 10
291.3423399895783
 20
159.6278431117616
 30
0.0
 10
291.3645393236111
 20
159.6763328307152
 30
0.0
 10
291.3842840271118
 20
159.7195687790545
 30
0.0
 10
291.40450243124
 20
159.7622879630717
 30
0.0
 10
291.4261634691029
 20
159.8043181279918
 30
0.0
 10
291.450580583356
 20
159.8516881909136
 30
0.0
 10
291.4765695224232
 20
159.8979385978054
 30
0.0
 10
291.5033551398192
 20
159.9438444951447
 30
0.0
 10
291.5271693623617
 20
159.9846688766447
 30
0.0
 10
291.5511558396774
 20
160.0250626212109
 30
0.0
 10
291.5767787373497
 20
160.0646812192917
 30
0.0
 10
291.6055668164972
 20
160.1091229510512
 30
0.0
 10
291.636034379695
 20
160.1521866446164
 30
0.0
 10
291.6670187072159
 20
160.1949919560193
 30
0.0
 10
291.6945579392523
 20
160.2330602611309
 30
0.0
 10
291.7220541075931
 20
160.2709563114686
 30
0.0
 10
291.751294355523
 20
160.307646578387
 30
0.0
 10
291.7843242084891
 20
160.349159978984
 30
0.0
 10
291.8191196728894
 20
160.3888647044532
 30
0.0
 10
291.8542165831459
 20
160.4285694299187
 30
0.0
 10
291.8850932514324
 20
160.4634510217092
 30
0.0
 10
291.9156900057096
 20
160.4984187408845
 30
0.0
 10
291.9481169669652
 20
160.5319222944763
 30
0.0
 10
291.9852378708201
 20
160.5701628543629
 30
0.0
 10
292.0242105134967
 20
160.6064224843467
 30
0.0
 10
292.0632908154075
 20
160.6427682417161
 30
0.0
 10
292.0972250059367
 20
160.6742908654059
 30
0.0
 10
292.1307070276835
 20
160.7061579986448
 30
0.0
 10
292.1660407882537
 20
160.7361303293664
 30
0.0
 10
292.2068436379068
 20
160.7706674116043
 30
0.0
 10
292.2494982263852
 20
160.8028790543913
 30
0.0
 10
292.292109751168
 20
160.8353490793415
 30
0.0
 10
292.328886145473
 20
160.8633404801576
 30
0.0
 10
292.3650165843737
 20
160.8919347726851
 30
0.0
 10
292.4030848894872
 20
160.9183758805366
 30
0.0
 10
292.447634280481
 20
160.9492094851293
 30
0.0
 10
292.4940354102964
 20
160.9772008859454
 30
0.0
 10
292.5402427534919
 20
161.0057090510872
 30
0.0
 10
292.5791938643233
 20
161.0297385920949
 30
0.0
 10
292.6174344242099
 20
161.0546294069781
 30
0.0
 10
292.65752672292
 20
161.0769364002426
 30
0.0
 10
292.7058657189464
 20
161.1038081450278
 30
0.0
 10
292.75609951749
 20
161.1274070491017
 30
0.0
 10
292.806031870181
 20
161.1516949722727
 30
0.0
 10
292.846683996906
 20
161.1715042713131
 30
0.0
 10
292.8864963816068
 20
161.1925193537727
 30
0.0
 10
292.928138973286
 20
161.2105199776852
 30
0.0
 10
292.9806336157417
 20
161.2332576078879
 30
0.0
 10
293.0349799970208
 20
161.2521195056679
 30
0.0
 10
293.08893880506
 20
161.2719288047083
 30
0.0
 10
293.1302368871875
 20
161.2870010974584
 30
0.0
 10
293.1706306317537
 20
161.3038820653355
 30
0.0
 10
293.2127469240604
 20
161.3172318103388
 30
0.0
 10
293.2705599326728
 20
161.3355769438003
 30
0.0
 10
293.3301600845662
 20
161.3495295805151
 30
0.0
 10
293.3894372587602
 20
161.3645157458759
 30
0.0
 10
293.4298525351715
 20
161.3747649049428
 30
0.0
 10
293.4693634740179
 20
161.3870811213046
 30
0.0
 10
293.5104031739866
 20
161.3956077326283
 30
0.0
 10
293.5770442397788
 20
161.409560369344
 30
0.0
 10
293.6454078533152
 20
161.4184314902204
 30
0.0
 10
293.713556148381
 20
161.4279055028046
 30
0.0
 10
293.7488468452593
 20
161.4328147638689
 30
0.0
 10
293.7832978001115
 20
161.440307846552
 30
0.0
 10
293.818954538383
 20
161.4440113241962
 30
0.0
 10
293.9229748901908
 20
161.4547772475898
 30
0.0
 10
294.028480939427
 20
161.4605477825253
 30
0.0
 10
294.1353434950106
 20
161.4605477825253
 30
0.0
 10
294.1358817911787
 20
161.4605477825253
 30
0.0
 10
294.1364200873486
 20
161.4606339099146
 30
0.0
 10
294.1369583835185
 20
161.4606339099146
 30
0.0
 10
294.1369583835185
 20
161.4606339099146
 30
0.0
 10
294.1370229790591
 20
161.4606339099146
 30
0.0
 10
294.1370229790591
 20
161.4606339099146
 30
0.0
 10
294.1370229790591
 20
161.4606339099146
 30
0.0
 10
296.0370146710211
 20
161.4606339099146
 30
0.0
 10
296.0370146710211
 20
161.4606339099146
 30
0.0
 10
296.0370146710211
 20
161.4606339099146
 30
0.0
 10
296.0370577347148
 20
161.4606339099146
 30
0.0
 10
296.0370577347148
 20
161.4606339099146
 30
0.0
 10
296.1445231820089
 20
161.4606339099146
 30
0.0
 10
296.2505890592602
 20
161.4547772475898
 30
0.0
 10
296.3551907709316
 20
161.4439251968115
 30
0.0
 10
296.3899001079444
 20
161.4403939739368
 30
0.0
 10
296.423403661538
 20
161.4330731460322
 30
0.0
 10
296.4577469571577
 20
161.4283361397383
 30
0.0
 10
296.5269287808697
 20
161.4187759997685
 30
0.0
 10
296.5962397956646
 20
161.4097326241181
 30
0.0
 10
296.6638497945623
 20
161.3956077326283
 30
0.0
 10
296.7039636251193
 20
161.3871672486894
 30
0.0
 10
296.7425917582477
 20
161.3751094144918
 30
0.0
 10
296.782124228941
 20
161.365204764973
 30
0.0
 10
296.8423272725449
 20
161.3500463448381
 30
0.0
 10
296.9028532938519
 20
161.3358353259591
 30
0.0
 10
296.9615706400291
 20
161.3171456829541
 30
0.0
 10
297.002933317699
 20
161.3039681927212
 30
0.0
 10
297.0426380431654
 20
161.2874317343921
 30
0.0
 10
297.0832255743517
 20
161.2726178238053
 30
0.0
 10
297.1379379970258
 20
161.2526362699909
 30
0.0
 10
297.1930164610967
 20
161.233429862662
 30
0.0
 10
297.2462001226504
 20
161.2104338502959
 30
0.0
 10
297.2872398226191
 20
161.192605481162
 30
0.0
 10
297.3264708474562
 20
161.1719349082505
 30
0.0
 10
297.3665631461663
 20
161.1524701187591
 30
0.0
 10
297.4171199224129
 20
161.1278376860391
 30
0.0
 10
297.4679350808201
 20
161.1039803998019
 30
0.0
 10
297.516876968557
 20
161.0767641454686
 30
0.0
 10
297.5563879074034
 20
161.0548016617522
 30
0.0
 10
297.5940471074263
 20
161.0301692290322
 30
0.0
 10
297.6324383902411
 20
161.0065703249583
 30
0.0
 10
297.679248625147
 20
160.9777176502675
 30
0.0
 10
297.7262526466729
 20
160.9492956125141
 30
0.0
 10
297.7713618656835
 20
160.9180313709876
 30
0.0
 10
297.8088918746252
 20
160.8920209000744
 30
0.0
 10
297.8445486128985
 20
160.8638572444806
 30
0.0
 10
297.8808297747273
 20
160.8362103532126
 30
0.0
 10
297.9239365319863
 20
160.8033958187143
 30
0.0
 10
297.9670863529391
 20
160.7708396663784
 30
0.0
 10
298.0083413713746
 20
160.7357858198183
 30
0.0
 10
298.0433521542436
 20
160.7060718712555
 30
0.0
 10
298.0765111982892
 20
160.6745492475656
 30
0.0
 10
298.110143942964
 20
160.6432850060391
 30
0.0
 10
298.1495041588823
 20
160.6067669938957
 30
0.0
 10
298.1887567155681
 20
160.5702489817522
 30
0.0
 10
298.2261360015836
 20
160.5316639123166
 30
0.0
 10
298.2583261125237
 20
160.4985048682692
 30
0.0
 10
298.2887075483341
 20
160.463709403868
 30
0.0
 10
298.3193904299987
 20
160.4290861942418
 30
0.0
 10
298.3547672542627
 20
160.3891230866129
 30
0.0
 10
298.3898211008273
 20
160.3490738515984
 30
0.0
 10
298.4230878041053
 20
160.307302068838
 30
0.0
 10
298.452005074334
 20
160.2709563114686
 30
0.0
 10
298.4791997968205
 20
160.233404770679
 30
0.0
 10
298.5064591148475
 20
160.1957671025047
 30
0.0
 10
298.5377879519183
 20
160.1525311541654
 30
0.0
 10
298.5685784928173
 20
160.1090368236619
 30
0.0
 10
298.5976249541272
 20
160.0641644549687
 30
0.0
 10
298.6229894696371
 20
160.0249764938217
 30
0.0
 10
298.6467175647904
 20
159.984927258808
 30
0.0
 10
298.6702949370192
 20
159.9445335142409
 30
0.0
 10
298.6972743410388
 20
159.8982831073535
 30
0.0
 10
298.7235001304198
 20
159.8516881909136
 30
0.0
 10
298.748089499446
 20
159.8039736184437
 30
0.0
 10
298.7696428780746
 20
159.7621157082976
 30
0.0
 10
298.7897536229703
 20
159.7196549064438
 30
0.0
 10
298.8093906672347
 20
159.6766773402632
 30
0.0
 10
298.8316761286569
 20
159.6280153665357
 30
0.0
 10
298.8528849977374
 20
159.5788366284823
 30
0.0
 10
298.872651233085
 20
159.5287966165606
 30
0.0
 10
298.8901350926717
 20
159.4844410121859
 30
0.0
 10
298.9063701051455
 20
159.4397408982668
 30
0.0
 10
298.9218299711356
 20
159.3944378926362
 30
0.0
 10
298.9392707670286
 20
159.34327822468
 30
0.0
 10
298.9553335247292
 20
159.2916017924017
 30
0.0
 10
298.9700828397763
 20
159.2392363410254
 30
0.0
 10
298.9831311389262
 20
159.1929859341344
 30
0.0
 10
298.9951674412769
 20
159.1464771450828
 30
0.0
 10
299.0060625557508
 20
159.099279336935
 30
0.0
 10
299.0184003039558
 20
159.0458803569136
 30
0.0
 10
299.0289724407266
 20
158.9920507399592
 30
0.0
 10
299.0384679851577
 20
158.9376182312917
 30
0.0
 10
299.046843873557
 20
158.8896452766576
 30
0.0
 10
299.0544661473177
 20
158.8415861946387
 30
0.0
 10
299.0605596599562
 20
158.7929242209111
 30
0.0
 10
299.0674929146207
 20
158.7374581835993
 30
0.0
 10
299.0722945164543
 20
158.6815615093492
 30
0.0
 10
299.0762133125681
 20
158.6252341981653
 30
0.0
 10
299.0796584080527
 20
158.5758832053407
 30
0.0
 10
299.0826513347565
 20
158.5264460851276
 30
0.0
 10
299.0837279270945
 20
158.4764922005915
 30
0.0
 10
299.0842016277256
 20
158.4543574620966
 30
0.0
 10
299.0870438314996
 20
158.4329117427023
 30
0.0
 10
299.0870438314996
 20
158.4106908768226
 30
0.0
 10
299.0870438314996
 20
158.3743451194532
 30
0.0
 10
299.0828666532252
 20
158.3391190181146
 30
0.0
 10
299.0816178061105
 20
158.3031177702942
 30
0.0
 10
299.0805196819256
 20
158.2711645096706
 30
0.0
 10
299.0825436755222
 20
158.2399002681395
 30
0.0
 10
299.0804550863832
 20
158.2076886253526
 30
0.0
 10
299.0792277711171
 20
158.1889128549583
 30
0.0
 10
299.0755673571639
 20
158.1708261036601
 30
0.0
 10
299.0739955323497
 20
158.1521364606551
 30
0.0
 10
299.0697537585329
 20
158.101665811796
 30
0.0
 10
299.0632296089589
 20
158.0519703094196
 30
0.0
 10
299.0565547364549
 20
158.0021025522719
 30
0.0
 10
299.0500305868809
 20
157.9542157250271
 30
0.0
 10
299.0435279691519
 20
157.9063288977822
 30
0.0
 10
299.0347214438188
 20
157.8592172170192
 30
0.0
 10
299.0232449694813
 20
157.7964303518029
 30
0.0
 10
299.0088401639841
 20
157.7348492700021
 30
0.0
 10
298.9935740846158
 20
157.6735265703646
 30
0.0
 10
298.9867700210325
 20
157.6469132077427
 30
0.0
 10
298.9806334446985
 20
157.6202137177324
 30
0.0
 10
298.9731188301721
 20
157.593944864655
 30
0.0
 10
298.615625578037
 20
156.3066849365914
 30
0.0
 10
297.4381780685653
 20
155.3606617163423
 30
0.0
 10
296.0370577347148
 20
155.3606617163423
 30
0.0
 10
296.0370577347148
 20
155.3606617163423
 30
0.0
 10
295.9325852141246
 20
155.3606617163423
 30
0.0
 10
295.9325852141246
 20
155.3606617163423
 30
0.0
 10
295.9325852141246
 20
155.3606617163423
 30
0.0
 10
294.2414739678024
 20
155.3606617163423
 30
0.0
 10
294.2414739678024
 20
155.3606617163423
 30
0.0
 10
294.2414739678024
 20
155.3606617163423
 30
0.0
 10
294.1370229790591
 20
155.3606617163423
 30
0.0
 10
294.1370229790591
 20
155.3606617163423
 30
0.0
 10
292.7359026452086
 20
155.3606617163423
 30
0.0
 10
291.5584551357369
 20
156.3066849365914
 30
0.0
 10
291.2009618836019
 20
157.5938587372702
 30
0.0
 10
291.1934472690755
 20
157.6202137177324
 30
0.0
 10
291.1872460972008
 20
157.6469993351284
 30
0.0
 10
291.1804635654644
 20
157.6736126977539
 30
0.0
 10
291.1652405497898
 20
157.7348492700021
 30
0.0
 10
291.1508788079846
 20
157.7962580970288
 30
0.0
 10
291.1394023336488
 20
157.8588727074711
 30
0.0
 10
291.1305312127752
 20
157.9063288977822
 30
0.0
 10
291.1240070632011
 20
157.9544741071868
 30
0.0
 10
291.1174398499316
 20
158.002791571369
 30
0.0
 10
291.11082957297
 20
158.0522286915829
 30
0.0
 10
291.104326955241
 20
158.1015796844067
 30
0.0
 10
291.1001067132711
 20
158.1517919511061
 30
0.0
 10
291.0985348884569
 20
158.1705677215013
 30
0.0
 10
291.09483141081
 20
158.1887406001842
 30
0.0
 10
291.0936040955421
 20
158.2076886253526
 30
0.0
 10
291.0915155064049
 20
158.2400725229136
 30
0.0
 10
291.0935395000015
 20
158.2715090192187
 30
0.0
 10
291.0924413758166
 20
158.3037206620056
 30
0.0
  0
SPLINE
  5
80
330
70
100
AcDbEntity
  8
Layer 1
 62
     1
370
    18
100
AcDbSpline
210
0.0
220
0.0
230
1.0
 70
     9
 71
     3
 72
    41
 73
    37
 74
     0
 42
0.0000000001
 43
0.0000000001
 40
0.0
 40
0.0
 40
0.0
 40
0.0
 40
1.0
 40
1.0
 40
1.0
 40
2.0
 40
2.0
 40
2.0
 40
3.0
 40
3.0
 40
3.0
 40
4.0
 40
4.0
 40
4.0
 40
5.0
 40
5.0
 40
5.0
 40
6.0
 40
6.0
 40
6.0
 40
7.0
 40
7.0
 40
7.0
 40
8.0
 40
8.0
 40
8.0
 40
9.0
 40
9.0
 40
9.0
 40
10.0
 40
10.0
 40
10.0
 40
11.0
 40
11.0
 40
11.0
 40
12.0
 40
12.0
 40
12.0
 40
12.0
 10
280.4208705370129
 20
102.3974001464685
 30
0.0
 10
280.4208705370129
 20
99.6065282938671
 30
0.0
 10
278.1747544080172
 20
97.34396183392892
 30
0.0
 10
275.4041224913926
 20
97.34396183392892
 30
0.0
 10
275.4041224913926
 20
97.34396183392892
 30
0.0
 10
265.9013864233475
 20
97.34396183392892
 30
0.0
 10
265.9013864233475
 20
97.34396183392892
 30
0.0
 10
265.9013864233475
 20
97.34396183392892
 30
0.0
 10
165.8737064963679
 20
97.34396183392892
 30
0.0
 10
165.8737064963679
 20
97.34396183392892
 30
0.0
 10
165.8737064963679
 20
97.34396183392892
 30
0.0
 10
165.8737064963679
 20
97.81895437395725
 30
0.0
 10
165.8737064963679
 20
97.81895437395725
 30
0.0
 10
163.1030315160496
 20
97.81895437395725
 30
0.0
 10
160.8569584507477
 20
100.0650705029547
 30
0.0
 10
160.8569584507477
 20
102.8357024195775
 30
0.0
 10
160.8569584507477
 20
102.8357024195775
 30
0.0
 10
160.8569584507477
 20
157.7224469262555
 30
0.0
 10
160.8569584507477
 20
157.7224469262555
 30
0.0
 10
160.8569584507477
 20
160.4931649702676
 30
0.0
 10
163.1030315160496
 20
162.7391949718758
 30
0.0
 10
165.8737064963679
 20
162.7391949718758
 30
0.0
 10
165.8737064963679
 20
162.7391949718758
 30
0.0
 10
175.376421032568
 20
162.7391949718758
 30
0.0
 10
175.376421032568
 20
162.7391949718758
 30
0.0
 10
175.376421032568
 20
162.7391949718758
 30
0.0
 10
265.9013864233475
 20
162.7391949718758
 30
0.0
 10
265.9013864233475
 20
162.7391949718758
 30
0.0
 10
265.9013864233475
 20
162.7391949718758
 30
0.0
 10
275.4041224913926
 20
162.7391949718758
 30
0.0
 10
275.4041224913926
 20
162.7391949718758
 30
0.0
 10
278.1747544080172
 20
162.7391949718758
 30
0.0
 10
280.4208705370129
 20
160.4767146393269
 30
0.0
 10
280.4208705370129
 20
157.6857566593371
 30
0.0
 10
280.4208705370129
 20
157.6857566593371
 30
0.0
 10
280.4208705370129
 20
102.3974001464685
 30
0.0
 10
280.4208705370129
 20
102.3974001464685
 30
0.0
  0
SPLINE
  5
81
330
70
100
AcDbEntity
  8
Layer 1
 62
     1
370
    18
100
AcDbSpline
210
0.0
220
0.0
230
1.0
 70
     9
 71
     3
 72
    23
 73
    19
 74
     0
 42
0.0000000001
 43
0.0000000001
 40
0.0
 40
0.0
 40
0.0
 40
0.0
 40
1.0
 40
1.0
 40
1.0
 40
2.0
 40
2.0
 40
2.0
 40
3.0
 40
3.0
 40
3.0
 40
4.0
 40
4.0
 40
4.0
 40
5.0
 40
5.0
 40
5.0
 40
6.0
 40
6.0
 40
6.0
 40
6.0
 10
151.2153204391061
 20
158.2076886253526
 30
0.0
 10
151.1103957497335
 20
156.5865989447684
 30
0.0
 10
149.6919638110694
 20
155.3606617163423
 30
0.0
 10
148.0674720986935
 20
155.3606617163423
 30
0.0
 10
148.0674720986935
 20
155.3606617163423
 30
0.0
 10
146.3763177886776
 20
155.3606617163423
 30
0.0
 10
146.3763177886776
 20
155.3606617163423
 30
0.0
 10
144.7518476081486
 20
155.3606617163423
 30
0.0
 10
143.3333941376368
 20
156.5865989447684
 30
0.0
 10
143.2284694482641
 20
158.2076886253526
 30
0.0
 10
143.1134678545968
 20
159.9840659849369
 30
0.0
 10
144.5202295323051
 20
161.4606339099146
 30
0.0
 10
146.2718667999343
 20
161.4606339099146
 30
0.0
 10
146.2718667999343
 20
161.4606339099146
 30
0.0
 10
148.1719015555891
 20
161.4606339099146
 30
0.0
 10
148.1719015555891
 20
161.4606339099146
 30
0.0
 10
149.9235603550651
 20
161.4606339099146
 30
0.0
 10
151.3303220327734
 20
159.9840659849369
 30
0.0
 10
151.2153204391061
 20
158.2076886253526
 30
0.0
  0
SPLINE
  5
82
330
70
100
AcDbEntity
  8
Layer 1
 62
     1
370
    18
100
AcDbSpline
210
0.0
220
0.0
230
1.0
 70
     9
 71
     3
 72
    23
 73
    19
 74
     0
 42
0.0000000001
 43
0.0000000001
 40
0.0
 40
0.0
 40
0.0
 40
0.0
 40
1.0
 40
1.0
 40
1.0
 40
2.0
 40
2.0
 40
2.0
 40
3.0
 40
3.0
 40
3.0
 40
4.0
 40
4.0
 40
4.0
 40
5.0
 40
5.0
 40
5.0
 40
6.0
 40
6.0
 40
6.0
 40
6.0
 10
151.2153204391061
 20
101.8381750218232
 30
0.0
 10
151.1103526860406
 20
100.217085341239
 30
0.0
 10
149.6919207473756
 20
98.99123424020217
 30
0.0
 10
148.0674290349998
 20
98.99123424020217
 30
0.0
 10
148.0674290349998
 20
98.99123424020217
 30
0.0
 10
146.3763608523713
 20
98.99123424020217
 30
0.0
 10
146.3763608523713
 20
98.99123424020217
 30
0.0
 10
144.7518691399955
 20
98.99123424020217
 30
0.0
 10
143.3334372013305
 20
100.217085341239
 30
0.0
 10
143.2284694482641
 20
101.8381750218232
 30
0.0
 10
143.1134463227499
 20
103.6145523814066
 30
0.0
 10
144.5202080004583
 20
105.0912064337699
 30
0.0
 10
146.2718667999343
 20
105.0912064337699
 30
0.0
 10
146.2718667999343
 20
105.0912064337699
 30
0.0
 10
148.1719015555891
 20
105.0912064337699
 30
0.0
 10
148.1719015555891
 20
105.0912064337699
 30
0.0
 10
149.923581886911
 20
105.0912064337699
 30
0.0
 10
151.3303435646203
 20
103.6145523814066
 30
0.0
 10
151.2153204391061
 20
101.8381750218232
 30
0.0
  0
SPLINE
  5
83
330
70
100
AcDbEntity
  8
Layer 1
 62
     1
370
    18
100
AcDbSpline
210
0.0
220
0.0
230
1.0
 70
     9
 71
     3
 72
    17
 73
    13
 74
     0
 42
0.0000000001
 43
0.0000000001
 40
0.0
 40
0.0
 40
0.0
 40
0.0
 40
1.0
 40
1.0
 40
1.0
 40
2.0
 40
2.0
 40
2.0
 40
3.0
 40
3.0
 40
3.0
 40
4.0
 40
4.0
 40
4.0
 40
4.0
 10
114.9654659152911
 20
90.88268525134481
 30
0.0
 10
113.6185412397926
 20
91.10377425410844
 30
0.0
 10
112.533099311624
 20
92.19044349754403
 30
0.0
 10
112.3113212897615
 20
93.53721745011354
 30
0.0
 10
111.9445047479694
 20
95.76481619087644
 30
0.0
 10
113.8411590036794
 20
97.66426958666853
 30
0.0
 10
116.0664107731427
 20
97.29865882829836
 30
0.0
 10
117.4134215760296
 20
97.0773114433723
 30
0.0
 10
118.4988419723504
 20
95.99029769038679
 30
0.0
 10
118.7201893572773
 20
94.64335148304234
 30
0.0
 10
119.0861661570452
 20
92.41609725182934
 30
0.0
 10
117.1901147930439
 20
90.51750512990656
 30
0.0
 10
114.9654659152911
 20
90.88268525134481
 30
0.0
  0
SPLINE
  5
84
330
70
100
AcDbEntity
  8
Layer 1
 62
     1
370
    18
100
AcDbSpline
210
0.0
220
0.0
230
1.0
 70
     9
 71
     3
 72
    65
 73
    61
 74
     0
 42
0.0000000001
 43
0.0000000001
 40
0.0
 40
0.0
 40
0.0
 40
0.0
 40
1.0
 40
1.0
 40
1.0
 40
2.0
 40
2.0
 40
2.0
 40
3.0
 40
3.0
 40
3.0
 40
4.0
 40
4.0
 40
4.0
 40
5.0
 40
5.0
 40
5.0
 40
6.0
 40
6.0
 40
6.0
 40
7.0
 40
7.0
 40
7.0
 40
8.0
 40
8.0
 40
8.0
 40
9.0
 40
9.0
 40
9.0
 40
10.0
 40
10.0
 40
10.0
 40
11.0
 40
11.0
 40
11.0
 40
12.0
 40
12.0
 40
12.0
 40
13.0
 40
13.0
 40
13.0
 40
14.0
 40
14.0
 40
14.0
 40
15.0
 40
15.0
 40
15.0
 40
16.0
 40
16.0
 40
16.0
 40
17.0
 40
17.0
 40
17.0
 40
18.0
 40
18.0
 40
18.0
 40
19.0
 40
19.0
 40
19.0
 40
20.0
 40
20.0
 40
20.0
 40
20.0
 10
106.3378917597329
 20
102.4589812282647
 30
0.0
 10
106.3378917597329
 20
102.4589812282647
 30
0.0
 10
106.3378917597329
 20
87.7801183847132
 30
0.0
 10
106.3378917597329
 20
87.7801183847132
 30
0.0
 10
106.3378917597329
 20
85.01870209851039
 30
0.0
 10
104.0993117771113
 20
82.78016517958532
 30
0.0
 10
101.3378954909094
 20
82.78016517958532
 30
0.0
 10
101.3378954909094
 20
82.78016517958532
 30
0.0
 10
70.99937265099924
 20
82.78016517958532
 30
0.0
 10
70.99937265099924
 20
82.78016517958532
 30
0.0
 10
68.23795636479826
 20
82.78016517958532
 30
0.0
 10
65.99937638217671
 20
85.01870209851039
 30
0.0
 10
65.99937638217671
 20
87.7801183847132
 30
0.0
 10
65.99937638217671
 20
87.7801183847132
 30
0.0
 10
65.99937638217671
 20
102.4589812282647
 30
0.0
 10
65.99937638217671
 20
102.4589812282647
 30
0.0
 10
65.99937638217671
 20
104.7667645664496
 30
0.0
 10
64.12853881075808
 20
106.6376236697142
 30
0.0
 10
61.82073394072995
 20
106.6376236697142
 30
0.0
 10
59.05931765452805
 20
106.6376236697142
 30
0.0
 10
56.8207376719065
 20
108.8762467160304
 30
0.0
 10
56.8207376719065
 20
111.6376630022314
 30
0.0
 10
56.8207376719065
 20
111.6376630022314
 30
0.0
 10
56.8207376719065
 20
148.1651491584643
 30
0.0
 10
56.8207376719065
 20
148.1651491584643
 30
0.0
 10
56.8207376719065
 20
150.9265654446662
 30
0.0
 10
59.05931765452805
 20
153.1651884909815
 30
0.0
 10
61.82073394072995
 20
153.1651884909815
 30
0.0
 10
64.12853881075808
 20
153.1651884909815
 30
0.0
 10
65.99937638217671
 20
155.0359614668577
 30
0.0
 10
65.99937638217671
 20
157.3438309324265
 30
0.0
 10
65.99937638217671
 20
157.3438309324265
 30
0.0
 10
65.99937638217671
 20
172.0226937759789
 30
0.0
 10
65.99937638217671
 20
172.0226937759789
 30
0.0
 10
65.99937638217671
 20
174.7841100621808
 30
0.0
 10
68.23795636479826
 20
177.0226469811114
 30
0.0
 10
70.99937265099924
 20
177.0226469811114
 30
0.0
 10
70.99937265099924
 20
177.0226469811114
 30
0.0
 10
101.3378954909094
 20
177.0226469811114
 30
0.0
 10
101.3378954909094
 20
177.0226469811114
 30
0.0
 10
104.0993117771113
 20
177.0226469811114
 30
0.0
 10
106.3378917597329
 20
174.7841100621808
 30
0.0
 10
106.3378917597329
 20
172.0226937759789
 30
0.0
 10
106.3378917597329
 20
172.0226937759789
 30
0.0
 10
106.3378917597329
 20
157.3438309324265
 30
0.0
 10
106.3378917597329
 20
157.3438309324265
 30
0.0
 10
106.3378917597329
 20
155.0359614668577
 30
0.0
 10
108.2087293311515
 20
153.1651884909815
 30
0.0
 10
110.5165342011796
 20
153.1651884909815
 30
0.0
 10
113.2779504873815
 20
153.1651884909815
 30
0.0
 10
115.5165304700031
 20
150.9265654446662
 30
0.0
 10
115.5165304700031
 20
148.1651491584643
 30
0.0
 10
115.5165304700031
 20
148.1651491584643
 30
0.0
 10
115.5165304700031
 20
111.6376630022314
 30
0.0
 10
115.5165304700031
 20
111.6376630022314
 30
0.0
 10
115.5165304700031
 20
108.8762467160304
 30
0.0
 10
113.2779504873815
 20
106.6376236697142
 30
0.0
 10
110.5165342011796
 20
106.6376236697142
 30
0.0
 10
108.2087293311515
 20
106.6376236697142
 30
0.0
 10
106.3378917597329
 20
104.7667645664496
 30
0.0
 10
106.3378917597329
 20
102.4589812282647
 30
0.0
  0
SPLINE
  5
85
330
70
100
AcDbEntity
  8
Layer 1
 62
     1
370
    18
100
AcDbSpline
210
0.0
220
0.0
230
1.0
 70
     9
 71
     3
 72
    20
 73
    16
 74
     0
 42
0.0000000001
 43
0.0000000001
 40
0.0
 40
0.0
 40
0.0
 40
0.0
 40
1.0
 40
1.0
 40
1.0
 40
2.0
 40
2.0
 40
2.0
 40
3.0
 40
3.0
 40
3.0
 40
4.0
 40
4.0
 40
4.0
 40
5.0
 40
5.0
 40
5.0
 40
5.0
 10
57.73487222706989
 20
90.83738224571243
 30
0.0
 10
56.1175075559795
 20
90.83738224571243
 30
0.0
 10
54.77990617013711
 20
92.02128930921935
 30
0.0
 10
54.53033053407853
 20
93.56985972983967
 30
0.0
 10
54.53033053407853
 20
93.56985972983967
 30
0.0
 10
54.53033053407853
 20
94.6114843498035
 30
0.0
 10
54.53033053407853
 20
94.6114843498035
 30
0.0
 10
54.77917408734629
 20
96.1554038915183
 30
0.0
 10
56.10960536821039
 20
97.33698551557063
 30
0.0
 10
57.7205535489602
 20
97.34396183392892
 30
0.0
 10
59.45498687100917
 20
97.35145491660842
 30
0.0
 10
60.92925088838092
 20
95.92837209904065
 30
0.0
 10
60.98327429195887
 20
94.1948000508637
 30
0.0
 10
61.04072125917537
 20
92.3505543102201
 30
0.0
 10
59.56428252527803
 20
90.83738224571243
 30
0.0
 10
57.73487222706989
 20
90.83738224571243
 30
0.0
  0
SPLINE
  5
86
330
70
100
AcDbEntity
  8
Layer 1
 62
     1
370
    18
100
AcDbSpline
210
0.0
220
0.0
230
1.0
 70
     9
 71
     3
 72
    20
 73
    16
 74
     0
 42
0.0000000001
 43
0.0000000001
 40
0.0
 40
0.0
 40
0.0
 40
0.0
 40
1.0
 40
1.0
 40
1.0
 40
2.0
 40
2.0
 40
2.0
 40
3.0
 40
3.0
 40
3.0
 40
4.0
 40
4.0
 40
4.0
 40
5.0
 40
5.0
 40
5.0
 40
5.0
 10
54.53033053407853
 20
166.0382184085511
 30
0.0
 10
54.77990617013711
 20
167.5867888291714
 30
0.0
 10
56.1175075559795
 20
168.7707820200667
 30
0.0
 10
57.73487222706989
 20
168.7707820200667
 30
0.0
 10
59.56432558897086
 20
168.7707820200667
 30
0.0
 10
61.04078585471689
 20
167.2576099555554
 30
0.0
 10
60.98325276011201
 20
165.413278087527
 30
0.0
 10
60.92918629284032
 20
163.6797060393492
 30
0.0
 10
59.45487921177392
 20
162.256709349167
 30
0.0
 10
57.72046742157181
 20
162.264288559234
 30
0.0
 10
56.10956230451666
 20
162.2712648775941
 30
0.0
 10
54.77917408734629
 20
163.4527603742599
 30
0.0
 10
54.53033053407853
 20
164.9965937885863
 30
0.0
 10
54.53033053407853
 20
164.9965937885863
 30
0.0
 10
54.53033053407853
 20
166.0382184085511
 30
0.0
 10
54.53033053407853
 20
166.0382184085511
 30
0.0
  0
SPLINE
  5
87
330
70
100
AcDbEntity
  8
Layer 1
 62
     1
370
    18
100
AcDbSpline
210
0.0
220
0.0
230
1.0
 70
     9
 71
     3
 72
    17
 73
    13
 74
     0
 42
0.0000000001
 43
0.0000000001
 40
0.0
 40
0.0
 40
0.0
 40
0.0
 40
1.0
 40
1.0
 40
1.0
 40
2.0
 40
2.0
 40
2.0
 40
3.0
 40
3.0
 40
3.0
 40
4.0
 40
4.0
 40
4.0
 40
4.0
 10
116.0658724769737
 20
168.7255651418199
 30
0.0
 10
117.4127971524722
 20
168.5044761390563
 30
0.0
 10
118.4982390806399
 20
167.4178068956198
 30
0.0
 10
118.7200171025033
 20
166.0710329430503
 30
0.0
 10
119.0868336442954
 20
163.8434342022874
 30
0.0
 10
117.1901793885845
 20
161.943894679106
 30
0.0
 10
114.9649276191212
 20
162.3095915648655
 30
0.0
 10
113.6179168162352
 20
162.5308528224077
 30
0.0
 10
112.5324964199144
 20
163.6178665753886
 30
0.0
 10
112.3111490349856
 20
164.9648989101215
 30
0.0
 10
111.9451722352196
 20
167.1920670139507
 30
0.0
 10
113.84122359922
 20
169.0907452632564
 30
0.0
 10
116.0658724769737
 20
168.7255651418199
 30
0.0
  0
SPLINE
  5
88
330
70
100
AcDbEntity
  8
Layer 1
 62
     1
370
    18
100
AcDbSpline
210
0.0
220
0.0
230
1.0
 70
     9
 71
     3
 72
    29
 73
    25
 74
     0
 42
0.0000000001
 43
0.0000000001
 40
0.0
 40
0.0
 40
0.0
 40
0.0
 40
1.0
 40
1.0
 40
1.0
 40
2.0
 40
2.0
 40
2.0
 40
3.0
 40
3.0
 40
3.0
 40
4.0
 40
4.0
 40
4.0
 40
5.0
 40
5.0
 40
5.0
 40
6.0
 40
6.0
 40
6.0
 40
7.0
 40
7.0
 40
7.0
 40
8.0
 40
8.0
 40
8.0
 40
8.0
 10
25.15876699026012
 20
139.710540328112
 30
0.0
 10
25.15876699026012
 20
139.710540328112
 30
0.0
 10
11.10594988222874
 20
139.710540328112
 30
0.0
 10
11.10594988222874
 20
139.710540328112
 30
0.0
 10
10.0013803828424
 20
139.710540328112
 30
0.0
 10
9.105949882728054
 20
140.6059708282246
 30
0.0
 10
9.105949882728054
 20
141.7105403276118
 30
0.0
 10
9.105949882728054
 20
141.7105403276118
 30
0.0
 10
9.105949882728054
 20
164.1231590172092
 30
0.0
 10
9.105949882728054
 20
164.1231590172092
 30
0.0
 10
9.105949882728054
 20
164.8376220701984
 30
0.0
 10
9.360934643198561
 20
165.5286300373491
 30
0.0
 10
9.82502218690297
 20
166.0718428923756
 30
0.0
 10
9.82502218690297
 20
166.0718428923756
 30
0.0
 10
23.63815931784302
 20
182.2400718387471
 30
0.0
 10
23.63815931784302
 20
182.2400718387471
 30
0.0
 10
24.84531047956716
 20
183.6530380730346
 30
0.0
 10
27.1587669897599
 20
182.7993631775907
 30
0.0
 10
27.1587669897599
 20
180.9409532372119
 30
0.0
 10
27.1587669897599
 20
180.9409532372119
 30
0.0
 10
27.1587669897599
 20
141.7105403276118
 30
0.0
 10
27.1587669897599
 20
141.7105403276118
 30
0.0
 10
27.1587669897599
 20
140.6059708282246
 30
0.0
 10
26.26333648964556
 20
139.710540328112
 30
0.0
 10
25.15876699026012
 20
139.710540328112
 30
0.0
  0
SPLINE
  5
89
330
70
100
AcDbEntity
  8
Layer 1
 62
     1
370
    18
100
AcDbSpline
210
0.0
220
0.0
230
1.0
 70
     9
 71
     3
 72
    23
 73
    19
 74
     0
 42
0.0000000001
 43
0.0000000001
 40
0.0
 40
0.0
 40
0.0
 40
0.0
 40
1.0
 40
1.0
 40
1.0
 40
2.0
 40
2.0
 40
2.0
 40
3.0
 40
3.0
 40
3.0
 40
4.0
 40
4.0
 40
4.0
 40
5.0
 40
5.0
 40
5.0
 40
6.0
 40
6.0
 40
6.0
 40
6.0
 10
27.1587669897599
 20
78.76787778638027
 30
0.0
 10
27.1587669897599
 20
76.91299531343066
 30
0.0
 10
24.85266313562715
 20
76.05736278597214
 30
0.0
 10
23.64278866490167
 20
77.46334931719866
 30
0.0
 10
23.64278866490167
 20
77.46334931719866
 30
0.0
 10
-8.458998639899618
 20
114.7688241613868
 30
0.0
 10
-8.458998639899618
 20
114.7688241613868
 30
0.0
 10
-9.574714344644235
 20
116.0653858472596
 30
0.0
 10
-8.653538875581944
 20
118.0733597508369
 30
0.0
 10
-6.943005903462108
 20
118.0733597508369
 30
0.0
 10
-6.943005903462108
 20
118.0733597508369
 30
0.0
 10
25.15878140133827
 20
118.0733597508369
 30
0.0
 10
25.15878140133827
 20
118.0733597508369
 30
0.0
 10
26.26334360944929
 20
118.0733597508369
 30
0.0
 10
27.1587669897599
 20
117.1779363705282
 30
0.0
 10
27.1587669897599
 20
116.0733526305685
 30
0.0
 10
27.1587669897599
 20
116.0733526305685
 30
0.0
 10
27.1587669897599
 20
78.76787778638027
 30
0.0
 10
27.1587669897599
 20
78.76787778638027
 30
0.0
  0
LWPOLYLINE
  5
8A
330
70
100
AcDbEntity
  8
Layer 1
 62
     1
370
    18
100
AcDbPolyline
 90
        3
 70
     1
 43
0.0
 10
27.1587669897599
 20
63.81861801092964
 10
27.15486972549206
 20
63.81861801092964
 10
27.1587669897599
 20
63.82232148857838
  0
SPLINE
  5
8B
330
70
100
AcDbEntity
  8
Layer 1
 62
     1
370
    18
100
AcDbSpline
210
0.0
220
0.0
230
1.0
 70
     9
 71
     3
 72
    23
 73
    19
 74
     0
 42
0.0000000001
 43
0.0000000001
 40
0.0
 40
0.0
 40
0.0
 40
0.0
 40
1.0
 40
1.0
 40
1.0
 40
2.0
 40
2.0
 40
2.0
 40
3.0
 40
3.0
 40
3.0
 40
4.0
 40
4.0
 40
4.0
 40
5.0
 40
5.0
 40
5.0
 40
6.0
 40
6.0
 40
6.0
 40
6.0
 10
15.43999478267415
 20
63.81861801092964
 30
0.0
 10
15.43999478267415
 20
63.81861801092964
 30
0.0
 10
-73.19473284273681
 20
63.81861801092964
 30
0.0
 10
-73.19473284273681
 20
63.81861801092964
 30
0.0
 10
-74.90192837860468
 20
63.81861801092964
 30
0.0
 10
-75.82428809924113
 20
65.81974478722987
 30
0.0
 10
-74.71535492623207
 20
67.11772757499421
 30
0.0
 10
-74.71535492623207
 20
67.11772757499421
 30
0.0
 10
-32.67890270692351
 20
116.3211841870397
 30
0.0
 10
-32.67890270692351
 20
116.3211841870397
 30
0.0
 10
-30.68294357385094
 20
118.6574326266691
 30
0.0
 10
-27.07177295436486
 20
118.6574326266691
 30
0.0
 10
-25.07581382129138
 20
116.3211841870397
 30
0.0
 10
-25.07581382129138
 20
116.3211841870397
 30
0.0
 10
16.96061686617031
 20
67.11772757499421
 30
0.0
 10
16.96061686617031
 20
67.11772757499421
 30
0.0
 10
18.06952850733068
 20
65.81974478722987
 30
0.0
 10
17.14719031854292
 20
63.81861801092964
 30
0.0
 10
15.43999478267415
 20
63.81861801092964
 30
0.0
  0
SPLINE
  5
8C
330
70
100
AcDbEntity
  8
Layer 1
 62
     1
370
    18
100
AcDbSpline
210
0.0
220
0.0
230
1.0
 70
     9
 71
     3
 72
    17
 73
    13
 74
     0
 42
0.0000000001
 43
0.0000000001
 40
0.0
 40
0.0
 40
0.0
 40
0.0
 40
1.0
 40
1.0
 40
1.0
 40
2.0
 40
2.0
 40
2.0
 40
3.0
 40
3.0
 40
3.0
 40
4.0
 40
4.0
 40
4.0
 40
4.0
 10
14.38749658008328
 20
52.59751137853709
 30
0.0
 10
14.06370066816453
 20
51.66363211987118
 30
0.0
 10
13.31695468988982
 20
50.91105101111679
 30
0.0
 10
12.38669278148518
 20
50.57704900382304
 30
0.0
 10
9.748051085638508
 20
49.62956161799411
 30
0.0
 10
7.206474955088197
 20
52.26652382978864
 30
0.0
 10
8.35806271657384
 20
54.91132363381621
 30
0.0
 10
8.678262810080923
 20
55.64667926514267
 30
0.0
 10
9.273532246239483
 20
56.24612587957563
 30
0.0
 10
10.00598107824953
 20
56.57306544112543
 30
0.0
 10
12.64565630274137
 20
57.75137422447006
 30
0.0
 10
15.3024278135781
 20
55.23654064762377
 30
0.0
 10
14.38749658008328
 20
52.59751137853709
 30
0.0
  0
SPLINE
  5
8D
330
70
100
AcDbEntity
  8
Layer 1
 62
     1
370
    18
100
AcDbSpline
210
0.0
220
0.0
230
1.0
 70
     9
 71
     3
 72
    17
 73
    13
 74
     0
 42
0.0000000001
 43
0.0000000001
 40
0.0
 40
0.0
 40
0.0
 40
0.0
 40
1.0
 40
1.0
 40
1.0
 40
2.0
 40
2.0
 40
2.0
 40
3.0
 40
3.0
 40
3.0
 40
4.0
 40
4.0
 40
4.0
 40
4.0
 10
-63.65450982944185
 20
52.95485390774229
 30
0.0
 10
-63.97830574136242
 20
52.02106077646567
 30
0.0
 10
-64.72507325148399
 20
51.26856579510058
 30
0.0
 10
-65.65533515988772
 20
50.93447766041754
 30
0.0
 10
-68.29412757866157
 20
49.98699027458861
 30
0.0
 10
-70.83538073150975
 20
52.62403861377243
 30
0.0
 10
-69.6840082884928
 20
55.26858003563575
 30
0.0
 10
-69.36385125867855
 20
56.0040217943515
 30
0.0
 10
-68.76866794990928
 20
56.60338228139517
 30
0.0
 10
-68.03634830897772
 20
56.93049409771993
 30
0.0
 10
-65.39660848894527
 20
58.10931964538759
 30
0.0
 10
-62.73951400040641
 20
55.59396930421826
 30
0.0
 10
-63.65450982944185
 20
52.95485390774229
 30
0.0
  0
SPLINE
  5
8E
330
70
100
AcDbEntity
  8
Layer 1
 62
     1
370
    18
100
AcDbSpline
210
0.0
220
0.0
230
1.0
 70
     9
 71
     3
 72
    23
 73
    19
 74
     0
 42
0.0000000001
 43
0.0000000001
 40
0.0
 40
0.0
 40
0.0
 40
0.0
 40
1.0
 40
1.0
 40
1.0
 40
2.0
 40
2.0
 40
2.0
 40
3.0
 40
3.0
 40
3.0
 40
4.0
 40
4.0
 40
4.0
 40
5.0
 40
5.0
 40
5.0
 40
6.0
 40
6.0
 40
6.0
 40
6.0
 10
-82.37042168999778
 20
81.72854978271244
 30
0.0
 10
-82.37042168999778
 20
81.72854978271244
 30
0.0
 10
-82.37042168999778
 20
116.0733526305685
 30
0.0
 10
-82.37042168999778
 20
116.0733526305685
 30
0.0
 10
-82.37042168999778
 20
117.1779363705282
 30
0.0
 10
-81.47497677784121
 20
118.0733597508369
 30
0.0
 10
-80.37041456972838
 20
118.0733597508369
 30
0.0
 10
-80.37041456972838
 20
118.0733597508369
 30
0.0
 10
-50.8162969081186
 20
118.0733597508369
 30
0.0
 10
-50.8162969081186
 20
118.0733597508369
 30
0.0
 10
-49.10578546784472
 20
118.0733597508369
 30
0.0
 10
-48.18460999878244
 20
116.0653858472596
 30
0.0
 10
-49.30032570352796
 20
114.7688241613868
 30
0.0
 10
-49.30032570352796
 20
114.7688241613868
 30
0.0
 10
-78.85442183329178
 20
80.42402131352536
 30
0.0
 10
-78.85442183329178
 20
80.42402131352536
 30
0.0
 10
-80.06429630401726
 20
79.01803478230249
 30
0.0
 10
-82.37042168999778
 20
79.87362424606544
 30
0.0
 10
-82.37042168999778
 20
81.72854978271244
 30
0.0
  0
SPLINE
  5
8F
330
70
100
AcDbEntity
  8
Layer 1
 62
     1
370
    18
100
AcDbSpline
210
0.0
220
0.0
230
1.0
 70
     9
 71
     3
 72
    29
 73
    25
 74
     0
 42
0.0000000001
 43
0.0000000001
 40
0.0
 40
0.0
 40
0.0
 40
0.0
 40
1.0
 40
1.0
 40
1.0
 40
2.0
 40
2.0
 40
2.0
 40
3.0
 40
3.0
 40
3.0
 40
4.0
 40
4.0
 40
4.0
 40
5.0
 40
5.0
 40
5.0
 40
6.0
 40
6.0
 40
6.0
 40
7.0
 40
7.0
 40
7.0
 40
8.0
 40
8.0
 40
8.0
 40
8.0
 10
-82.37042168999778
 20
177.9642777046147
 30
0.0
 10
-82.37042168999778
 20
179.8227051043259
 30
0.0
 10
-80.05694378956741
 20
180.676388434038
 30
0.0
 10
-78.84978070510078
 20
179.2634094223403
 30
0.0
 10
-78.84978070510078
 20
179.2634094223403
 30
0.0
 10
-64.18942105051155
 20
162.1035237677706
 30
0.0
 10
-64.18942105051155
 20
162.1035237677706
 30
0.0
 10
-63.72533300711348
 20
161.5603107807774
 30
0.0
 10
-63.47034794390856
 20
160.8693024312715
 30
0.0
 10
-63.47034794390856
 20
160.1548389533618
 30
0.0
 10
-63.47034794390856
 20
160.1548389533618
 30
0.0
 10
-63.47034794390856
 20
141.7105403276118
 30
0.0
 10
-63.47034794390856
 20
141.7105403276118
 30
0.0
 10
-63.47034794390856
 20
140.6059708282246
 30
0.0
 10
-64.3657784440229
 20
139.710540328112
 30
0.0
 10
-65.47034794341016
 20
139.710540328112
 30
0.0
 10
-65.47034794341016
 20
139.710540328112
 30
0.0
 10
-80.37042169049801
 20
139.710540328112
 30
0.0
 10
-80.37042169049801
 20
139.710540328112
 30
0.0
 10
-81.47499118988253
 20
139.710540328112
 30
0.0
 10
-82.37042168999778
 20
140.6059708282246
 30
0.0
 10
-82.37042168999778
 20
141.7105403276118
 30
0.0
 10
-82.37042168999778
 20
141.7105403276118
 30
0.0
 10
-82.37042168999778
 20
177.9642777046147
 30
0.0
 10
-82.37042168999778
 20
177.9642777046147
 30
0.0
  0
SPLINE
  5
90
330
70
100
AcDbEntity
  8
Layer 1
 62
     1
370
    18
100
AcDbSpline
210
0.0
220
0.0
230
1.0
 70
     9
 71
     3
 72
    23
 73
    19
 74
     0
 42
0.0000000001
 43
0.0000000001
 40
0.0
 40
0.0
 40
0.0
 40
0.0
 40
1.0
 40
1.0
 40
1.0
 40
2.0
 40
2.0
 40
2.0
 40
3.0
 40
3.0
 40
3.0
 40
4.0
 40
4.0
 40
4.0
 40
5.0
 40
5.0
 40
5.0
 40
6.0
 40
6.0
 40
6.0
 40
6.0
 10
-73.07884233762251
 20
194.9298657401941
 30
0.0
 10
-73.07884233762251
 20
194.9298657401941
 30
0.0
 10
-65.47034794341016
 20
194.9298657401941
 30
0.0
 10
-65.47034794341016
 20
194.9298657401941
 30
0.0
 10
-64.3657784440229
 20
194.9298657401941
 30
0.0
 10
-63.47034794390856
 20
194.0344352400816
 30
0.0
 10
-63.47034794390856
 20
192.9298657406953
 30
0.0
 10
-63.47034794390856
 20
192.9298657406953
 30
0.0
 10
-63.47034794390856
 20
184.0880374284179
 30
0.0
 10
-63.47034794390856
 20
184.0880374284179
 30
0.0
 10
-63.47034794390856
 20
182.2331409145408
 30
0.0
 10
-65.77646280557928
 20
181.3775144592564
 30
0.0
 10
-66.9863381039504
 20
182.783516891539
 30
0.0
 10
-66.9863381039504
 20
182.783516891539
 30
0.0
 10
-74.59481964794213
 20
191.6253732144396
 30
0.0
 10
-74.59481964794213
 20
191.6253732144396
 30
0.0
 10
-75.71051953609821
 20
192.9219339083829
 30
0.0
 10
-74.78935567388089
 20
194.9298657401941
 30
0.0
 10
-73.07884233762251
 20
194.9298657401941
 30
0.0
  0
SPLINE
  5
91
330
70
100
AcDbEntity
  8
Layer 1
 62
     1
370
    18
100
AcDbSpline
210
0.0
220
0.0
230
1.0
 70
     9
 71
     3
 72
    17
 73
    13
 74
     0
 42
0.0000000001
 43
0.0000000001
 40
0.0
 40
0.0
 40
0.0
 40
0.0
 40
1.0
 40
1.0
 40
1.0
 40
2.0
 40
2.0
 40
2.0
 40
3.0
 40
3.0
 40
3.0
 40
4.0
 40
4.0
 40
4.0
 40
4.0
 10
-69.32466329753333
 20
205.5501046562704
 30
0.0
 10
-69.00497996834928
 20
206.2852880328228
 30
0.0
 10
-68.41020576466781
 20
206.8847346472566
 30
0.0
 10
-67.67835982436736
 20
207.2121909731295
 30
0.0
 10
-64.95316010445367
 20
208.4314963927445
 30
0.0
 10
-62.20873244536324
 20
205.7126270357858
 30
0.0
 10
-63.3936945693622
 20
202.9839391566929
 30
0.0
 10
-63.71301185715037
 20
202.2485835253665
 30
0.0
 10
-64.30742001943781
 20
201.6489646561586
 30
0.0
 10
-65.03896451388391
 20
201.321077693352
 30
0.0
 10
-67.76500397582094
 20
200.099016197345
 30
0.0
 10
-70.51143409666292
 20
202.8206416306921
 30
0.0
 10
-69.32466329753333
 20
205.5501046562704
 30
0.0
  0
SPLINE
  5
92
330
70
100
AcDbEntity
  8
Layer 1
 62
     1
370
    18
100
AcDbSpline
210
0.0
220
0.0
230
1.0
 70
     9
 71
     3
 72
    47
 73
    43
 74
     0
 42
0.0000000001
 43
0.0000000001
 40
0.0
 40
0.0
 40
0.0
 40
0.0
 40
1.0
 40
1.0
 40
1.0
 40
2.0
 40
2.0
 40
2.0
 40
3.0
 40
3.0
 40
3.0
 40
4.0
 40
4.0
 40
4.0
 40
5.0
 40
5.0
 40
5.0
 40
6.0
 40
6.0
 40
6.0
 40
7.0
 40
7.0
 40
7.0
 40
8.0
 40
8.0
 40
8.0
 40
9.0
 40
9.0
 40
9.0
 40
10.0
 40
10.0
 40
10.0
 40
11.0
 40
11.0
 40
11.0
 40
12.0
 40
12.0
 40
12.0
 40
13.0
 40
13.0
 40
13.0
 40
14.0
 40
14.0
 40
14.0
 40
14.0
 10
-53.99293332767957
 20
198.9772069799628
 30
0.0
 10
-53.99293332767957
 20
198.9772069799628
 30
0.0
 10
0.0070436010937556
 20
198.9772069799628
 30
0.0
 10
0.0070436010937556
 20
198.9772069799628
 30
0.0
 10
0.3664747194397933
 20
198.9772069799628
 30
0.0
 10
0.7028882935746879
 20
198.8810888159241
 30
0.0
 10
0.9943864353208482
 20
198.7151213409197
 30
0.0
 10
1.239117405852994
 20
198.5904950117437
 30
0.0
 10
1.454694255842696
 20
198.4169913903643
 30
0.0
 10
1.628585450460377
 20
198.2077449033322
 30
0.0
 10
1.628585450460377
 20
198.2077449033322
 30
0.0
 10
1.628585450460377
 20
141.7105403276118
 30
0.0
 10
1.628585450460377
 20
141.7105403276118
 30
0.0
 10
1.628585450460377
 20
140.6059708282246
 30
0.0
 10
0.7331549503460338
 20
139.710540328112
 30
0.0
 10
-0.3714145490384908
 20
139.710540328112
 30
0.0
 10
-0.3714145490384908
 20
139.710540328112
 30
0.0
 10
-12.69646608675703
 20
139.710540328112
 30
0.0
 10
-12.69646608675703
 20
139.710540328112
 30
0.0
 10
-12.69646608675703
 20
139.710540328112
 30
0.0
 10
-45.05827197330563
 20
139.710540328112
 30
0.0
 10
-45.05827197330563
 20
139.710540328112
 30
0.0
 10
-45.05827197330563
 20
139.710540328112
 30
0.0
 10
-53.99298351214202
 20
139.710540328112
 30
0.0
 10
-53.99298351214202
 20
139.710540328112
 30
0.0
 10
-55.09755301152836
 20
139.710540328112
 30
0.0
 10
-55.99298351164179
 20
140.6059708282246
 30
0.0
 10
-55.99298351164179
 20
141.7105403276118
 30
0.0
 10
-55.99298351164179
 20
141.7105403276118
 30
0.0
 10
-55.99298351164179
 20
152.5095868201388
 30
0.0
 10
-55.99298351164179
 20
152.5095868201388
 30
0.0
 10
-55.99298351164179
 20
152.5095868201388
 30
0.0
 10
-55.99298351164179
 20
170.0081311272861
 30
0.0
 10
-55.99298351164179
 20
170.0081311272861
 30
0.0
 10
-55.99298351164179
 20
170.0081311272861
 30
0.0
 10
-55.99298351164179
 20
196.3662552390769
 30
0.0
 10
-55.99298351164179
 20
196.3662552390769
 30
0.0
 10
-55.99298351164179
 20
196.3662552390769
 30
0.0
 10
-55.99298351164179
 20
196.9771567960006
 30
0.0
 10
-55.99298351164179
 20
196.9771567960006
 30
0.0
 10
-55.99298351164179
 20
198.0817540114967
 30
0.0
 10
-55.09753054317844
 20
198.9772069799628
 30
0.0
 10
-53.99293332767957
 20
198.9772069799628
 30
0.0
  0
SPLINE
  5
93
330
70
100
AcDbEntity
  8
Layer 1
 62
     1
370
    18
100
AcDbSpline
210
0.0
220
0.0
230
1.0
 70
     9
 71
     3
 72
    17
 73
    13
 74
     0
 42
0.0000000001
 43
0.0000000001
 40
0.0
 40
0.0
 40
0.0
 40
0.0
 40
1.0
 40
1.0
 40
1.0
 40
2.0
 40
2.0
 40
2.0
 40
3.0
 40
3.0
 40
3.0
 40
4.0
 40
4.0
 40
4.0
 40
4.0
 10
8.364479206915348
 20
205.5457121595255
 30
0.0
 10
8.684485513800609
 20
206.2810677908519
 30
0.0
 10
9.279496567796741
 20
206.8805144052849
 30
0.0
 10
10.01164395395335
 20
207.2077123489989
 30
0.0
 10
12.73729584264947
 20
208.4259842399679
 30
0.0
 10
15.48157277881091
 20
205.7046171887841
 30
0.0
 10
14.29383304657949
 20
202.9761015644663
 30
0.0
 10
13.97380520784554
 20
202.2410043152995
 30
0.0
 10
13.37881568569628
 20
201.6417299556397
 30
0.0
 10
12.64684055431462
 20
201.3145320119302
 30
0.0
 10
9.921188665618501
 20
200.096001738797
 30
0.0
 10
7.176868665762413
 20
202.8166797708845
 30
0.0
 10
8.364479206915348
 20
205.5457121595255
 30
0.0
  0
SPLINE
  5
94
330
70
100
AcDbEntity
  8
Layer 1
 62
     1
370
    18
100
AcDbSpline
210
0.0
220
0.0
230
1.0
 70
     9
 71
     3
 72
   182
 73
   178
 74
     0
 42
0.0000000001
 43
0.0000000001
 40
0.0
 40
0.0
 40
0.0
 40
0.0
 40
1.0
 40
1.0
 40
1.0
 40
2.0
 40
2.0
 40
2.0
 40
3.0
 40
3.0
 40
3.0
 40
4.0
 40
4.0
 40
4.0
 40
5.0
 40
5.0
 40
5.0
 40
6.0
 40
6.0
 40
6.0
 40
7.0
 40
7.0
 40
7.0
 40
8.0
 40
8.0
 40
8.0
 40
9.0
 40
9.0
 40
9.0
 40
10.0
 40
10.0
 40
10.0
 40
11.0
 40
11.0
 40
11.0
 40
12.0
 40
12.0
 40
12.0
 40
13.0
 40
13.0
 40
13.0
 40
14.0
 40
14.0
 40
14.0
 40
15.0
 40
15.0
 40
15.0
 40
16.0
 40
16.0
 40
16.0
 40
17.0
 40
17.0
 40
17.0
 40
18.0
 40
18.0
 40
18.0
 40
19.0
 40
19.0
 40
19.0
 40
20.0
 40
20.0
 40
20.0
 40
21.0
 40
21.0
 40
21.0
 40
22.0
 40
22.0
 40
22.0
 40
23.0
 40
23.0
 40
23.0
 40
24.0
 40
24.0
 40
24.0
 40
25.0
 40
25.0
 40
25.0
 40
26.0
 40
26.0
 40
26.0
 40
27.0
 40
27.0
 40
27.0
 40
28.0
 40
28.0
 40
28.0
 40
29.0
 40
29.0
 40
29.0
 40
30.0
 40
30.0
 40
30.0
 40
31.0
 40
31.0
 40
31.0
 40
32.0
 40
32.0
 40
32.0
 40
33.0
 40
33.0
 40
33.0
 40
34.0
 40
34.0
 40
34.0
 40
35.0
 40
35.0
 40
35.0
 40
36.0
 40
36.0
 40
36.0
 40
37.0
 40
37.0
 40
37.0
 40
38.0
 40
38.0
 40
38.0
 40
39.0
 40
39.0
 40
39.0
 40
40.0
 40
40.0
 40
40.0
 40
41.0
 40
41.0
 40
41.0
 40
42.0
 40
42.0
 40
42.0
 40
43.0
 40
43.0
 40
43.0
 40
44.0
 40
44.0
 40
44.0
 40
45.0
 40
45.0
 40
45.0
 40
46.0
 40
46.0
 40
46.0
 40
47.0
 40
47.0
 40
47.0
 40
48.0
 40
48.0
 40
48.0
 40
49.0
 40
49.0
 40
49.0
 40
50.0
 40
50.0
 40
50.0
 40
51.0
 40
51.0
 40
51.0
 40
52.0
 40
52.0
 40
52.0
 40
53.0
 40
53.0
 40
53.0
 40
54.0
 40
54.0
 40
54.0
 40
55.0
 40
55.0
 40
55.0
 40
56.0
 40
56.0
 40
56.0
 40
57.0
 40
57.0
 40
57.0
 40
58.0
 40
58.0
 40
58.0
 40
59.0
 40
59.0
 40
59.0
 40
59.0
 10
373.771675499569
 20
174.0081023041284
 30
0.0
 10
373.771675499569
 20
174.0081023041284
 30
0.0
 10
373.771675499569
 20
174.0258445458776
 30
0.0
 10
373.771675499569
 20
174.0258445458776
 30
0.0
 10
373.771675499569
 20
174.0258445458776
 30
0.0
 10
338.165773917488
 20
174.0258445458776
 30
0.0
 10
338.165773917488
 20
174.0258445458776
 30
0.0
 10
337.0555488336722
 20
174.0258445458776
 30
0.0
 10
336.1555391699967
 20
174.925875741399
 30
0.0
 10
336.1555391699967
 20
176.0360577615202
 30
0.0
 10
336.1555391699967
 20
176.0360577615202
 30
0.0
 10
336.1555391699967
 20
179.9759550858416
 30
0.0
 10
336.1555391699967
 20
179.9759550858416
 30
0.0
 10
336.1555391699967
 20
182.7373713720435
 30
0.0
 10
333.9169591873761
 20
184.9759082909695
 30
0.0
 10
331.1555429011751
 20
184.9759082909695
 30
0.0
 10
331.1555429011751
 20
184.9759082909695
 30
0.0
 10
317.1598424923468
 20
184.9759082909695
 30
0.0
 10
317.1598424923468
 20
184.9759082909695
 30
0.0
 10
317.1598424923468
 20
184.9759082909695
 30
0.0
 10
316.1555540947029
 20
184.9759082909695
 30
0.0
 10
316.1555540947029
 20
184.9759082909695
 30
0.0
 10
316.1555540947029
 20
184.9759082909695
 30
0.0
 10
315.1657781617905
 20
184.9759082909695
 30
0.0
 10
315.1657781617905
 20
184.9759082909695
 30
0.0
 10
315.1625053210791
 20
184.9759082909695
 30
0.0
 10
315.1598353720783
 20
184.9732383419705
 30
0.0
 10
315.1598353720783
 20
184.9699655012591
 30
0.0
 10
315.1598353720783
 20
184.9699655012591
 30
0.0
 10
41.40688523842254
 20
184.9759082909695
 30
0.0
 10
41.40688523842254
 20
184.9759082909695
 30
0.0
 10
41.40688523842254
 20
184.9759082909695
 30
0.0
 10
39.40687811815406
 20
184.9759082909695
 30
0.0
 10
39.40687811815406
 20
184.9759082909695
 30
0.0
 10
39.40687811815406
 20
184.9759082909695
 30
0.0
 10
39.40687811815406
 20
202.7290020907849
 30
0.0
 10
39.40687811815406
 20
202.7290020907849
 30
0.0
 10
39.40687811815406
 20
202.9568951571345
 30
0.0
 10
39.38086764723994
 20
203.1834101852892
 30
0.0
 10
39.32988023405869
 20
203.404240805894
 30
0.0
 10
39.32988023405869
 20
203.404240805894
 30
0.0
 10
39.32988023405869
 20
204.448449247473
 30
0.0
 10
39.32988023405869
 20
204.448449247473
 30
0.0
 10
39.32988023405869
 20
210.5910544976732
 30
0.0
 10
34.39168036550109
 20
215.588337753803
 30
0.0
 10
28.32176663004066
 20
215.588337753803
 30
0.0
 10
28.32176663004066
 20
215.588337753803
 30
0.0
 10
28.27749715305436
 20
215.588337753803
 30
0.0
 10
28.27749715305436
 20
215.588337753803
 30
0.0
 10
28.03255086405352
 20
215.588337753803
 30
0.0
 10
27.79432251124854
 20
215.5590544421784
 30
0.0
 10
27.56642944489886
 20
215.5035884048657
 30
0.0
 10
27.56642944489886
 20
215.5035884048657
 30
0.0
 10
-81.431740829501
 20
215.5035884048657
 30
0.0
 10
-81.431740829501
 20
215.5035884048657
 30
0.0
 10
-81.64929860939446
 20
215.5531977798528
 30
0.0
 10
-81.8732298159357
 20
215.5788637412179
 30
0.0
 10
-82.09940033454222
 20
215.5788637412179
 30
0.0
 10
-82.14556461404482
 20
215.5788637412179
 30
0.0
 10
-82.19172889354741
 20
215.5778302125727
 30
0.0
 10
-82.23789317304909
 20
215.5757631552815
 30
0.0
 10
-88.1262503764392
 20
215.3039451214954
 30
0.0
 10
-92.73871646686529
 20
210.4162159017969
 30
0.0
 10
-92.73871646686529
 20
204.448449247473
 30
0.0
 10
-92.73871646686529
 20
204.448449247473
 30
0.0
 10
-92.73871646686529
 20
53.10282075883333
 30
0.0
 10
-92.73871646686529
 20
53.10282075883333
 30
0.0
 10
-92.73871646686529
 20
46.9603877634072
 30
0.0
 10
-87.80051659830769
 20
41.96310450727833
 30
0.0
 10
-81.7307751176204
 20
41.96310450727833
 30
0.0
 10
-81.7307751176204
 20
41.96310450727833
 30
0.0
 10
28.32176663004066
 20
41.96310450727833
 30
0.0
 10
28.32176663004066
 20
41.96310450727833
 30
0.0
 10
34.39168036550109
 20
41.96310450727833
 30
0.0
 10
39.32988023405869
 20
46.9603877634072
 30
0.0
 10
39.32988023405869
 20
53.10282075883333
 30
0.0
 10
39.32988023405869
 20
53.10282075883333
 30
0.0
 10
39.32988023405869
 20
54.14668469086428
 30
0.0
 10
39.32988023405869
 20
54.14668469086428
 30
0.0
 10
39.38086764723994
 20
54.36768756624406
 30
0.0
 10
39.40687811815406
 20
54.59420259439866
 30
0.0
 10
39.40687811815406
 20
54.82209566074743
 30
0.0
 10
39.40687811815406
 20
54.82209566074743
 30
0.0
 10
39.40687811815406
 20
75.47595985914267
 30
0.0
 10
39.40687811815406
 20
75.47595985914267
 30
0.0
 10
39.40687811815406
 20
75.47595985914267
 30
0.0
 10
41.40688523842254
 20
75.47595985914267
 30
0.0
 10
41.40688523842254
 20
75.47595985914267
 30
0.0
 10
41.40688523842254
 20
75.47595985914267
 30
0.0
 10
41.40688523842254
 20
75.47380667446669
 30
0.0
 10
41.40688523842254
 20
75.47380667446669
 30
0.0
 10
41.40688523842254
 20
75.47380667446669
 30
0.0
 10
43.40687082684326
 20
75.48043848327324
 30
0.0
 10
43.40687082684326
 20
75.48043848327324
 30
0.0
 10
43.40687082684326
 20
75.48043848327324
 30
0.0
 10
43.40687082684326
 20
75.47595985914267
 30
0.0
 10
43.40687082684326
 20
75.47595985914267
 30
0.0
 10
43.40687082684326
 20
75.47595985914267
 30
0.0
 10
45.40687794711084
 20
75.47595985914267
 30
0.0
 10
45.40687794711084
 20
75.47595985914267
 30
0.0
 10
45.40687794711084
 20
75.47595985914267
 30
0.0
 10
125.1598479656932
 20
75.47595985914267
 30
0.0
 10
125.1598479656932
 20
75.47595985914267
 30
0.0
 10
125.1598479656932
 20
75.47595985914267
 30
0.0
 10
125.4068613119861
 20
75.47595985914267
 30
0.0
 10
125.4068613119861
 20
75.47595985914267
 30
0.0
 10
125.4068613119861
 20
75.47595985914267
 30
0.0
 10
127.1598550859626
 20
75.47595985914267
 30
0.0
 10
127.1598550859626
 20
75.47595985914267
 30
0.0
 10
127.1598550859626
 20
75.47595985914267
 30
0.0
 10
127.1598550859626
 20
75.48620901821414
 30
0.0
 10
127.1598550859626
 20
75.48620901821414
 30
0.0
 10
127.1598550859626
 20
75.48620901821414
 30
0.0
 10
129.1598622062301
 20
75.48620901821414
 30
0.0
 10
129.1598622062301
 20
75.48620901821414
 30
0.0
 10
129.1598622062301
 20
75.48620901821414
 30
0.0
 10
129.1598622062301
 20
75.47595985914267
 30
0.0
 10
129.1598622062301
 20
75.47595985914267
 30
0.0
 10
129.1598622062301
 20
75.47595985914267
 30
0.0
 10
131.1598477946518
 20
75.47595985914267
 30
0.0
 10
131.1598477946518
 20
75.47595985914267
 30
0.0
 10
131.1598477946518
 20
75.47595985914267
 30
0.0
 10
141.1598188004518
 20
75.47595985914267
 30
0.0
 10
141.1598188004518
 20
75.47595985914267
 30
0.0
 10
141.1598188004518
 20
75.47595985914267
 30
0.0
 10
301.1598285938944
 20
75.47595985914267
 30
0.0
 10
301.1598285938944
 20
75.47595985914267
 30
0.0
 10
301.1598285938944
 20
75.47595985914267
 30
0.0
 10
311.1598211315432
 20
75.47595985914267
 30
0.0
 10
311.1598211315432
 20
75.47595985914267
 30
0.0
 10
311.1598211315432
 20
75.47595985914267
 30
0.0
 10
313.1496221564357
 20
75.47595985914267
 30
0.0
 10
313.1496221564357
 20
75.47595985914267
 30
0.0
 10
313.1552635002918
 20
75.47595985914267
 30
0.0
 10
313.1598282518098
 20
75.48052461066254
 30
0.0
 10
313.1598282518098
 20
75.48620901821414
 30
0.0
 10
313.1598282518098
 20
75.48620901821414
 30
0.0
 10
313.1598282518098
 20
75.47260089104748
 30
0.0
 10
313.1598282518098
 20
75.47260089104748
 30
0.0
 10
313.1598282518098
 20
75.47260089104748
 30
0.0
 10
315.1598353720783
 20
75.4837974513739
 30
0.0
 10
315.1598353720783
 20
75.4837974513739
 30
0.0
 10
315.1598353720783
 20
75.4837974513739
 30
0.0
 10
315.1598353720783
 20
75.4819026488567
 30
0.0
 10
315.1598353720783
 20
75.4819026488567
 30
0.0
 10
315.1598353720783
 20
75.47862980814534
 30
0.0
 10
315.1625053210791
 20
75.47595985914267
 30
0.0
 10
315.1657781617905
 20
75.47595985914267
 30
0.0
 10
315.1657781617905
 20
75.47595985914267
 30
0.0
 10
316.1555540947029
 20
75.47595985914267
 30
0.0
 10
316.1555540947029
 20
75.47595985914267
 30
0.0
 10
316.1555540947029
 20
75.47595985914267
 30
0.0
 10
317.1598424923468
 20
75.47595985914267
 30
0.0
 10
317.1598424923468
 20
75.47595985914267
 30
0.0
 10
317.1598424923468
 20
75.47595985914267
 30
0.0
 10
331.1555429011751
 20
75.47595985914267
 30
0.0
 10
331.1555429011751
 20
75.47595985914267
 30
0.0
 10
333.9169591873761
 20
75.47595985914267
 30
0.0
 10
336.1555391699967
 20
77.71449677807322
 30
0.0
 10
336.1555391699967
 20
80.47591306427603
 30
0.0
 10
336.1555391699967
 20
80.47591306427603
 30
0.0
 10
336.1555391699967
 20
84.41581038859295
 30
0.0
 10
336.1555391699967
 20
84.41581038859295
 30
0.0
 10
336.1555391699967
 20
85.52599240871495
 30
0.0
 10
337.0555488336722
 20
86.42602360423552
 30
0.0
 10
338.165773917488
 20
86.42602360423552
 30
0.0
 10
338.165773917488
 20
86.42602360423552
 30
0.0
 10
373.771675499569
 20
86.42602360423552
 30
0.0
 10
373.771675499569
 20
86.42602360423552
 30
0.0
 10
373.771675499569
 20
86.42602360423552
 30
0.0
 10
373.771675499569
 20
86.44376584598466
 30
0.0
 10
373.771675499569
 20
86.44376584598466
 30
0.0
 10
397.3619237711245
 20
87.09152992460076
 30
0.0
 10
416.3531848883376
 20
106.4819914811669
 30
0.0
 10
416.3531848883376
 20
130.2259340750561
 30
0.0
 10
416.3531848883376
 20
153.9698766689471
 30
0.0
 10
397.3619237711245
 20
173.360338225516
 30
0.0
 10
373.771675499569
 20
174.0081023041284
 30
0.0
  0
SPLINE
  5
95
330
70
100
AcDbEntity
  8
Layer 1
 62
     1
370
    18
100
AcDbSpline
210
0.0
220
0.0
230
1.0
 70
     9
 71
     3
 72
    17
 73
    13
 74
     0
 42
0.0000000001
 43
0.0000000001
 40
0.0
 40
0.0
 40
0.0
 40
0.0
 40
1.0
 40
1.0
 40
1.0
 40
2.0
 40
2.0
 40
2.0
 40
3.0
 40
3.0
 40
3.0
 40
4.0
 40
4.0
 40
4.0
 40
4.0
 10
328.812921034898
 20
169.4908767830984
 30
0.0
 10
328.5918750958263
 20
168.1439305757549
 30
0.0
 10
327.5054211708593
 20
167.0576058418664
 30
0.0
 10
326.1584318998193
 20
166.8367752212616
 30
0.0
 10
323.9341490634615
 20
166.4721118641482
 30
0.0
 10
322.038657527477
 20
168.3677756549068
 30
0.0
 10
322.4034931393635
 20
170.5920154275736
 30
0.0
 10
322.6244098873558
 20
171.9388755075315
 30
0.0
 10
323.7106915575496
 20
173.0252863688056
 30
0.0
 10
325.0575947012021
 20
173.2462892441844
 30
0.0
 10
327.282049792333
 20
173.6113832382316
 30
0.0
 10
329.1780150289469
 20
171.715374937924
 30
0.0
 10
328.812921034898
 20
169.4908767830984
 30
0.0
  0
SPLINE
  5
96
330
70
100
AcDbEntity
  8
Layer 1
 62
     1
370
    18
100
AcDbSpline
210
0.0
220
0.0
230
1.0
 70
     9
 71
     3
 72
    17
 73
    13
 74
     0
 42
0.0000000001
 43
0.0000000001
 40
0.0
 40
0.0
 40
0.0
 40
0.0
 40
1.0
 40
1.0
 40
1.0
 40
2.0
 40
2.0
 40
2.0
 40
3.0
 40
3.0
 40
3.0
 40
4.0
 40
4.0
 40
4.0
 40
4.0
 10
328.812921034898
 20
89.33774229568189
 30
0.0
 10
328.5918750958263
 20
87.99079608833926
 30
0.0
 10
327.5054211708593
 20
86.90447135444992
 30
0.0
 10
326.1584318998193
 20
86.68364073384509
 30
0.0
 10
323.9341490634615
 20
86.3189773767317
 30
0.0
 10
322.038657527477
 20
88.21464116749121
 30
0.0
 10
322.4034931393635
 20
90.43888094015711
 30
0.0
 10
322.6244098873558
 20
91.78574102011408
 30
0.0
 10
323.7106915575496
 20
92.87215188138906
 30
0.0
 10
325.0575947012021
 20
93.09315475676703
 30
0.0
 10
327.282049792333
 20
93.45824875081598
 30
0.0
 10
329.1780150289469
 20
91.56224045050839
 30
0.0
 10
328.812921034898
 20
89.33774229568189
 30
0.0
  0
ENDSEC
  0
SECTION
  2
OBJECTS
  0
DICTIONARY
  5
C
330
0
100
AcDbDictionary
281
     1
  3
ACAD_COLOR
350
63
  3
ACAD_DETAILVIEWSTYLE
350
6A
  3
ACAD_GROUP
350
D
  3
ACAD_LAYOUT
350
62
  3
ACAD_MATERIAL
350
10
  3
ACAD_MLEADERSTYLE
350
66
  3
ACAD_MLINESTYLE
350
5F
  3
ACAD_PLOTSETTINGS
350
61
  3
ACAD_PLOTSTYLENAME
350
E
  3
ACAD_SCALELIST
350
42
  3
ACAD_SECTIONVIEWSTYLE
350
68
  3
ACAD_TABLESTYLE
350
64
  3
ACAD_VISUALSTYLE
350
29
  3
ACDB_RECOMPOSE_DATA
350
9F
  3
AcDbVariableDictionary
350
97
  0
DICTIONARY
  5
63
102
{ACAD_REACTORS
330
C
102
}
330
C
100
AcDbDictionary
281
     1
  0
DICTIONARY
  5
6A
102
{ACAD_REACTORS
330
C
102
}
330
C
100
AcDbDictionary
281
     1
  3
Imperial24
350
6B
  0
DICTIONARY
  5
D
102
{ACAD_REACTORS
330
C
102
}
330
C
100
AcDbDictionary
281
     1
  0
DICTIONARY
  5
62
102
{ACAD_REACTORS
330
C
102
}
330
C
100
AcDbDictionary
281
     1
  3
Layout1
350
6F
  3
Layout2
350
77
  3
Model
350
73
  0
DICTIONARY
  5
10
102
{ACAD_REACTORS
330
C
102
}
330
C
100
AcDbDictionary
281
     1
  3
ByBlock
350
19
  3
ByLayer
350
11
  3
Global
350
21
  0
DICTIONARY
  5
66
102
{ACAD_REACTORS
330
C
102
}
330
C
100
AcDbDictionary
281
     1
  3
Standard
350
67
  0
DICTIONARY
  5
5F
102
{ACAD_REACTORS
330
C
102
}
330
C
100
AcDbDictionary
281
     1
  3
Standard
350
60
  0
DICTIONARY
  5
61
102
{ACAD_REACTORS
330
C
102
}
330
C
100
AcDbDictionary
281
     1
  0
ACDBDICTIONARYWDFLT
  5
E
102
{ACAD_REACTORS
330
C
102
}
330
C
100
AcDbDictionary
281
     1
  3
Normal
350
F
100
AcDbDictionaryWithDefault
340
F
  0
DICTIONARY
  5
42
102
{ACAD_REACTORS
330
C
102
}
330
C
100
AcDbDictionary
281
     1
  3
A0
350
43
  3
A1
350
44
  3
A2
350
45
  3
A3
350
46
  3
A4
350
47
  3
A5
350
48
  3
A6
350
49
  3
A7
350
4A
  3
A8
350
4B
  3
A9
350
4C
  3
B0
350
4D
  3
B1
350
4E
  3
B2
350
4F
  3
B3
350
50
  3
B4
350
51
  3
B5
350
52
  3
B6
350
53
  0
DICTIONARY
  5
68
102
{ACAD_REACTORS
330
C
102
}
330
C
100
AcDbDictionary
281
     1
  3
Imperial24
350
69
  0
DICTIONARY
  5
64
102
{ACAD_REACTORS
330
C
102
}
330
C
100
AcDbDictionary
281
     1
  3
Standard
350
65
  0
DICTIONARY
  5
29
102
{ACAD_REACTORS
330
C
102
}
330
C
100
AcDbDictionary
281
     1
  3
2dWireframe
350
2F
  3
Basic
350
2E
  3
Brighten
350
35
  3
ColorChange
350
39
  3
Conceptual
350
32
  3
Dim
350
34
  3
EdgeColorOff
350
41
  3
Facepattern
350
38
  3
Flat
350
2A
  3
FlatWithEdges
350
2B
  3
Gouraud
350
2C
  3
GouraudWithEdges
350
2D
  3
Hidden
350
31
  3
JitterOff
350
3F
  3
Linepattern
350
37
  3
OverhangOff
350
40
  3
Realistic
350
33
  3
Shaded
350
3E
  3
Shaded with edges
350
3D
  3
Shades of Gray
350
3A
  3
Sketchy
350
3B
  3
Thicken
350
36
  3
Wireframe
350
30
  3
X-Ray
350
3C
  0
XRECORD
  5
9F
102
{ACAD_REACTORS
330
C
102
}
330
C
100
AcDbXrecord
280
     1
 90
        1
330
65
  0
DICTIONARY
  5
97
102
{ACAD_REACTORS
330
C
102
}
330
C
100
AcDbDictionary
281
     1
  3
CANNOSCALE
350
9C
  3
CMLEADERSTYLE
350
99
  3
CTABLESTYLE
350
98
  3
CVIEWDETAILSTYLE
350
9A
  3
CVIEWSECTIONSTYLE
350
9B
  0
ACDBDETAILVIEWSTYLE
  5
6B
102
{ACAD_XDICTIONARY
360
A2
102
}
102
{ACAD_REACTORS
330
6A
102
}
330
6A
100
AcDbModelDocViewStyle
 70
     0
  3
Imperial24
290
     0
100
AcDbDetailViewStyle
 70
     0
 71
     0
 90
        3
 71
     1
340
55
 62
   256
 40
0.24
340
0
 62
   256
 40
0.24
300

 40
0.36
280
     3
 71
     2
340
5D
 90
       25
 62
   256
 71
     3
340
55
 62
   256
 40
0.24
 90
        1
 40
0.75
 90
        1
300
%<\AcVar ViewType \f "%tc1">% %<\AcVar ViewDetailId>%\PSCALE %<\AcVar ViewScale \f "%sn">%
 71
     4
340
5D
 90
       25
 62
   256
340
5D
 90
       25
 62
   256
280
     0
  0
LAYOUT
  5
6F
102
{ACAD_REACTORS
330
62
102
}
330
62
100
AcDbPlotSettings
  1

  2

  4

  6

 40
0.0
 41
0.0
 42
0.0
 43
0.0
 44
0.0
 45
0.0
 46
0.0
 47
0.0
 48
0.0
 49
0.0
140
0.0
141
0.0
142
1.0
143
1.0
 70
   688
 72
     0
 73
     0
 74
     5
  7

 75
    16
147
1.0
 76
     0
 77
     2
 78
   300
148
0.0
149
0.0
100
AcDbLayout
  1
Layout1
 70
     1
 71
     1
 10
0.0
 20
0.0
 11
12.0
 21
9.0
 12
0.0
 22
0.0
 32
0.0
 14
0.0
 24
0.0
 34
0.0
 15
0.0
 25
0.0
 35
0.0
146
0.0
 13
0.0
 23
0.0
 33
0.0
 16
1.0
 26
0.0
 36
0.0
 17
0.0
 27
1.0
 37
0.0
 76
     0
330
6C
  0
LAYOUT
  5
77
102
{ACAD_REACTORS
330
62
102
}
330
62
100
AcDbPlotSettings
  1

  2

  4

  6

 40
0.0
 41
0.0
 42
0.0
 43
0.0
 44
0.0
 45
0.0
 46
0.0
 47
0.0
 48
0.0
 49
0.0
140
0.0
141
0.0
142
1.0
143
1.0
 70
   688
 72
     0
 73
     0
 74
     5
  7

 75
    16
147
1.0
 76
     0
 77
     2
 78
   300
148
0.0
149
0.0
100
AcDbLayout
  1
Layout2
 70
     1
 71
     2
 10
0.0
 20
0.0
 11
12.0
 21
9.0
 12
0.0
 22
0.0
 32
0.0
 14
0.0
 24
0.0
 34
0.0
 15
0.0
 25
0.0
 35
0.0
146
0.0
 13
0.0
 23
0.0
 33
0.0
 16
1.0
 26
0.0
 36
0.0
 17
0.0
 27
1.0
 37
0.0
 76
     0
330
74
  0
LAYOUT
  5
73
102
{ACAD_REACTORS
330
62
102
}
330
62
100
AcDbPlotSettings
  1

  2

  4

  6

 40
0.0
 41
0.0
 42
0.0
 43
0.0
 44
0.0
 45
0.0
 46
0.0
 47
0.0
 48
0.0
 49
0.0
140
0.0
141
0.0
142
1.0
143
1.0
 70
  1712
 72
     0
 73
     0
 74
     0
  7

 75
     0
147
1.0
 76
     0
 77
     2
 78
   300
148
0.0
149
0.0
100
AcDbLayout
  1
Model
 70
     1
 71
     0
 10
0.0
 20
0.0
 11
12.0
 21
9.0
 12
0.0
 22
0.0
 32
0.0
 14
0.0
 24
0.0
 34
0.0
 15
0.0
 25
0.0
 35
0.0
146
0.0
 13
0.0
 23
0.0
 33
0.0
 16
1.0
 26
0.0
 36
0.0
 17
0.0
 27
1.0
 37
0.0
 76
     0
330
70
  0
MATERIAL
  5
19
102
{ACAD_XDICTIONARY
360
1A
102
}
102
{ACAD_REACTORS
330
10
102
}
330
10
100
AcDbMaterial
  1
ByBlock
 72
     0
 43
0.0208333333333333
 43
0.0
 43
0.0
 43
0.0
 43
0.0
 43
0.0208333333333333
 43
0.0
 43
0.0
 43
0.0
 43
0.0
 43
1.0
 43
0.0
 43
0.0
 43
0.0
 43
0.0
 43
1.0
 77
     0
 47
0.0208333333333333
 47
0.0
 47
0.0
 47
0.0
 47
0.0
 47
0.0208333333333333
 47
0.0
 47
0.0
 47
0.0
 47
0.0
 47
1.0
 47
0.0
 47
0.0
 47
0.0
 47
0.0
 47
1.0
171
     0
 49
0.0208333333333333
 49
0.0
 49
0.0
 49
0.0
 49
0.0
 49
0.0208333333333333
 49
0.0
 49
0.0
 49
0.0
 49
0.0
 49
1.0
 49
0.0
 49
0.0
 49
0.0
 49
0.0
 49
1.0
175
     0
142
0.0208333333333333
142
0.0
142
0.0
142
0.0
142
0.0
142
0.0208333333333333
142
0.0
142
0.0
142
0.0
142
0.0
142
1.0
142
0.0
142
0.0
142
0.0
142
0.0
142
1.0
179
     0
144
0.0208333333333333
144
0.0
144
0.0
144
0.0
144
0.0
144
0.0208333333333333
144
0.0
144
0.0
144
0.0
144
0.0
144
1.0
144
0.0
144
0.0
144
0.0
144
0.0
144
1.0
147
0.0208333333333333
147
0.0
147
0.0
147
0.0
147
0.0
147
0.0208333333333333
147
0.0
147
0.0
147
0.0
147
0.0
147
1.0
147
0.0
147
0.0
147
0.0
147
0.0
147
1.0
  0
MATERIAL
  5
11
102
{ACAD_XDICTIONARY
360
12
102
}
102
{ACAD_REACTORS
330
10
102
}
330
10
100
AcDbMaterial
  1
ByLayer
 72
     0
 43
0.0208333333333333
 43
0.0
 43
0.0
 43
0.0
 43
0.0
 43
0.0208333333333333
 43
0.0
 43
0.0
 43
0.0
 43
0.0
 43
1.0
 43
0.0
 43
0.0
 43
0.0
 43
0.0
 43
1.0
 77
     0
 47
0.0208333333333333
 47
0.0
 47
0.0
 47
0.0
 47
0.0
 47
0.0208333333333333
 47
0.0
 47
0.0
 47
0.0
 47
0.0
 47
1.0
 47
0.0
 47
0.0
 47
0.0
 47
0.0
 47
1.0
171
     0
 49
0.0208333333333333
 49
0.0
 49
0.0
 49
0.0
 49
0.0
 49
0.0208333333333333
 49
0.0
 49
0.0
 49
0.0
 49
0.0
 49
1.0
 49
0.0
 49
0.0
 49
0.0
 49
0.0
 49
1.0
175
     0
142
0.0208333333333333
142
0.0
142
0.0
142
0.0
142
0.0
142
0.0208333333333333
142
0.0
142
0.0
142
0.0
142
0.0
142
1.0
142
0.0
142
0.0
142
0.0
142
0.0
142
1.0
179
     0
144
0.0208333333333333
144
0.0
144
0.0
144
0.0
144
0.0
144
0.0208333333333333
144
0.0
144
0.0
144
0.0
144
0.0
144
1.0
144
0.0
144
0.0
144
0.0
144
0.0
144
1.0
147
0.0208333333333333
147
0.0
147
0.0
147
0.0
147
0.0
147
0.0208333333333333
147
0.0
147
0.0
147
0.0
147
0.0
147
1.0
147
0.0
147
0.0
147
0.0
147
0.0
147
1.0
  0
MATERIAL
  5
21
102
{ACAD_XDICTIONARY
360
22
102
}
102
{ACAD_REACTORS
330
10
102
}
330
10
100
AcDbMaterial
  1
Global
 72
     0
 43
0.0208333333333333
 43
0.0
 43
0.0
 43
0.0
 43
0.0
 43
0.0208333333333333
 43
0.0
 43
0.0
 43
0.0
 43
0.0
 43
1.0
 43
0.0
 43
0.0
 43
0.0
 43
0.0
 43
1.0
 77
     0
 47
0.0208333333333333
 47
0.0
 47
0.0
 47
0.0
 47
0.0
 47
0.0208333333333333
 47
0.0
 47
0.0
 47
0.0
 47
0.0
 47
1.0
 47
0.0
 47
0.0
 47
0.0
 47
0.0
 47
1.0
171
     0
 49
0.0208333333333333
 49
0.0
 49
0.0
 49
0.0
 49
0.0
 49
0.0208333333333333
 49
0.0
 49
0.0
 49
0.0
 49
0.0
 49
1.0
 49
0.0
 49
0.0
 49
0.0
 49
0.0
 49
1.0
175
     0
142
0.0208333333333333
142
0.0
142
0.0
142
0.0
142
0.0
142
0.0208333333333333
142
0.0
142
0.0
142
0.0
142
0.0
142
1.0
142
0.0
142
0.0
142
0.0
142
0.0
142
1.0
179
     0
144
0.0208333333333333
144
0.0
144
0.0
144
0.0
144
0.0
144
0.0208333333333333
144
0.0
144
0.0
144
0.0
144
0.0
144
1.0
144
0.0
144
0.0
144
0.0
144
0.0
144
1.0
147
0.0208333333333333
147
0.0
147
0.0
147
0.0
147
0.0
147
0.0208333333333333
147
0.0
147
0.0
147
0.0
147
0.0
147
1.0
147
0.0
147
0.0
147
0.0
147
0.0
147
1.0
  0
MLEADERSTYLE
  5
67
102
{ACAD_REACTORS
330
66
102
}
330
66
100
AcDbMLeaderStyle
179
     2
170
     2
171
     1
172
     0
 90
        2
 40
0.0
 41
0.0
173
     1
 91
-1056964608
340
5B
 92
       -2
290
     1
 42
0.09
291
     1
 43
0.36
  3
Standard
 44
0.18
300

342
55
174
     1
178
     6
175
     1
176
     0
 93
-1056964608
 45
0.18
292
     0
297
     0
 46
0.18
 94
-1056964608
 47
1.0
 49
1.0
140
1.0
293
     1
141
0.0
294
     1
177
     0
142
1.0
295
     0
296
     0
143
0.125
271
     0
272
     9
273
     9
298
     1
  0
MLINESTYLE
  5
60
102
{ACAD_REACTORS
330
5F
102
}
330
5F
100
AcDbMlineStyle
  2
STANDARD
 70
     0
  3

 62
   256
 51
90.0
 52
90.0
 71
     2
 49
0.5
 62
   256
  6
BYLAYER
 49
-0.5
 62
   256
  6
BYLAYER
  0
ACDBPLACEHOLDER
  5
F
102
{ACAD_REACTORS
330
E
102
}
330
E
  0
SCALE
  5
43
102
{ACAD_REACTORS
330
42
102
}
330
42
100
AcDbScale
 70
     0
300
1:1
140
1.0
141
1.0
290
     1
  0
SCALE
  5
44
102
{ACAD_REACTORS
330
42
102
}
330
42
100
AcDbScale
 70
     0
300
1/128" = 1'-0"
140
0.0078125
141
12.0
290
     0
  0
SCALE
  5
45
102
{ACAD_REACTORS
330
42
102
}
330
42
100
AcDbScale
 70
     0
300
1/64" = 1'-0"
140
0.015625
141
12.0
290
     0
  0
SCALE
  5
46
102
{ACAD_REACTORS
330
42
102
}
330
42
100
AcDbScale
 70
     0
300
1/32" = 1'-0"
140
0.03125
141
12.0
290
     0
  0
SCALE
  5
47
102
{ACAD_REACTORS
330
42
102
}
330
42
100
AcDbScale
 70
     0
300
1/16" = 1'-0"
140
0.0625
141
12.0
290
     0
  0
SCALE
  5
48
102
{ACAD_REACTORS
330
42
102
}
330
42
100
AcDbScale
 70
     0
300
3/32" = 1'-0"
140
0.09375
141
12.0
290
     0
  0
SCALE
  5
49
102
{ACAD_REACTORS
330
42
102
}
330
42
100
AcDbScale
 70
     0
300
1/8" = 1'-0"
140
0.125
141
12.0
290
     0
  0
SCALE
  5
4A
102
{ACAD_REACTORS
330
42
102
}
330
42
100
AcDbScale
 70
     0
300
3/16" = 1'-0"
140
0.1875
141
12.0
290
     0
  0
SCALE
  5
4B
102
{ACAD_REACTORS
330
42
102
}
330
42
100
AcDbScale
 70
     0
300
1/4" = 1'-0"
140
0.25
141
12.0
290
     0
  0
SCALE
  5
4C
102
{ACAD_REACTORS
330
42
102
}
330
42
100
AcDbScale
 70
     0
300
3/8" = 1'-0"
140
0.375
141
12.0
290
     0
  0
SCALE
  5
4D
102
{ACAD_REACTORS
330
42
102
}
330
42
100
AcDbScale
 70
     0
300
1/2" = 1'-0"
140
0.5
141
12.0
290
     0
  0
SCALE
  5
4E
102
{ACAD_REACTORS
330
42
102
}
330
42
100
AcDbScale
 70
     0
300
3/4" = 1'-0"
140
0.75
141
12.0
290
     0
  0
SCALE
  5
4F
102
{ACAD_REACTORS
330
42
102
}
330
42
100
AcDbScale
 70
     0
300
1" = 1'-0"
140
1.0
141
12.0
290
     0
  0
SCALE
  5
50
102
{ACAD_REACTORS
330
42
102
}
330
42
100
AcDbScale
 70
     0
300
1-1/2" = 1'-0"
140
1.5
141
12.0
290
     0
  0
SCALE
  5
51
102
{ACAD_REACTORS
330
42
102
}
330
42
100
AcDbScale
 70
     0
300
3" = 1'-0"
140
3.0
141
12.0
290
     0
  0
SCALE
  5
52
102
{ACAD_REACTORS
330
42
102
}
330
42
100
AcDbScale
 70
     0
300
6" = 1'-0"
140
6.0
141
12.0
290
     0
  0
SCALE
  5
53
102
{ACAD_REACTORS
330
42
102
}
330
42
100
AcDbScale
 70
     0
300
1'-0" = 1'-0"
140
12.0
141
12.0
290
     0
  0
ACDBSECTIONVIEWSTYLE
  5
69
102
{ACAD_XDICTIONARY
360
A0
102
}
102
{ACAD_REACTORS
330
68
102
}
330
68
100
AcDbModelDocViewStyle
 70
     0
  3
Imperial24
290
     0
100
AcDbSectionViewStyle
 70
     0
 71
     0
 90
       78
 71
     1
340
55
 62
   256
 40
0.24
340
0
340
0
 62
   256
 40
0.24
300
I, O, Q, S, X, Z
 40
0.48
 90
        3
 40
0.18
 90
        1
 71
     2
340
5D
 90
       25
 62
   256
340
5D
 90
       50
 62
   256
 40
0.24
 40
0.0
 40
0.24
 71
     3
340
55
 62
   256
 40
0.24
 90
        1
 40
0.75
 90
        1
300
%<\AcVar ViewType \f "%tc1">% %<\AcVar ViewSectionStartId>%-%<\AcVar ViewSectionEndId>%\PSCALE %<\AcVar ViewScale \f "%sn">%
 71
     4
 62
   256
 62
   257
300
ANSI31
 40
1.0
 90
        0
290
     0
290
     0
 90
        6
 40
0.0
 40
1.570796326794896
 40
0.2617993877991494
 40
1.308996938995747
 40
-0.2617993877991494
 40
1.832595714594046
  0
TABLESTYLE
  5
65
102
{ACAD_XDICTIONARY
360
9D
102
}
102
{ACAD_REACTORS
330
64
102
}
330
64
100
AcDbTableStyle
280
     0
  3
Standard
 70
     0
 71
     0
 40
0.06
 41
0.06
280
     0
281
     0
  7
Standard
140
0.18
170
     2
 62
     0
 63
     7
283
     0
 90
      512
 91
        0
  1

274
    -2
284
     1
 64
     0
275
    -2
285
     1
 65
     0
276
    -2
286
     1
 66
     0
277
    -2
287
     1
 67
     0
278
    -2
288
     1
 68
     0
279
    -2
289
     1
 69
     0
  7
Standard
140
0.25
170
     5
 62
     0
 63
     7
283
     0
 90
      512
 91
        0
  1

274
    -2
284
     1
 64
     0
275
    -2
285
     1
 65
     0
276
    -2
286
     1
 66
     0
277
    -2
287
     1
 67
     0
278
    -2
288
     1
 68
     0
279
    -2
289
     1
 69
     0
  7
Standard
140
0.18
170
     5
 62
     0
 63
     7
283
     0
 90
      512
 91
        0
  1

274
    -2
284
     1
 64
     0
275
    -2
285
     1
 65
     0
276
    -2
286
     1
 66
     0
277
    -2
287
     1
 67
     0
278
    -2
288
     1
 68
     0
279
    -2
289
     1
 69
     0
  0
VISUALSTYLE
  5
2F
102
{ACAD_REACTORS
330
29
102
}
330
29
100
AcDbVisualStyle
  2
2dWireframe
 70
     4
177
     3
291
     0
 70
    58
 90
        0
176
     1
 90
        2
176
     1
 90
        0
176
     1
 90
        0
176
     1
 40
0.6
176
     1
 40
30.0
176
     1
 62
     7
420
 16777215
176
     1
 90
        1
176
     1
 90
        4
176
     1
 62
     7
176
     1
 62
   257
176
     1
 90
        1
176
     1
 90
        1
176
     1
 40
1.0
176
     1
 90
        0
176
     1
 62
   257
176
     1
 40
1.0
176
     1
 90
        1
176
     1
 90
        6
176
     1
 90
        2
176
     1
 62
     7
176
     1
 90
        5
176
     1
 90
        0
176
     1
 90
        0
176
     1
290
     0
176
     1
 90
        1
176
     1
 40
0.0
176
     1
 90
        0
176
     1
290
     1
176
     1
290
     1
176
     1
290
     0
176
     1
290
     0
176
     1
290
     0
176
     1
290
     0
176
     1
290
     0
176
     1
290
     0
176
     1
290
     0
176
     1
 90
       50
176
     1
 40
0.0
176
     1
 40
1.0
176
     1
 90
        0
176
     1
 62
    18
420
        0
176
     1
 90
       50
176
     1
 90
        3
176
     1
 62
     5
420
      255
176
     1
290
     0
176
     1
 90
       50
176
     1
 90
       50
176
     1
 90
       50
176
     1
290
     0
176
     1
 90
       50
176
     1
 62
   256
176
     0
 40
1.0
176
     0
 90
        2
176
     1
  1
strokes_ogs.tif
176
     1
290
     0
176
     1
 40
1.0
176
     1
 40
1.0
176
     1
1001
ACAD
1000
AcDbSavedByObjectVersion
1070
     0
  0
VISUALSTYLE
  5
2E
102
{ACAD_REACTORS
330
29
102
}
330
29
100
AcDbVisualStyle
  2
Basic
 70
     7
177
     3
291
     1
 70
    58
 90
        1
176
     1
 90
        0
176
     1
 90
        1
176
     1
 90
        0
176
     1
 40
0.6
176
     1
 40
30.0
176
     1
 62
     7
420
 16777215
176
     1
 90
        0
176
     1
 90
        4
176
     1
 62
     7
176
     1
 62
   257
176
     1
 90
        1
176
     1
 90
        1
176
     1
 40
1.0
176
     1
 90
        8
176
     1
 62
     7
176
     1
 40
1.0
176
     1
 90
        1
176
     1
 90
        6
176
     1
 90
        2
176
     1
 62
     7
176
     1
 90
        5
176
     1
 90
        0
176
     1
 90
        0
176
     1
290
     0
176
     1
 90
        1
176
     1
 40
0.0
176
     1
 90
        0
176
     1
290
     0
176
     1
290
     1
176
     1
290
     1
176
     1
290
     0
176
     1
290
     0
176
     1
290
     0
176
     1
290
     0
176
     1
290
     0
176
     1
290
     0
176
     1
 90
       50
176
     1
 40
0.0
176
     1
 40
1.0
176
     1
 90
        0
176
     1
 62
    18
420
        0
176
     1
 90
       50
176
     1
 90
        3
176
     1
 62
     5
420
      255
176
     1
290
     0
176
     1
 90
       50
176
     1
 90
       50
176
     1
 90
       50
176
     1
290
     0
176
     1
 90
       50
176
     1
 62
   256
176
     0
 40
1.0
176
     0
 90
        2
176
     1
  1
strokes_ogs.tif
176
     1
290
     0
176
     1
 40
1.0
176
     1
 40
1.0
176
     1
1001
ACAD
1000
AcDbSavedByObjectVersion
1070
     0
  0
VISUALSTYLE
  5
35
102
{ACAD_REACTORS
330
29
102
}
330
29
100
AcDbVisualStyle
  2
Brighten
 70
    12
177
     3
291
     1
 70
    58
 90
        2
176
     1
 90
        2
176
     1
 90
        0
176
     1
 90
        0
176
     1
 40
0.6
176
     1
 40
30.0
176
     1
 62
     7
420
 16777215
176
     1
 90
        1
176
     1
 90
        4
176
     1
 62
     7
176
     1
 62
   257
176
     1
 90
        1
176
     1
 90
        1
176
     1
 40
1.0
176
     1
 90
        8
176
     1
 62
     7
176
     1
 40
1.0
176
     1
 90
        1
176
     1
 90
        6
176
     1
 90
        2
176
     1
 62
     7
176
     1
 90
        5
176
     1
 90
        0
176
     1
 90
        0
176
     1
290
     0
176
     1
 90
        1
176
     1
 40
50.0
176
     1
 90
        0
176
     1
290
     0
176
     1
290
     1
176
     1
290
     1
176
     1
290
     0
176
     1
290
     0
176
     1
290
     0
176
     1
290
     0
176
     1
290
     0
176
     1
290
     0
176
     1
 90
       50
176
     1
 40
0.0
176
     1
 40
1.0
176
     1
 90
        0
176
     1
 62
    18
420
        0
176
     1
 90
       50
176
     1
 90
        3
176
     1
 62
     5
420
      255
176
     1
290
     0
176
     1
 90
       50
176
     1
 90
       50
176
     1
 90
       50
176
     1
290
     0
176
     1
 90
       50
176
     1
 62
   256
176
     0
 40
1.0
176
     0
 90
        2
176
     1
  1
strokes_ogs.tif
176
     1
290
     0
176
     1
 40
1.0
176
     1
 40
1.0
176
     1
1001
ACAD
1000
AcDbSavedByObjectVersion
1070
     0
  0
VISUALSTYLE
  5
39
102
{ACAD_REACTORS
330
29
102
}
330
29
100
AcDbVisualStyle
  2
ColorChange
 70
    16
177
     3
291
     1
 70
    58
 90
        2
176
     1
 90
        2
176
     1
 90
        3
176
     1
 90
        0
176
     1
 40
0.6
176
     1
 40
30.0
176
     1
 62
     8
420
  8421504
176
     1
 90
        1
176
     1
 90
        4
176
     1
 62
     7
176
     1
 62
   257
176
     1
 90
        1
176
     1
 90
        1
176
     1
 40
1.0
176
     1
 90
        8
176
     1
 62
     8
420
  8421504
176
     1
 40
1.0
176
     1
 90
        1
176
     1
 90
        6
176
     1
 90
        2
176
     1
 62
     7
176
     1
 90
        5
176
     1
 90
        0
176
     1
 90
        0
176
     1
290
     0
176
     1
 90
        1
176
     1
 40
0.0
176
     1
 90
        0
176
     1
290
     0
176
     1
290
     1
176
     1
290
     1
176
     1
290
     0
176
     1
290
     0
176
     1
290
     0
176
     1
290
     0
176
     1
290
     0
176
     1
290
     0
176
     1
 90
       50
176
     1
 40
0.0
176
     1
 40
1.0
176
     1
 90
        0
176
     1
 62
    18
420
        0
176
     1
 90
       50
176
     1
 90
        3
176
     1
 62
     5
420
      255
176
     1
290
     0
176
     1
 90
       50
176
     1
 90
       50
176
     1
 90
       50
176
     1
290
     0
176
     1
 90
       50
176
     1
 62
   256
176
     0
 40
1.0
176
     0
 90
        2
176
     1
  1
strokes_ogs.tif
176
     1
290
     0
176
     1
 40
1.0
176
     1
 40
1.0
176
     1
1001
ACAD
1000
AcDbSavedByObjectVersion
1070
     0
  0
VISUALSTYLE
  5
32
102
{ACAD_REACTORS
330
29
102
}
330
29
100
AcDbVisualStyle
  2
Conceptual
 70
     9
177
     3
291
     0
 70
    58
 90
        3
176
     1
 90
        2
176
     1
 90
        0
176
     1
 90
        0
176
     1
 40
0.6
176
     1
 40
30.0
176
     1
 62
     7
420
 16777215
176
     1
 90
        2
176
     1
 90
        2
176
     1
 62
     7
176
     1
 62
   257
176
     1
 90
        1
176
     1
 90
        1
176
     1
 40
179.0
176
     1
 90
        8
176
     1
 62
     7
176
     1
 40
1.0
176
     1
 90
        1
176
     1
 90
        6
176
     1
 90
        2
176
     1
 62
     7
176
     1
 90
        3
176
     1
 90
        0
176
     1
 90
        0
176
     1
290
     0
176
     1
 90
        1
176
     1
 40
0.0
176
     1
 90
        0
176
     1
290
     0
176
     1
290
     1
176
     1
290
     1
176
     1
290
     0
176
     1
290
     0
176
     1
290
     0
176
     1
290
     0
176
     1
290
     0
176
     1
290
     0
176
     1
 90
       50
176
     1
 40
0.0
176
     1
 40
1.0
176
     1
 90
        0
176
     1
 62
    18
420
        0
176
     1
 90
       50
176
     1
 90
        3
176
     1
 62
     5
420
      255
176
     1
290
     0
176
     1
 90
       50
176
     1
 90
       50
176
     1
 90
       50
176
     1
290
     0
176
     1
 90
       50
176
     1
 62
   256
176
     0
 40
1.0
176
     0
 90
        2
176
     1
  1
strokes_ogs.tif
176
     1
290
     0
176
     1
 40
1.0
176
     1
 40
1.0
176
     1
1001
ACAD
1000
AcDbSavedByObjectVersion
1070
     0
  0
VISUALSTYLE
  5
34
102
{ACAD_REACTORS
330
29
102
}
330
29
100
AcDbVisualStyle
  2
Dim
 70
    11
177
     3
291
     1
 70
    58
 90
        2
176
     1
 90
        2
176
     1
 90
        0
176
     1
 90
        0
176
     1
 40
0.6
176
     1
 40
30.0
176
     1
 62
     7
420
 16777215
176
     1
 90
        1
176
     1
 90
        4
176
     1
 62
     7
176
     1
 62
   257
176
     1
 90
        1
176
     1
 90
        1
176
     1
 40
1.0
176
     1
 90
        8
176
     1
 62
     7
176
     1
 40
1.0
176
     1
 90
        1
176
     1
 90
        6
176
     1
 90
        2
176
     1
 62
     7
176
     1
 90
        5
176
     1
 90
        0
176
     1
 90
        0
176
     1
290
     0
176
     1
 90
        1
176
     1
 40
-50.0
176
     1
 90
        0
176
     1
290
     0
176
     1
290
     1
176
     1
290
     1
176
     1
290
     0
176
     1
290
     0
176
     1
290
     0
176
     1
290
     0
176
     1
290
     0
176
     1
290
     0
176
     1
 90
       50
176
     1
 40
0.0
176
     1
 40
1.0
176
     1
 90
        0
176
     1
 62
    18
420
        0
176
     1
 90
       50
176
     1
 90
        3
176
     1
 62
     5
420
      255
176
     1
290
     0
176
     1
 90
       50
176
     1
 90
       50
176
     1
 90
       50
176
     1
290
     0
176
     1
 90
       50
176
     1
 62
   256
176
     0
 40
1.0
176
     0
 90
        2
176
     1
  1
strokes_ogs.tif
176
     1
290
     0
176
     1
 40
1.0
176
     1
 40
1.0
176
     1
1001
ACAD
1000
AcDbSavedByObjectVersion
1070
     0
  0
VISUALSTYLE
  5
41
102
{ACAD_REACTORS
330
29
102
}
330
29
100
AcDbVisualStyle
  2
EdgeColorOff
 70
    22
177
     3
291
     1
 70
    58
 90
        2
176
     0
 90
        2
176
     0
 90
        0
176
     0
 90
        0
176
     0
 40
0.6
176
     0
 40
30.0
176
     0
 62
     7
420
 16777215
176
     0
 90
        1
176
     0
 90
        4
176
     0
 62
     7
176
     0
 62
   257
176
     0
 90
        1
176
     0
 90
        1
176
     0
 40
1.0
176
     0
 90
        8
176
     2
 62
     7
176
     0
 40
1.0
176
     0
 90
        1
176
     0
 90
        6
176
     0
 90
        2
176
     0
 62
     7
176
     0
 90
        5
176
     0
 90
        0
176
     0
 90
        0
176
     0
290
     0
176
     0
 90
        1
176
     0
 40
0.0
176
     0
 90
        0
176
     0
290
     0
176
     0
290
     1
176
     0
290
     1
176
     0
290
     0
176
     0
290
     0
176
     0
290
     0
176
     0
290
     0
176
     0
290
     0
176
     0
290
     0
176
     0
 90
       50
176
     0
 40
0.0
176
     0
 40
1.0
176
     0
 90
        0
176
     0
 62
    18
420
        0
176
     0
 90
       50
176
     0
 90
        3
176
     0
 62
     5
420
      255
176
     0
290
     0
176
     0
 90
       50
176
     0
 90
       50
176
     0
 90
       50
176
     0
290
     0
176
     0
 90
       50
176
     0
 62
   256
176
     0
 40
1.0
176
     0
 90
        2
176
     0
  1
strokes_ogs.tif
176
     0
290
     0
176
     0
 40
1.0
176
     0
 40
1.0
176
     0
1001
ACAD
1000
AcDbSavedByObjectVersion
1070
     0
  0
VISUALSTYLE
  5
38
102
{ACAD_REACTORS
330
29
102
}
330
29
100
AcDbVisualStyle
  2
Facepattern
 70
    15
177
     3
291
     1
 70
    58
 90
        2
176
     1
 90
        2
176
     1
 90
        0
176
     1
 90
        0
176
     1
 40
0.6
176
     1
 40
30.0
176
     1
 62
     7
420
 16777215
176
     1
 90
        1
176
     1
 90
        4
176
     1
 62
     7
176
     1
 62
   257
176
     1
 90
        1
176
     1
 90
        1
176
     1
 40
1.0
176
     1
 90
        8
176
     1
 62
     7
176
     1
 40
1.0
176
     1
 90
        1
176
     1
 90
        6
176
     1
 90
        2
176
     1
 62
     7
176
     1
 90
        5
176
     1
 90
        0
176
     1
 90
        0
176
     1
290
     0
176
     1
 90
        1
176
     1
 40
0.0
176
     1
 90
        0
176
     1
290
     0
176
     1
290
     1
176
     1
290
     1
176
     1
290
     0
176
     1
290
     0
176
     1
290
     0
176
     1
290
     0
176
     1
290
     0
176
     1
290
     0
176
     1
 90
       50
176
     1
 40
0.0
176
     1
 40
1.0
176
     1
 90
        0
176
     1
 62
    18
420
        0
176
     1
 90
       50
176
     1
 90
        3
176
     1
 62
     5
420
      255
176
     1
290
     0
176
     1
 90
       50
176
     1
 90
       50
176
     1
 90
       50
176
     1
290
     0
176
     1
 90
       50
176
     1
 62
   256
176
     0
 40
1.0
176
     0
 90
        2
176
     1
  1
strokes_ogs.tif
176
     1
290
     0
176
     1
 40
1.0
176
     1
 40
1.0
176
     1
1001
ACAD
1000
AcDbSavedByObjectVersion
1070
     0
  0
VISUALSTYLE
  5
2A
102
{ACAD_REACTORS
330
29
102
}
330
29
100
AcDbVisualStyle
  2
Flat
 70
     0
177
     3
291
     1
 70
    58
 90
        2
176
     1
 90
        1
176
     1
 90
        1
176
     1
 90
        2
176
     1
 40
0.6
176
     1
 40
30.0
176
     1
 62
     7
420
 16777215
176
     1
 90
        0
176
     1
 90
        0
176
     1
 62
     7
176
     1
 62
   257
176
     1
 90
        1
176
     1
 90
        1
176
     1
 40
1.0
176
     1
 90
        8
176
     1
 62
     7
176
     1
 40
1.0
176
     1
 90
        1
176
     1
 90
        6
176
     1
 90
        2
176
     1
 62
     7
176
     1
 90
        5
176
     1
 90
        0
176
     1
 90
        0
176
     1
290
     0
176
     1
 90
       13
176
     1
 40
0.0
176
     1
 90
        0
176
     1
290
     0
176
     1
290
     1
176
     1
290
     1
176
     1
290
     0
176
     1
290
     0
176
     1
290
     0
176
     1
290
     0
176
     1
290
     0
176
     1
290
     0
176
     1
 90
       50
176
     1
 40
0.0
176
     1
 40
1.0
176
     1
 90
        0
176
     1
 62
    18
420
        0
176
     1
 90
       50
176
     1
 90
        3
176
     1
 62
     5
420
      255
176
     1
290
     0
176
     1
 90
       50
176
     1
 90
       50
176
     1
 90
       50
176
     1
290
     0
176
     1
 90
       50
176
     1
 62
   256
176
     0
 40
1.0
176
     0
 90
        2
176
     1
  1
strokes_ogs.tif
176
     1
290
     0
176
     1
 40
1.0
176
     1
 40
1.0
176
     1
1001
ACAD
1000
AcDbSavedByObjectVersion
1070
     0
  0
VISUALSTYLE
  5
2B
102
{ACAD_REACTORS
330
29
102
}
330
29
100
AcDbVisualStyle
  2
FlatWithEdges
 70
     1
177
     3
291
     1
 70
    58
 90
        2
176
     1
 90
        1
176
     1
 90
        1
176
     1
 90
        2
176
     1
 40
0.6
176
     1
 40
30.0
176
     1
 62
     7
420
 16777215
176
     1
 90
        1
176
     1
 90
        0
176
     1
 62
     7
176
     1
 62
   257
176
     1
 90
        1
176
     1
 90
        1
176
     1
 40
1.0
176
     1
 90
        0
176
     1
 62
   257
176
     1
 40
1.0
176
     1
 90
        1
176
     1
 90
        6
176
     1
 90
        2
176
     1
 62
     7
176
     1
 90
        5
176
     1
 90
        0
176
     1
 90
        0
176
     1
290
     0
176
     1
 90
       13
176
     1
 40
0.0
176
     1
 90
        0
176
     1
290
     0
176
     1
290
     1
176
     1
290
     1
176
     1
290
     0
176
     1
290
     0
176
     1
290
     0
176
     1
290
     0
176
     1
290
     0
176
     1
290
     0
176
     1
 90
       50
176
     1
 40
0.0
176
     1
 40
1.0
176
     1
 90
        0
176
     1
 62
    18
420
        0
176
     1
 90
       50
176
     1
 90
        3
176
     1
 62
     5
420
      255
176
     1
290
     0
176
     1
 90
       50
176
     1
 90
       50
176
     1
 90
       50
176
     1
290
     0
176
     1
 90
       50
176
     1
 62
   256
176
     0
 40
1.0
176
     0
 90
        2
176
     1
  1
strokes_ogs.tif
176
     1
290
     0
176
     1
 40
1.0
176
     1
 40
1.0
176
     1
1001
ACAD
1000
AcDbSavedByObjectVersion
1070
     0
  0
VISUALSTYLE
  5
2C
102
{ACAD_REACTORS
330
29
102
}
330
29
100
AcDbVisualStyle
  2
Gouraud
 70
     2
177
     3
291
     1
 70
    58
 90
        2
176
     1
 90
        2
176
     1
 90
        1
176
     1
 90
        2
176
     1
 40
0.6
176
     1
 40
30.0
176
     1
 62
     7
420
 16777215
176
     1
 90
        0
176
     1
 90
        0
176
     1
 62
     7
176
     1
 62
   257
176
     1
 90
        1
176
     1
 90
        1
176
     1
 40
1.0
176
     1
 90
        0
176
     1
 62
     7
176
     1
 40
1.0
176
     1
 90
        1
176
     1
 90
        6
176
     1
 90
        2
176
     1
 62
     7
176
     1
 90
        5
176
     1
 90
        0
176
     1
 90
        0
176
     1
290
     0
176
     1
 90
       13
176
     1
 40
0.0
176
     1
 90
        0
176
     1
290
     0
176
     1
290
     1
176
     1
290
     1
176
     1
290
     0
176
     1
290
     0
176
     1
290
     0
176
     1
290
     0
176
     1
290
     0
176
     1
290
     0
176
     1
 90
       50
176
     1
 40
0.0
176
     1
 40
1.0
176
     1
 90
        0
176
     1
 62
    18
420
        0
176
     1
 90
       50
176
     1
 90
        3
176
     1
 62
     5
420
      255
176
     1
290
     0
176
     1
 90
       50
176
     1
 90
       50
176
     1
 90
       50
176
     1
290
     0
176
     1
 90
       50
176
     1
 62
   256
176
     0
 40
1.0
176
     0
 90
        2
176
     1
  1
strokes_ogs.tif
176
     1
290
     0
176
     1
 40
1.0
176
     1
 40
1.0
176
     1
1001
ACAD
1000
AcDbSavedByObjectVersion
1070
     0
  0
VISUALSTYLE
  5
2D
102
{ACAD_REACTORS
330
29
102
}
330
29
100
AcDbVisualStyle
  2
GouraudWithEdges
 70
     3
177
     3
291
     1
 70
    58
 90
        2
176
     1
 90
        2
176
     1
 90
        1
176
     1
 90
        2
176
     1
 40
0.6
176
     1
 40
30.0
176
     1
 62
     7
420
 16777215
176
     1
 90
        1
176
     1
 90
        0
176
     1
 62
     7
176
     1
 62
   257
176
     1
 90
        1
176
     1
 90
        1
176
     1
 40
1.0
176
     1
 90
        0
176
     1
 62
   257
176
     1
 40
1.0
176
     1
 90
        1
176
     1
 90
        6
176
     1
 90
        2
176
     1
 62
     7
176
     1
 90
        5
176
     1
 90
        0
176
     1
 90
        0
176
     1
290
     0
176
     1
 90
       13
176
     1
 40
0.0
176
     1
 90
        0
176
     1
290
     0
176
     1
290
     1
176
     1
290
     1
176
     1
290
     0
176
     1
290
     0
176
     1
290
     0
176
     1
290
     0
176
     1
290
     0
176
     1
290
     0
176
     1
 90
       50
176
     1
 40
0.0
176
     1
 40
1.0
176
     1
 90
        0
176
     1
 62
    18
420
        0
176
     1
 90
       50
176
     1
 90
        3
176
     1
 62
     5
420
      255
176
     1
290
     0
176
     1
 90
       50
176
     1
 90
       50
176
     1
 90
       50
176
     1
290
     0
176
     1
 90
       50
176
     1
 62
   256
176
     0
 40
1.0
176
     0
 90
        2
176
     1
  1
strokes_ogs.tif
176
     1
290
     0
176
     1
 40
1.0
176
     1
 40
1.0
176
     1
1001
ACAD
1000
AcDbSavedByObjectVersion
1070
     0
  0
VISUALSTYLE
  5
31
102
{ACAD_REACTORS
330
29
102
}
330
29
100
AcDbVisualStyle
  2
Hidden
 70
     6
177
     3
291
     0
 70
    58
 90
        1
176
     1
 90
        2
176
     1
 90
        2
176
     1
 90
        0
176
     1
 40
0.6
176
     1
 40
30.0
176
     1
 62
     7
420
 16777215
176
     1
 90
        2
176
     1
 90
        2
176
     1
 62
     7
176
     1
 62
   257
176
     1
 90
        2
176
     1
 90
        1
176
     1
 40
40.0
176
     1
 90
        0
176
     1
 62
   257
176
     1
 40
1.0
176
     1
 90
        1
176
     1
 90
        6
176
     1
 90
        2
176
     1
 62
     7
176
     1
 90
        3
176
     1
 90
        0
176
     1
 90
        0
176
     1
290
     0
176
     1
 90
        1
176
     1
 40
0.0
176
     1
 90
        0
176
     1
290
     0
176
     1
290
     1
176
     1
290
     1
176
     1
290
     0
176
     1
290
     0
176
     1
290
     0
176
     1
290
     0
176
     1
290
     0
176
     1
290
     0
176
     1
 90
       50
176
     1
 40
0.0
176
     1
 40
1.0
176
     1
 90
        0
176
     1
 62
    18
420
        0
176
     1
 90
       50
176
     1
 90
        3
176
     1
 62
     5
420
      255
176
     1
290
     0
176
     1
 90
       50
176
     1
 90
       50
176
     1
 90
       50
176
     1
290
     0
176
     1
 90
       50
176
     1
 62
   256
176
     0
 40
1.0
176
     0
 90
        2
176
     1
  1
strokes_ogs.tif
176
     1
290
     0
176
     1
 40
1.0
176
     1
 40
1.0
176
     1
1001
ACAD
1000
AcDbSavedByObjectVersion
1070
     0
  0
VISUALSTYLE
  5
3F
102
{ACAD_REACTORS
330
29
102
}
330
29
100
AcDbVisualStyle
  2
JitterOff
 70
    20
177
     3
291
     1
 70
    58
 90
        2
176
     0
 90
        2
176
     0
 90
        0
176
     0
 90
        0
176
     0
 40
0.6
176
     0
 40
30.0
176
     0
 62
     7
420
 16777215
176
     0
 90
        1
176
     0
 90
        4
176
     0
 62
     7
176
     0
 62
   257
176
     0
 90
        1
176
     0
 90
        1
176
     0
 40
1.0
176
     0
 90
       10
176
     2
 62
     7
176
     0
 40
1.0
176
     0
 90
        1
176
     0
 90
        6
176
     0
 90
        2
176
     0
 62
     7
176
     0
 90
        5
176
     0
 90
        0
176
     0
 90
        0
176
     0
290
     0
176
     0
 90
        1
176
     0
 40
0.0
176
     0
 90
        0
176
     0
290
     0
176
     0
290
     1
176
     0
290
     1
176
     0
290
     0
176
     0
290
     0
176
     0
290
     0
176
     0
290
     0
176
     0
290
     0
176
     0
290
     0
176
     0
 90
       50
176
     0
 40
0.0
176
     0
 40
1.0
176
     0
 90
        0
176
     0
 62
    18
420
        0
176
     0
 90
       50
176
     0
 90
        3
176
     0
 62
     5
420
      255
176
     0
290
     0
176
     0
 90
       50
176
     0
 90
       50
176
     0
 90
       50
176
     0
290
     0
176
     0
 90
       50
176
     0
 62
   256
176
     0
 40
1.0
176
     0
 90
        2
176
     0
  1
strokes_ogs.tif
176
     0
290
     0
176
     0
 40
1.0
176
     0
 40
1.0
176
     0
1001
ACAD
1000
AcDbSavedByObjectVersion
1070
     0
  0
VISUALSTYLE
  5
37
102
{ACAD_REACTORS
330
29
102
}
330
29
100
AcDbVisualStyle
  2
Linepattern
 70
    14
177
     3
291
     1
 70
    58
 90
        2
176
     1
 90
        2
176
     1
 90
        0
176
     1
 90
        0
176
     1
 40
0.6
176
     1
 40
30.0
176
     1
 62
     7
420
 16777215
176
     1
 90
        1
176
     1
 90
        4
176
     1
 62
     7
176
     1
 62
   257
176
     1
 90
        7
176
     1
 90
        7
176
     1
 40
1.0
176
     1
 90
        8
176
     1
 62
     7
176
     1
 40
1.0
176
     1
 90
        1
176
     1
 90
        6
176
     1
 90
        2
176
     1
 62
     7
176
     1
 90
        5
176
     1
 90
        0
176
     1
 90
        0
176
     1
290
     0
176
     1
 90
        1
176
     1
 40
0.0
176
     1
 90
        0
176
     1
290
     0
176
     1
290
     1
176
     1
290
     1
176
     1
290
     0
176
     1
290
     0
176
     1
290
     0
176
     1
290
     0
176
     1
290
     0
176
     1
290
     0
176
     1
 90
       50
176
     1
 40
0.0
176
     1
 40
1.0
176
     1
 90
        0
176
     1
 62
    18
420
        0
176
     1
 90
       50
176
     1
 90
        3
176
     1
 62
     5
420
      255
176
     1
290
     0
176
     1
 90
       50
176
     1
 90
       50
176
     1
 90
       50
176
     1
290
     0
176
     1
 90
       50
176
     1
 62
   256
176
     0
 40
1.0
176
     0
 90
        2
176
     1
  1
strokes_ogs.tif
176
     1
290
     0
176
     1
 40
1.0
176
     1
 40
1.0
176
     1
1001
ACAD
1000
AcDbSavedByObjectVersion
1070
     0
  0
VISUALSTYLE
  5
40
102
{ACAD_REACTORS
330
29
102
}
330
29
100
AcDbVisualStyle
  2
OverhangOff
 70
    21
177
     3
291
     1
 70
    58
 90
        2
176
     0
 90
        2
176
     0
 90
        0
176
     0
 90
        0
176
     0
 40
0.6
176
     0
 40
30.0
176
     0
 62
     7
420
 16777215
176
     0
 90
        1
176
     0
 90
        4
176
     0
 62
     7
176
     0
 62
   257
176
     0
 90
        1
176
     0
 90
        1
176
     0
 40
1.0
176
     0
 90
        9
176
     2
 62
     7
176
     0
 40
1.0
176
     0
 90
        1
176
     0
 90
        6
176
     0
 90
        2
176
     0
 62
     7
176
     0
 90
        5
176
     0
 90
        0
176
     0
 90
        0
176
     0
290
     0
176
     0
 90
        1
176
     0
 40
0.0
176
     0
 90
        0
176
     0
290
     0
176
     0
290
     1
176
     0
290
     1
176
     0
290
     0
176
     0
290
     0
176
     0
290
     0
176
     0
290
     0
176
     0
290
     0
176
     0
290
     0
176
     0
 90
       50
176
     0
 40
0.0
176
     0
 40
1.0
176
     0
 90
        0
176
     0
 62
    18
420
        0
176
     0
 90
       50
176
     0
 90
        3
176
     0
 62
     5
420
      255
176
     0
290
     0
176
     0
 90
       50
176
     0
 90
       50
176
     0
 90
       50
176
     0
290
     0
176
     0
 90
       50
176
     0
 62
   256
176
     0
 40
1.0
176
     0
 90
        2
176
     0
  1
strokes_ogs.tif
176
     0
290
     0
176
     0
 40
1.0
176
     0
 40
1.0
176
     0
1001
ACAD
1000
AcDbSavedByObjectVersion
1070
     0
  0
VISUALSTYLE
  5
33
102
{ACAD_REACTORS
330
29
102
}
330
29
100
AcDbVisualStyle
  2
Realistic
 70
     8
177
     3
291
     0
 70
    58
 90
        2
176
     1
 90
        3
176
     1
 90
        0
176
     1
 90
        2
176
     1
 40
0.6
176
     1
 40
30.0
176
     1
 62
     7
420
 16777215
176
     1
 90
        0
176
     1
 90
        0
176
     1
 62
     7
176
     1
 62
   257
176
     1
 90
        1
176
     1
 90
        1
176
     1
 40
1.0
176
     1
 90
        8
176
     1
 62
   257
176
     1
 40
1.0
176
     1
 90
        1
176
     1
 90
        6
176
     1
 90
        2
176
     1
 62
     7
176
     1
 90
        3
176
     1
 90
        0
176
     1
 90
        0
176
     1
290
     0
176
     1
 90
       13
176
     1
 40
0.0
176
     1
 90
        0
176
     1
290
     0
176
     1
290
     1
176
     1
290
     1
176
     1
290
     0
176
     1
290
     0
176
     1
290
     0
176
     1
290
     0
176
     1
290
     0
176
     1
290
     0
176
     1
 90
       50
176
     1
 40
0.0
176
     1
 40
1.0
176
     1
 90
        0
176
     1
 62
    18
420
        0
176
     1
 90
       50
176
     1
 90
        3
176
     1
 62
     5
420
      255
176
     1
290
     0
176
     1
 90
       50
176
     1
 90
       50
176
     1
 90
       50
176
     1
290
     0
176
     1
 90
       50
176
     1
 62
   256
176
     0
 40
1.0
176
     0
 90
        2
176
     1
  1
strokes_ogs.tif
176
     1
290
     0
176
     1
 40
1.0
176
     1
 40
1.0
176
     1
1001
ACAD
1000
AcDbSavedByObjectVersion
1070
     0
  0
VISUALSTYLE
  5
3E
102
{ACAD_REACTORS
330
29
102
}
330
29
100
AcDbVisualStyle
  2
Shaded
 70
    27
177
     3
291
     0
 70
    58
 90
        2
176
     1
 90
        2
176
     1
 90
        1
176
     1
 90
        2
176
     1
 40
0.6
176
     1
 40
30.0
176
     1
 62
     7
420
 16777215
176
     1
 90
        0
176
     1
 90
        4
176
     1
 62
     7
176
     1
 62
   257
176
     1
 90
        1
176
     1
 90
        1
176
     1
 40
1.0
176
     1
 90
        8
176
     1
 62
   257
176
     1
 40
1.0
176
     1
 90
        1
176
     1
 90
        6
176
     1
 90
        2
176
     1
 62
     8
420
  7895160
176
     1
 90
        3
176
     1
 90
        0
176
     1
 90
        0
176
     1
290
     0
176
     1
 90
        5
176
     1
 40
0.0
176
     1
 90
        0
176
     1
290
     0
176
     1
290
     1
176
     1
290
     1
176
     1
290
     0
176
     1
290
     0
176
     1
290
     0
176
     1
290
     0
176
     1
290
     0
176
     1
290
     0
176
     1
 90
       50
176
     1
 40
0.0
176
     1
 40
1.0
176
     1
 90
        0
176
     1
 62
    18
420
        0
176
     1
 90
       50
176
     1
 90
        3
176
     1
 62
     5
420
      255
176
     1
290
     0
176
     1
 90
       50
176
     1
 90
       50
176
     1
 90
       50
176
     1
290
     0
176
     1
 90
       50
176
     1
 62
   256
176
     0
 40
1.0
176
     0
 90
        2
176
     1
  1
strokes_ogs.tif
176
     1
290
     0
176
     1
 40
1.0
176
     1
 40
1.0
176
     1
1001
ACAD
1000
AcDbSavedByObjectVersion
1070
     0
  0
VISUALSTYLE
  5
3D
102
{ACAD_REACTORS
330
29
102
}
330
29
100
AcDbVisualStyle
  2
Shaded with edges
 70
    26
177
     3
291
     0
 70
    58
 90
        2
176
     1
 90
        2
176
     1
 90
        1
176
     1
 90
        2
176
     1
 40
0.6
176
     1
 40
30.0
176
     1
 62
     7
420
 16777215
176
     1
 90
        1
176
     1
 90
        2
176
     1
 62
     7
176
     1
 62
   257
176
     1
 90
        2
176
     1
 90
        1
176
     1
 40
1.0
176
     1
 90
        8
176
     1
 62
   257
176
     1
 40
1.0
176
     1
 90
        1
176
     1
 90
        6
176
     1
 90
        2
176
     1
 62
     7
176
     1
 90
        3
176
     1
 90
        0
176
     1
 90
        0
176
     1
290
     0
176
     1
 90
        5
176
     1
 40
0.0
176
     1
 90
        0
176
     1
290
     0
176
     1
290
     1
176
     1
290
     1
176
     1
290
     0
176
     1
290
     0
176
     1
290
     0
176
     1
290
     0
176
     1
290
     0
176
     1
290
     0
176
     1
 90
       50
176
     1
 40
0.0
176
     1
 40
1.0
176
     1
 90
        0
176
     1
 62
    18
420
        0
176
     1
 90
       50
176
     1
 90
        3
176
     1
 62
     5
420
      255
176
     1
290
     0
176
     1
 90
       50
176
     1
 90
       50
176
     1
 90
       50
176
     1
290
     0
176
     1
 90
       50
176
     1
 62
   256
176
     0
 40
1.0
176
     0
 90
        2
176
     1
  1
strokes_ogs.tif
176
     1
290
     0
176
     1
 40
1.0
176
     1
 40
1.0
176
     1
1001
ACAD
1000
AcDbSavedByObjectVersion
1070
     0
  0
VISUALSTYLE
  5
3A
102
{ACAD_REACTORS
330
29
102
}
330
29
100
AcDbVisualStyle
  2
Shades of Gray
 70
    23
177
     3
291
     0
 70
    58
 90
        2
176
     1
 90
        2
176
     1
 90
        3
176
     1
 90
        0
176
     1
 40
0.6
176
     1
 40
30.0
176
     1
 62
     7
420
 16777215
176
     1
 90
        2
176
     1
 90
        2
176
     1
 62
     7
176
     1
 62
     7
176
     1
 90
        1
176
     1
 90
        1
176
     1
 40
40.0
176
     1
 90
        8
176
     1
 62
     7
176
     1
 40
1.0
176
     1
 90
        1
176
     1
 90
        6
176
     1
 90
        2
176
     1
 62
     7
176
     1
 90
        3
176
     1
 90
        0
176
     1
 90
        0
176
     1
290
     0
176
     1
 90
        1
176
     1
 40
0.0
176
     1
 90
        0
176
     1
290
     0
176
     1
290
     1
176
     1
290
     1
176
     1
290
     0
176
     1
290
     0
176
     1
290
     0
176
     1
290
     0
176
     1
290
     0
176
     1
290
     0
176
     1
 90
       50
176
     1
 40
0.0
176
     1
 40
1.0
176
     1
 90
        0
176
     1
 62
    18
420
        0
176
     1
 90
       50
176
     1
 90
        3
176
     1
 62
     5
420
      255
176
     1
290
     0
176
     1
 90
       50
176
     1
 90
       50
176
     1
 90
       50
176
     1
290
     0
176
     1
 90
       50
176
     1
 62
   256
176
     0
 40
1.0
176
     0
 90
        2
176
     1
  1
strokes_ogs.tif
176
     1
290
     0
176
     1
 40
1.0
176
     1
 40
1.0
176
     1
1001
ACAD
1000
AcDbSavedByObjectVersion
1070
     0
  0
VISUALSTYLE
  5
3B
102
{ACAD_REACTORS
330
29
102
}
330
29
100
AcDbVisualStyle
  2
Sketchy
 70
    24
177
     3
291
     0
 70
    58
 90
        1
176
     1
 90
        2
176
     1
 90
        2
176
     1
 90
        0
176
     1
 40
0.6
176
     1
 40
30.0
176
     1
 62
     7
420
 16777215
176
     1
 90
        2
176
     1
 90
        2
176
     1
 62
     7
176
     1
 62
     7
176
     1
 90
        1
176
     1
 90
        1
176
     1
 40
40.0
176
     1
 90
       11
176
     1
 62
     7
176
     1
 40
1.0
176
     1
 90
        1
176
     1
 90
        6
176
     1
 90
        2
176
     1
 62
     7
176
     1
 90
        6
176
     1
 90
        0
176
     1
 90
        0
176
     1
290
     0
176
     1
 90
        1
176
     1
 40
0.0
176
     1
 90
        0
176
     1
290
     0
176
     1
290
     1
176
     1
290
     1
176
     1
290
     0
176
     1
290
     0
176
     1
290
     0
176
     1
290
     0
176
     1
290
     0
176
     1
290
     0
176
     1
 90
       50
176
     1
 40
0.0
176
     1
 40
1.0
176
     1
 90
        0
176
     1
 62
    18
420
        0
176
     1
 90
       50
176
     1
 90
        3
176
     1
 62
     5
420
      255
176
     1
290
     0
176
     1
 90
       50
176
     1
 90
       50
176
     1
 90
       50
176
     1
290
     0
176
     1
 90
       50
176
     1
 62
   256
176
     0
 40
1.0
176
     0
 90
        2
176
     1
  1
strokes_ogs.tif
176
     1
290
     0
176
     1
 40
1.0
176
     1
 40
1.0
176
     1
1001
ACAD
1000
AcDbSavedByObjectVersion
1070
     0
  0
VISUALSTYLE
  5
36
102
{ACAD_REACTORS
330
29
102
}
330
29
100
AcDbVisualStyle
  2
Thicken
 70
    13
177
     3
291
     1
 70
    58
 90
        2
176
     1
 90
        2
176
     1
 90
        0
176
     1
 90
        0
176
     1
 40
0.6
176
     1
 40
30.0
176
     1
 62
     7
420
 16777215
176
     1
 90
        1
176
     1
 90
        4
176
     1
 62
     7
176
     1
 62
   257
176
     1
 90
        1
176
     1
 90
        1
176
     1
 40
1.0
176
     1
 90
       12
176
     1
 62
     7
176
     1
 40
1.0
176
     1
 90
        1
176
     1
 90
        6
176
     1
 90
        2
176
     1
 62
     7
176
     1
 90
        5
176
     1
 90
        0
176
     1
 90
        0
176
     1
290
     0
176
     1
 90
        1
176
     1
 40
0.0
176
     1
 90
        0
176
     1
290
     0
176
     1
290
     1
176
     1
290
     1
176
     1
290
     0
176
     1
290
     0
176
     1
290
     0
176
     1
290
     0
176
     1
290
     0
176
     1
290
     0
176
     1
 90
       50
176
     1
 40
0.0
176
     1
 40
1.0
176
     1
 90
        0
176
     1
 62
    18
420
        0
176
     1
 90
       50
176
     1
 90
        3
176
     1
 62
     5
420
      255
176
     1
290
     0
176
     1
 90
       50
176
     1
 90
       50
176
     1
 90
       50
176
     1
290
     0
176
     1
 90
       50
176
     1
 62
   256
176
     0
 40
1.0
176
     0
 90
        2
176
     1
  1
strokes_ogs.tif
176
     1
290
     0
176
     1
 40
1.0
176
     1
 40
1.0
176
     1
1001
ACAD
1000
AcDbSavedByObjectVersion
1070
     0
  0
VISUALSTYLE
  5
30
102
{ACAD_REACTORS
330
29
102
}
330
29
100
AcDbVisualStyle
  2
Wireframe
 70
     5
177
     3
291
     0
 70
    58
 90
        0
176
     1
 90
        2
176
     1
 90
        0
176
     1
 90
        0
176
     1
 40
0.6
176
     1
 40
30.0
176
     1
 62
     7
420
 16777215
176
     1
 90
        1
176
     1
 90
        4
176
     1
 62
     7
176
     1
 62
   257
176
     1
 90
        1
176
     1
 90
        1
176
     1
 40
1.0
176
     1
 90
        0
176
     1
 62
   257
176
     1
 40
1.0
176
     1
 90
        1
176
     1
 90
        6
176
     1
 90
        2
176
     1
 62
     7
176
     1
 90
        3
176
     1
 90
        0
176
     1
 90
        0
176
     1
290
     0
176
     1
 90
        1
176
     1
 40
0.0
176
     1
 90
        0
176
     1
290
     0
176
     1
290
     1
176
     1
290
     1
176
     1
290
     0
176
     1
290
     0
176
     1
290
     0
176
     1
290
     0
176
     1
290
     0
176
     1
290
     0
176
     1
 90
       50
176
     1
 40
0.0
176
     1
 40
1.0
176
     1
 90
        0
176
     1
 62
    18
420
        0
176
     1
 90
       50
176
     1
 90
        3
176
     1
 62
     5
420
      255
176
     1
290
     0
176
     1
 90
       50
176
     1
 90
       50
176
     1
 90
       50
176
     1
290
     0
176
     1
 90
       50
176
     1
 62
   256
176
     0
 40
1.0
176
     0
 90
        2
176
     1
  1
strokes_ogs.tif
176
     1
290
     0
176
     1
 40
1.0
176
     1
 40
1.0
176
     1
1001
ACAD
1000
AcDbSavedByObjectVersion
1070
     0
  0
VISUALSTYLE
  5
3C
102
{ACAD_REACTORS
330
29
102
}
330
29
100
AcDbVisualStyle
  2
X-Ray
 70
    25
177
     3
291
     0
 70
    58
 90
        2
176
     1
 90
        2
176
     1
 90
        1
176
     1
 90
        1
176
     1
 40
0.5
176
     1
 40
30.0
176
     1
 62
     7
420
 16777215
176
     1
 90
        1
176
     1
 90
        0
176
     1
 62
     7
176
     1
 62
   257
176
     1
 90
        1
176
     1
 90
        1
176
     1
 40
1.0
176
     1
 90
        8
176
     1
 62
     7
176
     1
 40
1.0
176
     1
 90
        1
176
     1
 90
        6
176
     1
 90
        2
176
     1
 62
     7
176
     1
 90
        3
176
     1
 90
        0
176
     1
 90
        0
176
     1
290
     0
176
     1
 90
       13
176
     1
 40
0.0
176
     1
 90
        0
176
     1
290
     0
176
     1
290
     1
176
     1
290
     1
176
     1
290
     0
176
     1
290
     0
176
     1
290
     0
176
     1
290
     0
176
     1
290
     0
176
     1
290
     0
176
     1
 90
       50
176
     1
 40
0.0
176
     1
 40
1.0
176
     1
 90
        0
176
     1
 62
    18
420
        0
176
     1
 90
       50
176
     1
 90
        3
176
     1
 62
     5
420
      255
176
     1
290
     0
176
     1
 90
       50
176
     1
 90
       50
176
     1
 90
       50
176
     1
290
     0
176
     1
 90
       50
176
     1
 62
   256
176
     0
 40
1.0
176
     0
 90
        2
176
     1
  1
strokes_ogs.tif
176
     1
290
     0
176
     1
 40
1.0
176
     1
 40
1.0
176
     1
1001
ACAD
1000
AcDbSavedByObjectVersion
1070
     0
  0
DICTIONARYVAR
  5
9C
102
{ACAD_REACTORS
330
97
102
}
330
97
100
DictionaryVariables
280
     0
  1
1:1
  0
DICTIONARYVAR
  5
99
102
{ACAD_REACTORS
330
97
102
}
330
97
100
DictionaryVariables
280
     0
  1
STANDARD
  0
DICTIONARYVAR
  5
98
102
{ACAD_REACTORS
330
97
102
}
330
97
100
DictionaryVariables
280
     0
  1
STANDARD
  0
DICTIONARYVAR
  5
9A
102
{ACAD_REACTORS
330
97
102
}
330
97
100
DictionaryVariables
280
     0
  1
Imperial24
  0
DICTIONARYVAR
  5
9B
102
{ACAD_REACTORS
330
97
102
}
330
97
100
DictionaryVariables
280
     0
  1
Imperial24
  0
DICTIONARY
  5
A2
330
6B
100
AcDbDictionary
280
     1
281
     1
  3
ACAD_XREC_ROUNDTRIP
360
A3
  0
DICTIONARY
  5
1A
330
19
100
AcDbDictionary
280
     1
281
     1
  3
BUMPTILE
360
1C
  3
DIFFUSETILE
360
1B
  3
OPACITYTILE
360
1F
  3
REFLECTIONTILE
360
1E
  3
REFRACTIONTILE
360
20
  3
SPECULARTILE
360
1D
  0
DICTIONARY
  5
12
330
11
100
AcDbDictionary
280
     1
281
     1
  3
BUMPTILE
360
14
  3
DIFFUSETILE
360
13
  3
OPACITYTILE
360
17
  3
REFLECTIONTILE
360
16
  3
REFRACTIONTILE
360
18
  3
SPECULARTILE
360
15
  0
DICTIONARY
  5
22
330
21
100
AcDbDictionary
280
     1
281
     1
  3
BUMPTILE
360
24
  3
DIFFUSETILE
360
23
  3
OPACITYTILE
360
27
  3
REFLECTIONTILE
360
26
  3
REFRACTIONTILE
360
28
  3
SPECULARTILE
360
25
  0
DICTIONARY
  5
A0
330
69
100
AcDbDictionary
280
     1
281
     1
  3
ACAD_XREC_ROUNDTRIP
360
A1
  0
DICTIONARY
  5
9D
330
65
100
AcDbDictionary
280
     1
281
     1
  3
ACAD_ROUNDTRIP_2008_TABLESTYLE_CELLSTYLEMAP
360
9E
  0
XRECORD
  5
A3
102
{ACAD_REACTORS
330
A2
102
}
330
A2
100
AcDbXrecord
280
     1
102
DISPLAYNAME
  1
Imperial24
102
FLAGS
 90
        0
  0
XRECORD
  5
1C
102
{ACAD_REACTORS
330
1A
102
}
330
1A
100
AcDbXrecord
280
     1
270
     1
271
     1
  0
XRECORD
  5
1B
102
{ACAD_REACTORS
330
1A
102
}
330
1A
100
AcDbXrecord
280
     1
270
     1
271
     1
  0
XRECORD
  5
1F
102
{ACAD_REACTORS
330
1A
102
}
330
1A
100
AcDbXrecord
280
     1
270
     1
271
     1
  0
XRECORD
  5
1E
102
{ACAD_REACTORS
330
1A
102
}
330
1A
100
AcDbXrecord
280
     1
270
     1
271
     1
  0
XRECORD
  5
20
102
{ACAD_REACTORS
330
1A
102
}
330
1A
100
AcDbXrecord
280
     1
270
     1
271
     1
  0
XRECORD
  5
1D
102
{ACAD_REACTORS
330
1A
102
}
330
1A
100
AcDbXrecord
280
     1
270
     1
271
     1
  0
XRECORD
  5
14
102
{ACAD_REACTORS
330
12
102
}
330
12
100
AcDbXrecord
280
     1
270
     1
271
     1
  0
XRECORD
  5
13
102
{ACAD_REACTORS
330
12
102
}
330
12
100
AcDbXrecord
280
     1
270
     1
271
     1
  0
XRECORD
  5
17
102
{ACAD_REACTORS
330
12
102
}
330
12
100
AcDbXrecord
280
     1
270
     1
271
     1
  0
XRECORD
  5
16
102
{ACAD_REACTORS
330
12
102
}
330
12
100
AcDbXrecord
280
     1
270
     1
271
     1
  0
XRECORD
  5
18
102
{ACAD_REACTORS
330
12
102
}
330
12
100
AcDbXrecord
280
     1
270
     1
271
     1
  0
XRECORD
  5
15
102
{ACAD_REACTORS
330
12
102
}
330
12
100
AcDbXrecord
280
     1
270
     1
271
     1
  0
XRECORD
  5
24
102
{ACAD_REACTORS
330
22
102
}
330
22
100
AcDbXrecord
280
     1
270
     1
271
     1
  0
XRECORD
  5
23
102
{ACAD_REACTORS
330
22
102
}
330
22
100
AcDbXrecord
280
     1
270
     1
271
     1
  0
XRECORD
  5
27
102
{ACAD_REACTORS
330
22
102
}
330
22
100
AcDbXrecord
280
     1
270
     1
271
     1
  0
XRECORD
  5
26
102
{ACAD_REACTORS
330
22
102
}
330
22
100
AcDbXrecord
280
     1
270
     1
271
     1
  0
XRECORD
  5
28
102
{ACAD_REACTORS
330
22
102
}
330
22
100
AcDbXrecord
280
     1
270
     1
271
     1
  0
XRECORD
  5
25
102
{ACAD_REACTORS
330
22
102
}
330
22
100
AcDbXrecord
280
     1
270
     1
271
     1
  0
XRECORD
  5
A1
102
{ACAD_REACTORS
330
A0
102
}
330
A0
100
AcDbXrecord
280
     1
102
DISPLAYNAME
  1
Imperial24
102
FLAGS
 90
        0
  0
CELLSTYLEMAP
  5
9E
102
{ACAD_REACTORS
330
9D
102
}
330
9D
100
AcDbCellStyleMap
 90
        3
300
CELLSTYLE
  1
TABLEFORMAT_BEGIN
 90
        5
170
     1
 91
        0
 92
    32768
 62
   257
 93
        1
300
CONTENTFORMAT
  1
CONTENTFORMAT_BEGIN
 90
        0
 91
        0
 92
      512
 93
        0
300

 40
0.0
140
1.0
 94
        5
 62
     0
340
55
144
0.25
309
CONTENTFORMAT_END
171
     0
 94
        0
309
TABLEFORMAT_END
  1
CELLSTYLE_BEGIN
 90
        1
 91
        1
300
_TITLE
309
CELLSTYLE_END
300
CELLSTYLE
  1
TABLEFORMAT_BEGIN
 90
        5
170
     1
 91
        0
 92
        0
 62
   257
 93
        1
300
CONTENTFORMAT
  1
CONTENTFORMAT_BEGIN
 90
        0
 91
        0
 92
      512
 93
        0
300

 40
0.0
140
1.0
 94
        5
 62
     0
340
55
144
0.18
309
CONTENTFORMAT_END
171
     0
 94
        0
309
TABLEFORMAT_END
  1
CELLSTYLE_BEGIN
 90
        2
 91
        1
300
_HEADER
309
CELLSTYLE_END
300
CELLSTYLE
  1
TABLEFORMAT_BEGIN
 90
        5
170
     1
 91
        0
 92
        0
 62
   257
 93
        1
300
CONTENTFORMAT
  1
CONTENTFORMAT_BEGIN
 90
        0
 91
        0
 92
      512
 93
        0
300

 40
0.0
140
1.0
 94
        2
 62
     0
340
55
144
0.18
309
CONTENTFORMAT_END
171
     0
 94
        0
309
TABLEFORMAT_END
  1
CELLSTYLE_BEGIN
 90
        3
 91
        2
300
_DATA
309
CELLSTYLE_END
  0
ENDSEC
  0
EOF
