<?xml version="1.0" encoding="utf-8"?>
<!-- Generator: Adobe Illustrator 27.7.0, SVG Export Plug-In . SVG Version: 6.00 Build 0)  -->
<svg version="1.1" id="Layer_1" xmlns="http://www.w3.org/2000/svg" xmlns:xlink="http://www.w3.org/1999/xlink" x="0px" y="0px"
	 viewBox="0 0 725.7 725.7" style="enable-background:new 0 0 725.7 725.7;" xml:space="preserve">
<style type="text/css">
	.st0{fill:none;stroke:#E52922;stroke-miterlimit:10;}
</style>
<path class="st0" d="M499.6,169.3h-6.8c-21,0-38-17-38-38v-12.8c0,0,0,0,0,0c0-1.2-1-2.2-2.3-2.2H274c-1.2,0-2.3,1-2.3,2.2
	c0,0,0,0,0,0v12.3c0,21.3-17.3,38.6-38.6,38.6h-6.3c-7.8,0-14.2,6.3-14.2,14.2v355.7c0,7.8,6.3,14.2,14.2,14.2h7.1
	c20.8,0,37.7,16.9,37.7,37.7v9.1c0,1.8,0.3,3.5,1,5.1c0.8,2.2,3,3.6,5.3,3.6c21.9,0,148.6,0,170.5,0c2.3,0,4.4-1.4,5.3-3.6
	c0.6-1.6,1-3.3,1-5.1v-9c0-20.9,16.9-37.8,37.8-37.8h7c7.8,0,14.2-6.3,14.2-14.2V183.4C513.8,175.6,507.4,169.3,499.6,169.3z
	 M389.2,159h26.6v8.3h-26.6V159z M408.4,199.7c0,2.7-2.2,5-5,5s-5-2.2-5-5s2.2-5,5-5S408.4,196.9,408.4,199.7z M389.1,217.1h26.8
	v12.5h-26.8V217.1z M380.7,251.2c0.3-2.1,2-3.8,4.1-4.1c3.4-0.5,6.2,2.3,5.7,5.7c-0.3,2.1-2,3.8-4.1,4.1
	C383,257.4,380.2,254.5,380.7,251.2z M364,129.1c3.1,0,5.7,2.5,5.7,5.7c0,3.1-2.5,5.7-5.7,5.7c-3.1,0-5.7-2.5-5.7-5.7
	C358.3,131.6,360.8,129.1,364,129.1z M346.2,159h26.6v8.3h-26.6V159z M365.4,199.6c0,2.7-2.2,5-5,5s-5-2.2-5-5s2.2-5,5-5
	S365.4,196.9,365.4,199.6z M346.1,217.1h26.8v12.5h-26.8V217.1z M303.1,229.5v-12.5h26.8v12.5H303.1z M311.2,236.1
	C311.2,236.1,311.1,236.1,311.2,236.1C311.1,236.1,311.1,236.1,311.2,236.1C311.1,236,311.1,236,311.2,236.1
	C311.1,236,311.2,236,311.2,236.1z M312.4,199.5c0-2.7,2.2-5,5-5s5,2.2,5,5s-2.2,5-5,5S312.4,202.2,312.4,199.5z M329.8,167.1h-26.6
	v-8.3h26.6V167.1z M309.9,122.9c0.8,0.4,1.4,1.1,1.9,1.9c2.5,4.4-2.3,9.2-6.7,6.7c-0.8-0.4-1.4-1.1-1.9-1.9
	C300.7,125.2,305.5,120.4,309.9,122.9z M283.7,202.2h8.3v26.6h-8.3V202.2z M252.8,211.5c2.7,0,5,2.2,5,5s-2.2,5-5,5s-5-2.2-5-5
	S250.1,211.5,252.8,211.5z M221.4,202.1h12.5v26.8h-12.5V202.1z M218.3,251.2c0.3-2.1,2-3.8,4.1-4.1c3.4-0.5,6.2,2.3,5.7,5.7
	c-0.3,2.1-2,3.8-4.1,4.1C220.7,257.4,217.8,254.5,218.3,251.2z M228.1,541.6c-0.3,2.1-2,3.8-4.1,4.1c-3.4,0.5-6.2-2.3-5.7-5.7
	c0.3-2.1,2-3.8,4.1-4.1C225.8,535.4,228.6,538.2,228.1,541.6z M305.1,591.7c-0.8-0.4-1.4-1.1-1.9-1.9c-2.5-4.4,2.3-9.2,6.7-6.7
	c0.8,0.4,1.4,1.1,1.9,1.9C314.3,589.4,309.5,594.2,305.1,591.7z M364.5,590.5c-3.1,0-5.7-2.5-5.7-5.7c0-3.1,2.5-5.7,5.7-5.7
	c3.1,0,5.7,2.5,5.7,5.7C370.1,587.9,367.6,590.5,364.5,590.5z M376.5,533.2v6.7c0,3.1-2.5,5.7-5.7,5.7H239.2c-3.1,0-5.7-2.5-5.7-5.7
	v-6.7c0-3.1-2.5-5.7-5.7-5.7h-3.7c-3.1,0-5.7-2.5-5.7-5.7V267.2c0-3.1,2.5-5.7,5.7-5.7h3.7c3.1,0,5.7-2.5,5.7-5.7v-7.7
	c0-3.1,2.5-5.7,5.7-5.7h131.7c3.1,0,5.7,2.5,5.7,5.7v7.7c0,3.1,2.5,5.7,5.7,5.7h2.7c3.1,0,5.7,2.5,5.7,5.7v254.7
	c0,3.1-2.5,5.7-5.7,5.7h-2.7C379,527.5,376.5,530,376.5,533.2z M391.5,541.6c-0.3,2.1-2,3.8-4.1,4.1c-3.4,0.5-6.2-2.3-5.7-5.7
	c0.3-2.1,2-3.8,4.1-4.1C389.2,535.4,392,538.2,391.5,541.6z M415.8,541.9c-3.4,0.5-6.2-2.3-5.7-5.7c0.3-2.1,2-3.8,4.1-4.1
	c3.4-0.5,6.2,2.3,5.7,5.7C419.6,539.9,417.9,541.6,415.8,541.9z M428.4,588.2c-0.3,2.1-2,3.8-4.1,4.1c-3.4,0.5-6.2-2.3-5.7-5.7
	c0.3-2.1,2-3.8,4.1-4.1C426.1,582,428.9,584.8,428.4,588.2z M428.4,128c-0.3,2.1-2,3.8-4.1,4.1c-3.4,0.5-6.2-2.3-5.7-5.7
	c0.3-2.1,2-3.8,4.1-4.1C426.1,121.8,428.9,124.6,428.4,128z M431.4,181.2h8.3v26.6h-8.3V181.2z M437.2,343.3c-2.2,0-3.9-1.7-3.9-3.9
	s1.7-3.9,3.9-3.9s3.9,1.7,3.9,3.9S439.4,343.3,437.2,343.3z M437.2,262c-2.2,0-3.9-1.7-3.9-3.9c0-2.2,1.7-3.9,3.9-3.9
	s3.9,1.7,3.9,3.9C441.1,260.2,439.4,262,437.2,262z M472,198.6c-2.7,0-5-2.2-5-5c0-2.7,2.2-5,5-5s5,2.2,5,5
	C477,196.3,474.8,198.6,472,198.6z M489.5,207.9v-26.8H502v26.8H489.5z M505.1,390.1c-0.3,2.1-2,3.8-4.1,4.1
	c-3.4,0.5-6.2-2.3-5.7-5.7c0.3-2.1,2-3.8,4.1-4.1C502.8,383.9,505.6,386.7,505.1,390.1z M502.5,302.6c-2.2,0-3.9-1.7-3.9-3.9
	s1.7-3.9,3.9-3.9s3.9,1.7,3.9,3.9S504.6,302.6,502.5,302.6z"/>
</svg>
