<?xml version="1.0" encoding="utf-8"?>
<!-- Generator: Adobe Illustrator 27.7.0, SVG Export Plug-In . SVG Version: 6.00 Build 0)  -->
<svg version="1.1" id="Layer_1" xmlns="http://www.w3.org/2000/svg" xmlns:xlink="http://www.w3.org/1999/xlink" x="0px" y="0px"
	 viewBox="0 0 725.7 725.7" style="enable-background:new 0 0 725.7 725.7;" xml:space="preserve">
<style type="text/css">
	.st0{fill:none;stroke:#E52521;stroke-miterlimit:10;}
</style>
<path class="st0" d="M513.8,402.2V183.4c0-7.8-6.3-14.2-14.2-14.2h-6.8c-21,0-38-17-38-38v-12.8c0-1.2-1-2.2-2.2-2.2h-36.1
	c-1.6,0-2.8,1.3-2.8,2.8v11.3v11.2c0,3.1-2.5,5.7-5.7,5.7h-86.7c-3.1,0-5.7-2.5-5.7-5.7v-11.2V119c0-1.6-1.3-2.8-2.8-2.8H274
	c-1.2,0-2.2,1-2.2,2.2v12.3c0,21.3-17.3,38.6-38.6,38.6h-6.3c-7.8,0-14.2,6.3-14.2,14.2v355.7c0,7.8,6.3,14.2,14.2,14.2h7.1
	c20.8,0,37.7,16.9,37.7,37.7v9.1c0,1.8,0.3,3.5,1,5.1c0.8,2.2,3,3.6,5.3,3.6h72.6v-25.6c0-0.2,0-0.3,0-0.5c0-6.9,5.8-12.5,13-12.5
	s13,5.6,13,12.5c0,0.2,0,0.3,0,0.5v25.6h71.9c2.3,0,4.4-1.4,5.3-3.6c0.6-1.6,1-3.3,1-5.1v-9c0-20.9,16.9-37.8,37.8-37.8h7
	c7.8,0,14.2-6.3,14.2-14.2v-3.9h-5.1v-133L513.8,402.2z M243.9,444.7c-2.3,0-4.3-1.9-4.3-4.3c0.1-2.4,2-4.3,4.3-4.3
	c2.3,0,4.3,1.9,4.3,4.3C248.2,442.7,246.3,444.7,243.9,444.7z M257.8,331.1H221v-72.6h36.7V331.1z M257.8,238.7H221v-60.1h36.7
	V238.7z M266.5,315.2c-2.8,0-5-2.2-5-5s2.2-5,5-5s5,2.2,5,5S269.3,315.2,266.5,315.2z M267.1,179.7c-2.8,0-5-2.2-5-5
	c0-2.8,2.2-5,5-5s5,2.2,5,5C272.1,177.5,269.9,179.7,267.1,179.7z M425.9,122.9c0.8,0.4,1.4,1.1,1.9,1.9c2.5,4.4-2.3,9.2-6.7,6.7
	c-0.8-0.4-1.4-1.1-1.9-1.9C416.7,125.2,421.5,120.4,425.9,122.9z M309.9,122.9c0.8,0.4,1.4,1.1,1.9,1.9c2.5,4.4-2.3,9.2-6.7,6.7
	c-0.8-0.4-1.4-1.1-1.9-1.9C300.7,125.2,305.5,120.4,309.9,122.9z M275.8,158.9v-3.3c0-1.9,1.5-3.4,3.4-3.4h64.4
	c1.8,0,3.4,1.5,3.4,3.4v3.3c0,1.9-1.5,3.4-3.4,3.4h-64.4C277.3,162.3,275.8,160.8,275.8,158.9z M305.1,591.7
	c-0.8-0.4-1.4-1.1-1.9-1.9c-2.5-4.4,2.3-9.2,6.7-6.7c0.8,0.4,1.4,1.1,1.9,1.9C314.3,589.4,309.5,594.2,305.1,591.7z M421.1,591.7
	c-0.8-0.4-1.4-1.1-1.9-1.9c-2.5-4.4,2.3-9.2,6.7-6.7c0.8,0.4,1.4,1.1,1.9,1.9C430.3,589.4,425.5,594.2,421.1,591.7z M432.2,563.2
	H292.8v-10h139.4V563.2z M297,440.3c0-2.3,1.9-4.3,4.3-4.3c2.3,0,4.3,1.9,4.3,4.3c-0.1,2.4-2,4.3-4.3,4.3S297,442.7,297,440.3z
	 M359.7,440.6c0-2.8,2.2-5,5-5c2.7,0,5,2.2,5,5c0,2.7-2.2,5-5,5C362,445.6,359.7,443.4,359.7,440.6z M421.6,440.4
	c0.1-2.4,2-4.3,4.3-4.3s4.3,1.9,4.3,4.3c0,2.3-1.9,4.3-4.3,4.3C423.6,444.7,421.6,442.8,421.6,440.4z M444.6,327.3
	c0,2-1.2,3.8-2.7,3.8H285.4c-1.5,0-2.7-1.7-2.7-3.8v-62.1c0-2.1,1.2-3.8,2.7-3.8h156.5c1.5,0,2.7,1.7,2.7,3.8V327.3z M451.7,159
	c0,1.8-1.4,3.2-3.2,3.2h-64.8c-1.8,0-3.2-1.4-3.2-3.2v-2.6c0-1.8,1.4-3.2,3.2-3.2h64.8c1.8,0,3.2,1.4,3.2,3.2V159z M458.9,315.2
	c-2.8,0-5-2.2-5-5s2.2-5,5-5s5,2.2,5,5S461.7,315.2,458.9,315.2z M459.5,179.7c-2.8,0-5-2.2-5-5c0-2.8,2.2-5,5-5s5,2.2,5,5
	C464.5,177.5,462.3,179.7,459.5,179.7z M476.1,183.1c0-2.5,2-4.5,4.5-4.5h21.1c2.5,0,4.5,2,4.5,4.5v124.1c-0.1,2.5-2.1,4.5-4.5,4.5
	h-21.1c-2.5,0-4.5-2-4.5-4.5V183.1z M483.3,444.6c-2.3,0-4.3-1.9-4.3-4.3c0-2.3,1.9-4.3,4.3-4.3c2.3,0,4.3,1.9,4.3,4.3
	C487.5,442.7,485.6,444.6,483.3,444.6z M508.6,331.2h-33v-9h33V331.2z"/>
</svg>
