<?xml version="1.0" encoding="utf-8"?>
<!-- Generator: Adobe Illustrator 27.7.0, SVG Export Plug-In . SVG Version: 6.00 Build 0)  -->
<svg version="1.1" id="Layer_1" xmlns="http://www.w3.org/2000/svg" xmlns:xlink="http://www.w3.org/1999/xlink" x="0px" y="0px"
	 viewBox="0 0 725.7 725.7" style="enable-background:new 0 0 725.7 725.7;" xml:space="preserve">
<style type="text/css">
	.st0{fill:none;stroke:#E52521;stroke-miterlimit:10;}
</style>
<path class="st0" d="M518.6,169.3h-6.8c-21,0-38-17-38-38v-12.8c0-1.2-1-2.2-2.3-2.2h-76.7v18.9c0,0.2,0,0.3,0,0.5
	c0,6.9-5.8,12.5-13,12.5s-13-5.6-13-12.5c0-0.2,0-0.3,0-0.5v-18.9H293c-1.2,0-2.3,1-2.3,2.2v12.3c0,21.3-17.3,38.6-38.6,38.6H246
	c-7.8,0-14.2,6.3-14.2,14.2v355.7c0,7.8,6.3,14.2,14.2,14.2h7.1c20.8,0,37.7,16.9,37.7,37.7v9.1c0,1.8,0.3,3.5,1,5.1
	c0.8,2.2,3,3.6,5.3,3.6c9.7,0,40.1,0,72.8,0v-25.7c0-0.2,0-0.3,0-0.5c0-6.9,5.8-12.5,13-12.5s13,5.6,13,12.5c0,0.2,0,0.3,0,0.5V609
	c32.3,0,62.1,0,71.7,0c2.3,0,4.4-1.4,5.3-3.6c0.6-1.6,1-3.3,1-5.1v-9c0-20.9,16.9-37.8,37.8-37.8h7c7.8,0,14.2-6.3,14.2-14.2V183.4
	C532.8,175.6,526.5,169.3,518.6,169.3z M467.3,313.6c-2.4,0-4.3-2-4.3-4.3s1.9-4.3,4.3-4.3c2.3,0,4.3,1.9,4.3,4.3
	C471.6,311.6,469.7,313.6,467.3,313.6z M437.7,126.4c0.3-2.1,2-3.8,4.1-4.1c3.3-0.5,6.2,2.3,5.7,5.7c-0.3,2.1-2,3.8-4.1,4.1
	C440,132.6,437.2,129.8,437.7,126.4z M452.1,415.2c-2.8,0-5-2.2-5-5s2.2-5,5-5s5,2.2,5,5S454.9,415.2,452.1,415.2z M457.3,434.6
	c0,2.8-2.2,5-5,5s-5-2.2-5-5s2.2-5,5-5S457.3,431.8,457.3,434.6z M438,258c2.8,0,5,2.2,5,5s-2.2,5-5,5s-5-2.2-5-5S435.2,258,438,258
	z M417.6,262.6L417.6,262.6c0.1-2.7,2.2-4.9,4.9-4.9s4.8,2.2,4.9,4.9c0,0,0.1,0,0.1,0.1s0,0.1-0.1,0.1c0,2.7-2.2,4.9-4.9,4.9
	s-4.8-2.2-4.9-4.9C417.6,262.8,417.6,262.8,417.6,262.6z M364.8,225.8h38v8.5h-38V225.8z M364.1,262.8c0,2.8-2.2,5-5,5s-5-2.2-5-5
	s2.2-5,5-5S364.1,260,364.1,262.8z M348.5,121.5h14v20h-14V121.5z M343.9,257.9c2.7,0,4.8,2.2,4.9,4.9c0,0,0.1,0,0.1,0.1
	s0,0.1-0.1,0.1c0,2.7-2.2,4.9-4.9,4.9c-2.7,0-4.8-2.2-4.9-4.9c0-0.1-0.1-0.1,0-0.2C339.1,260.1,341.2,257.9,343.9,257.9z M339,179.5
	c0,2.8-2.2,5-5,5s-5-2.2-5-5s2.2-5,5-5S339,176.7,339,179.5z M330.2,236L330.2,236C330.1,236,330.2,236,330.2,236z M328.9,122.9
	c0.8,0.4,1.4,1.1,1.9,1.9c2.5,4.4-2.3,9.2-6.7,6.7c-0.8-0.4-1.4-1.1-1.9-1.9C319.7,125.2,324.5,120.4,328.9,122.9z M304.9,132.7
	c5.5,0,9.9,4.4,9.9,9.9s-4.4,9.9-9.9,9.9s-9.9-4.4-9.9-9.9C295,137.1,299.4,132.7,304.9,132.7z M335.5,236.4v11h-85v-11H335.5z
	 M250.5,263.2v-11h85v11H250.5z M315.5,270.5v119.6h-15V270.5H315.5z M293.2,299c-2.3,0-4.3-1.9-4.3-4.3s2-4.3,4.3-4.3
	s4.3,1.9,4.3,4.3C297.5,297,295.6,299,293.2,299z M297.5,483.5c0,2.4-1.9,4.3-4.3,4.3s-4.3-1.9-4.3-4.3s1.9-4.3,4.3-4.3
	S297.5,481.1,297.5,483.5z M255.5,299c-2.3,0-4.3-1.9-4.3-4.3s1.9-4.3,4.3-4.3c2.3,0,4.3,1.9,4.3,4.3C259.8,297,257.9,299,255.5,299
	z M259.7,483.5c0,2.4-1.9,4.3-4.3,4.3s-4.3-1.9-4.3-4.3s1.9-4.3,4.3-4.3S259.7,481.1,259.7,483.5z M250.2,194.5
	c5.1,0,9.2,4.1,9.2,9.2c0,5.1-4.1,9.2-9.2,9.2c-5.1,0-9.2-4.1-9.2-9.2S245.1,194.5,250.2,194.5z M244.2,497.2c2.4,0,4.3,1.9,4.3,4.3
	s-1.9,4.3-4.3,4.3s-4.3-1.9-4.3-4.3S241.8,497.2,244.2,497.2z M244.2,543.5c-2.4,0-4.3-1.9-4.3-4.3s1.9-4.3,4.3-4.3s4.3,1.9,4.3,4.3
	S246.6,543.5,244.2,543.5z M304.7,525.8h-59.2v-8.5h59.2V525.8z M310.7,406.8c0-2.8,2.2-5,5-5s5,2.2,5,5s-2.2,5-5,5
	S310.7,409.6,310.7,406.8z M315,434.6c0-2.7,2.2-5,5-5c2.7,0,5,2.2,5,5c0,2.7-2.2,5-5,5C317.2,439.5,315,437.3,315,434.6z
	 M324.1,591.7c-0.8-0.4-1.4-1.1-1.9-1.9c-2.5-4.4,2.3-9.2,6.7-6.7c0.8,0.4,1.4,1.1,1.9,1.9C333.3,589.4,328.5,594.2,324.1,591.7z
	 M348.8,562.1c-0.1,2.7-2.2,4.9-4.9,4.9c-2.7,0-4.8-2.2-4.9-4.9c0,0-0.1,0-0.1-0.1s0-0.1,0.1-0.1c0-2.7,2.2-4.9,4.9-4.9
	s4.8,2.2,4.9,4.9C348.8,561.9,348.9,562,348.8,562.1z M407.8,564.1h-51v-10h51V564.1z M414.1,544.1h-61.4c-2.1,0-3.8-1.7-3.8-3.8
	v-66.8c0-4.7-3.8-8.5-8.5-8.5H340c-4.7,0-8.5-3.8-8.5-8.5V290.8c0-4.7,3.8-8.5,8.5-8.5h8.9v-6.4c0-2.1,1.7-3.8,3.8-3.8h62.4
	c1.6,0,2.8,1.3,2.8,2.8v7.3h6.6c4.7,0,8.5,3.8,8.5,8.5v167.6c0,3.6-3,6.6-6.6,6.6c-4.7,0-8.5,3.8-8.5,8.5v66.8
	C417.8,542.4,416.1,544.1,414.1,544.1z M427.3,562.1c-0.1,2.7-2.2,4.9-4.9,4.9s-4.8-2.2-4.9-4.9c0,0-0.1,0-0.1-0.1s0-0.1,0.1-0.1
	c0-2.7,2.2-4.9,4.9-4.9s4.8,2.2,4.9,4.9C427.4,561.9,427.4,562,427.3,562.1z M433,543.6c-2.3,0-4.3-1.9-4.3-4.3
	c0-2.3,1.9-4.3,4.3-4.3s4.3,1.9,4.3,4.3C437.3,541.6,435.4,543.6,433,543.6z M433,505.9c-2.3,0-4.3-1.9-4.3-4.3
	c0-2.3,1.9-4.3,4.3-4.3s4.3,1.9,4.3,4.3C437.3,503.9,435.4,505.9,433,505.9z M447.5,588.2c-0.3,2.1-2,3.8-4.1,4.1
	c-3.4,0.5-6.2-2.3-5.7-5.7c0.3-2.1,2-3.8,4.1-4.1C445.1,582,448,584.8,447.5,588.2z M457.5,544.5h-10V444.4h10V544.5z M459.5,397.5
	h-11.8v-131h11.8V397.5z M451,142.6c0-5.5,4.4-9.9,9.9-9.9s9.9,4.4,9.9,9.9s-4.4,9.9-9.9,9.9S451,148.1,451,142.6z M519.5,309.3
	c0-2.3,1.9-4.3,4.3-4.3c2.3,0,4.3,1.9,4.3,4.3c0,2.3-1.9,4.3-4.3,4.3S519.5,311.7,519.5,309.3z M528.1,202.7c0,2.3-1.9,4.3-4.3,4.3
	s-4.3-1.9-4.3-4.3c0-2.4,1.9-4.3,4.3-4.3C526.1,198.4,528.1,200.3,528.1,202.7z M464.3,470.2h10v57h-10V470.2z M469.7,540.2
	c-2.8,0-5-2.2-5-5s2.2-5,5-5s5,2.2,5,5S472.5,540.2,469.7,540.2z M469.8,438.1c-2.8,0-5-2.2-5-5s2.2-5,5-5s5,2.2,5,5
	S472.6,438.1,469.8,438.1z M517.7,299.2v9h-43.2v-9H517.7z M524.8,540.1h-9V426.5h9V540.1z M467.2,198.4c2.3,0,4.3,1.9,4.3,4.3
	c0,2.3-1.9,4.3-4.3,4.3c-2.3,0-4.3-1.9-4.3-4.3C463,200.3,464.9,198.4,467.2,198.4z"/>
</svg>
